<svg version="1.1"
	 xmlns="http://www.w3.org/2000/svg" xmlns:xlink="http://www.w3.org/1999/xlink" xmlns:a="http://ns.adobe.com/AdobeSVGViewerExtensions/3.0/"
	 x="0px" y="0px" width="281px" height="120.2px" viewBox="0 0 281 120.2" enable-background="new 0 0 281 120.2"
	 xml:space="preserve">
<defs>
</defs>
<path fill="#57CB7D" d="M42.9,43.6c-0.6-0.8-1.1-1.5-1.4-1.9c-5-7.2-8.1-12.5-6.3-19.1c2-7.2,8.7-8.3,12.6-8.3
	c5.8,0,12.2,2.4,14.5,5.5c2.9,3.8,4,7.6,3.3,11.3c-0.6,3.4-2.9,6.7-6.2,8.8l-0.7,0.5l0.6,0.6c2.6,2.7,5.3,4.1,8.2,4.1
	c4.7,0,8-3.7,8-3.7c4.2-3.6,5.9-11.8,4-19.7c-2.3-9.8-8.3-15.9-19.9-20.2C55.5,0,51,0,47.5,0c-11,0-18.8,4.1-22.5,7.9
	c-5.6,5.8-8,12.5-7.5,21c0.6,10.6,10.1,24.5,12,27.2l1.4,2c5.5,7.7,11.2,15.7,13.3,19.9c0.2,0.3,0.3,0.6,0.5,1
	c2.5,4.5,8,14.9,1,20.8c-3.7,3.1-9.8,4-13.9,4.2c-7.6,0.4-18.6-4.4-17.7-16.2c1.5-11,15.9-7.2,15.9-7.2l0,0
	c-5.3-14.1-16.9-10.3-21.7-7.3C1,77.8-1.1,86,0.5,95.6c1.7,10.2,5.7,15.5,13.5,20.2c4.8,2.8,10.7,4.2,16.6,4.2
	c9.4,0,17.7-2,22.6-5.6c10.6-7.6,15.1-20.5,11.2-32.2C58.9,65.9,47.3,49.7,42.9,43.6z"/>
<path fill="#57CB7D" d="M279.9,47.8c-2.3-3.7-8.8-8-24.6-11.1c1.3-7.7,2.2-13.2,2.3-13.4c0-0.3,0.9-6.6-2.9-11
	c-2.3-2.6-5.7-4-10.2-4c-0.8,0-1.6,0-2.5,0.1l-1.6,0.2l1.2,1.1c0,0,3.6,3.3,1.6,15.1c-0.3,2-0.9,5.5-1.6,9.8
	c-2.7-0.3-5.7-0.6-8.8-0.9c1-6,1.7-10,1.7-10.2c0-0.3,0.9-6.6-2.9-11c-2.3-2.6-5.7-4-10.2-4c-0.8,0-1.6,0-2.5,0.1L217,8.7l1.3,1.1
	c0,0,3.6,3.3,1.5,15.1c-0.3,1.7-0.8,4.4-1.3,7.8c-4.9,0-14,0.1-19.9,0.8l-0.6,0.1c-1.6,0.2-4.3,0.5-7.1,0.5c-4.2,0-7-0.8-7.9-2.4
	c-0.8-1.3-0.4-3.2,0.9-5.7l1-1.8l-1.9,0.8c-0.4,0.2-10,4.4-8.1,12c1.1,4.2,3.9,6.7,8.8,7.7c1.5,0.3,3.2,0.5,5,0.5
	c2.4,0,4.8-0.3,7.4-0.5c1.7-0.2,3.4-0.3,5.2-0.5c3.4-0.2,6.9-0.3,10.5-0.3c1.6,0,3.2,0,4.8,0.1c-3.3,19.8-7.7,47.2-7.9,51.9
	c0,0.7-0.1,1.4-0.2,2.2c-0.1,0.9-0.2,1.9-0.2,3c-2.4,1.4-5,2.6-6.5,2.6h0c-2.4-0.1-2.4-4.9-2.4-6.9c0-1.7,4.3-21.1,7.2-33.7l0.4-1.5
	l-6,3.3c-0.4-3.1-2.2-11.9-10.8-13.3c-0.9-0.1-1.8-0.2-2.7-0.2c-9.8,0-18,8.3-21,12.7c-0.5,0.7-0.9,1.3-1.3,1.9
	c-3.5,5.1-4.7,6.8-8.4,19.8c-1.2,4.1-1.7,8.4-1.7,12.5c-6,4.1-15.2,9.7-21.6,9.7c0,0,0,0,0,0c-0.9,0-1.8-0.1-2.5-0.4
	c-7.8-2.5-6.5-13.5-6.2-15.9c4.4-0.8,36.4-7,33.6-28.7c0-0.1-1.2-11.3-15.6-11.3c-2.5,0-5.4,0.4-8.5,1c-15.6,3.5-25.4,27.6-23.4,46
	c-2.9,1.7-6.9,3.8-11.5,5.5c-3,1.1-5.6,1.7-7.9,1.7c-2.9,0-5.2-1-6.9-2.9c-4-4.7-3.1-14.1-2.5-17.9c1.1-6.7,4.6-22.2,14.3-22.3
	l0.1,0c1.3,0,2.7,0.7,3.6,1.2c4.4,2.9-0.9,9.6-0.9,9.7l-0.1,0.3l0.2,0.3c0.1,0.1,1.9,2.6,4.9,2.6c2.1,0,4.1-1.2,6.1-3.6
	c2.8-3.4,3.2-8,1.2-12.5c-2.2-4.8-7.7-9.6-15-9.6c-0.4,0-0.7,0-1.1,0c-12.3,0.8-20.7,14-23.1,22.1c-3.3,11.3-4.2,21.8-2.5,30.2
	c2.1,10.2,8.7,15.5,19.7,15.6l0.2,0c8.5,0,17.8-5.9,23.7-10.5c3.2,7.2,9.1,11.1,16.9,11.1l0.4,0c7.8-0.1,12.9-1.3,25.7-11
	c0.7,2.4,1.7,4.4,2.9,6.1c2.1,2.7,4.8,4.2,7.9,4.2c0.2,0,0.5,0,0.7,0c9-0.6,15.3-6.6,17.9-9.5c0,2.4,0.4,6.4,2.6,8.7
	c1.1,1.3,2.6,1.9,4.4,1.9c0,0,0,0,0,0c0.2,0,0.5,0,0.7,0c4.7-0.4,11.2-4.5,16-8c1.7,3.8,4.9,6.9,11.3,8c0,0,0.4,0.1,1.1,0.1
	c2.4,0,7.9-0.6,12.7-5c1.9,2.3,4.9,4.1,9.3,4.8c0,0,1.2,0.2,2.8,0.2c3.5,0,10-1,13.4-7.8c1.1-2.1,2.3-6.6,2.6-8.8
	c0.1-0.5,0-1.6,0-1.8l-0.1-1.6l-1.1,1.1c-0.1,0-5.1,4.9-10.6,4.9c-0.6,0-1.2-0.1-1.7-0.2c-5-1-4.6-6.5-3.5-14.1l0.2-1.3
	c0.5-3.8,4.1-25.2,7.1-42.9c15.3,2.5,26.3,5.4,26.5,5.4l0.6,0.2l0.2-0.6C280.9,52.6,281.7,50.6,279.9,47.8z M232,95.6
	c0,0.7-0.1,1.4-0.2,2.2c-0.2,2.2-0.4,5.1-0.2,8c-1.1,0.4-2.3,0.6-3.5,0.6c-0.6,0-1.2-0.1-1.7-0.2c-5-1-4.6-6.5-3.5-14.1l0.2-1.3
	c0.6-4,4.6-27.8,7.6-46c3,0.3,5.9,0.6,8.8,0.9C236.4,65.3,232.2,91.1,232,95.6z M173.4,105c-0.8,0-1.6-0.1-2.3-0.4
	c-1.3-0.5-2.3-1.5-3-3c-2.1-4.7-0.8-13.3,3.4-22.8C177.1,66,182,63.3,185,63.3c1.2,0,2.3,0.4,3.4,1.1c4.1,2.9,4.4,6.8,1.6,19.4
	C186.8,98.4,179.1,105,173.4,105z M147.4,66.7c-4.3,13.6-18.9,15-22.2,15.2c0-2.4,0.5-10.7,7.8-16.6c3.4-2.8,6.6-4.3,9.3-4.3
	c1.9,0,3.4,0.7,4.4,2.1C147.4,64.2,147.7,65.6,147.4,66.7z"/>
<polygon fill="#47AB69" points="218.5,32.7 232.6,33.6 219,29.8 "/>
</svg>
