<svg xmlns="http://www.w3.org/2000/svg" width="965.2" height="264.2" viewBox="0 0 965.2 264.2"><path fill="#FBF9F3" d="M108.4 22.9c-2.2 0-4.3.5-6.2 1.4C96.9 10.1 83.3 0 67.3 0 55 0 44.1 5.9 37.3 15.1c-2.3-.8-4.8-1.2-7.4-1.2C17 13.9 6.6 24.3 6.6 37.2h116c.1-7.9-6.3-14.3-14.2-14.3zM230 31.2c-11.4 0-21.3 6.3-26.4 15.6-3.5-3.1-8.1-5.1-13.1-5.1-10.9 0-19.7 8.8-19.7 19.7h89.6c-.2-16.7-13.7-30.2-30.4-30.2zM812.7 42.4c-2.1 0-4.1.4-6 1-5.5-7.4-14.4-12.3-24.3-12.3-13 0-24.1 8.2-28.4 19.8-1.5-.7-3.2-1.2-5-1.2-6.4 0-11.6 5.2-11.6 11.7h94.4c-.1-10.5-8.6-19-19.1-19zM456.3 20.9c-5.1 0-9.7 1.9-13.1 5-5.2-9.3-15.1-15.6-26.4-15.6-16.7 0-30.2 13.5-30.2 30.2H476c0-10.7-8.8-19.6-19.7-19.6z"/></svg>