<?xml version="1.0" encoding="UTF-8" standalone="no"?>
<svg
   xmlns:dc="http://purl.org/dc/elements/1.1/"
   xmlns:cc="http://creativecommons.org/ns#"
   xmlns:rdf="http://www.w3.org/1999/02/22-rdf-syntax-ns#"
   xmlns:svg="http://www.w3.org/2000/svg"
   xmlns="http://www.w3.org/2000/svg"
   xmlns:sodipodi="http://sodipodi.sourceforge.net/DTD/sodipodi-0.dtd"
   xmlns:inkscape="http://www.inkscape.org/namespaces/inkscape"
   width="128pt"
   height="21.03742pt"
   viewBox="0 0 128 21.03742"
   version="1.1"
   id="svg2"
   inkscape:version="0.91 r13725"
   sodipodi:docname="datasociety.svg">
  <metadata
     id="metadata50">
    <rdf:RDF>
      <cc:Work
         rdf:about="">
        <dc:format>image/svg+xml</dc:format>
        <dc:type
           rdf:resource="http://purl.org/dc/dcmitype/StillImage" />
        <dc:title></dc:title>
      </cc:Work>
    </rdf:RDF>
  </metadata>
  <defs
     id="defs48" />
  <sodipodi:namedview
     pagecolor="#ffffff"
     bordercolor="#666666"
     borderopacity="1"
     objecttolerance="10"
     gridtolerance="10"
     guidetolerance="10"
     inkscape:pageopacity="0"
     inkscape:pageshadow="2"
     inkscape:window-width="1440"
     inkscape:window-height="851"
     id="namedview46"
     showgrid="false"
     inkscape:zoom="6.2839859"
     inkscape:cx="123.32307"
     inkscape:cy="9.176784"
     inkscape:window-x="0"
     inkscape:window-y="1"
     inkscape:window-maximized="1"
     inkscape:current-layer="svg2"
     fit-margin-top="0"
     fit-margin-left="0"
     fit-margin-right="0"
     fit-margin-bottom="0" />
  <path
     style="fill:#97abb5;fill-opacity:1"
     d="M 62.867188 0.15234375 C 61.505144 0.18599186 60.160301 0.64679454 59.152344 1.5742188 C 57.971891 2.6667904 57.653071 4.4111189 58.011719 5.9335938 C 58.315739 7.2066773 59.280544 8.1444336 60.042969 9.15625 C 58.746134 9.8212936 57.446382 10.621075 56.626953 11.863281 C 55.113978 13.996172 55.629289 17.23419 57.638672 18.873047 C 59.225276 20.169882 61.414917 20.461222 63.388672 20.173828 C 65.250794 19.922062 66.796267 18.680639 67.964844 17.279297 C 68.784272 18.084474 69.53973 18.949367 70.316406 19.794922 C 71.52061 19.804422 72.727015 19.802047 73.933594 19.794922 C 72.496625 18.258196 70.983423 16.797336 69.548828 15.255859 C 70.755408 13.310607 72.048857 11.417909 73.257812 9.4726562 C 72.245997 9.4607814 71.232519 9.4620469 70.220703 9.4667969 C 69.401274 10.751756 68.633038 12.070087 67.818359 13.357422 C 66.545277 12.098589 65.344348 10.77113 64.087891 9.4980469 C 65.360973 8.8187522 66.630417 7.9966919 67.402344 6.7402344 C 68.632674 4.8828625 68.081176 2.0468548 66.107422 0.92578125 C 65.303135 0.48222089 64.38401 0.22410013 63.451172 0.1640625 C 63.256831 0.15155466 63.061765 0.14753688 62.867188 0.15234375 z M 63.019531 2.5078125 C 63.392653 2.5001675 63.761307 2.5601789 64.087891 2.6914062 C 65.118708 3.038179 65.647338 4.2730748 65.257812 5.2753906 C 64.797033 6.5579748 63.529963 7.2556144 62.416016 7.8945312 C 61.513456 6.9135919 60.338499 5.7983465 60.587891 4.328125 C 60.744651 3.1648924 61.900165 2.5307476 63.019531 2.5078125 z M 61.804688 10.736328 C 63.320036 12.339558 64.841179 13.938257 66.394531 15.505859 C 65.335211 16.755191 63.900567 17.941456 62.173828 17.908203 C 60.197698 17.972328 58.269414 16.098273 58.632812 14.072266 C 58.934458 12.442908 60.457973 11.472626 61.804688 10.736328 z "
     transform="scale(0.8,0.8)"
     id="path6" />
  <path
     inkscape:connector-curvature="0"
     d="m 61.780654,1.2617186 c 1.632207,-1.41749302 4.003563,-1.47829702 6.006294,-0.97286384 0.91016,0.20521346 1.651209,0.81135324 2.261149,1.49159784 -0.583338,0.5225343 -1.157176,1.0545693 -1.738614,1.5790037 -1.039368,-1.4611959 -3.235913,-1.7614156 -4.72181,-0.8436554 -1.153376,0.6783445 -1.390891,2.5537676 -0.313521,3.4050235 1.613206,1.295885 3.906657,1.1419749 5.519863,2.4435603 1.772816,1.3224868 1.734813,4.0890683 0.541535,5.7858793 -1.06787,1.506799 -3.000297,2.139541 -4.788314,2.067336 -1.761416,-0.0665 -3.64824,-0.666944 -4.71801,-2.154741 0.589039,-0.501633 1.172377,-1.008967 1.755715,-1.5182 1.189479,1.763316 3.988362,2.28395 5.576866,0.773351 0.90636,-0.75815 1.06217,-2.44166 -0.0076,-3.123805 C 65.491598,9.0351287 63.23615,9.0902324 61.706549,7.6955408 59.802624,6.1184373 59.855828,2.8027197 61.780654,1.2617186 Z"
     id="path8"
     style="fill:#97abb5;fill-opacity:1" />
  <path
     style="fill:#97abb5;fill-opacity:1"
     d="M 0.001953125 0.50195312 C -0.000422034 6.9338752 0.002375159 13.364531 0 19.798828 C 2.4392851 19.770328 4.8834026 19.863325 7.3203125 19.742188 C 10.379513 19.590178 13.455432 18.132419 15.201172 15.5625 C 17.697461 12.006891 17.300417 6.8278092 14.521484 3.5429688 C 12.740118 1.4932091 9.9765809 0.54708113 7.3164062 0.50195312 C 4.8771211 0.49720313 2.4388631 0.50195312 0.001953125 0.50195312 z M 6.7148438 2.9882812 C 8.0615571 3.0328155 9.3774837 3.2350329 10.578125 3.9238281 C 14.535135 6.0115901 15.231685 12.197179 11.949219 15.1875 C 10.574004 16.470084 8.6931524 17.082788 6.8476562 17.232422 C 5.4581901 17.270422 4.0672006 17.232266 2.6777344 17.244141 C 2.6753594 12.496204 2.6785781 7.7483586 2.6738281 2.9980469 C 3.9908521 3.0574256 5.3681304 2.943747 6.7148438 2.9882812 z "
     transform="scale(0.8,0.8)"
     id="path10" />
  <path
     inkscape:connector-curvature="0"
     d="m 94.825723,0.49026797 c 0.976664,-0.52823466 2.28775,0.37242444 2.120539,1.47449673 -0.057,1.0697702 -1.426994,1.6797103 -2.278249,1.0602696 -0.917761,-0.5700374 -0.817054,-2.0711359 0.15771,-2.53476633 z"
     id="path12"
     style="fill:#97abb5;fill-opacity:1" />
  <path
     inkscape:connector-curvature="0"
     d="m 27.078677,2.5842054 c 0.680245,0 1.360489,0 2.042634,0 0.0038,0.9652633 0,1.9324268 0.0019,2.8976902 0.934861,0.0019 1.867823,-0.0019 2.800784,0.0019 0,0.5871385 0,1.1723769 0,1.7595155 -0.934861,0 -1.867823,-0.0019 -2.800784,0 0,1.7880173 -0.0038,3.5760348 0,5.3640518 0.0057,0.547236 0.172911,1.21418 0.722047,1.457396 0.685945,0.30402 1.461196,0.102607 2.13004,-0.15011 -0.0057,0.61374 -0.0038,1.229381 0.0019,1.843121 -1.031767,0.389526 -2.198444,0.431328 -3.258713,0.138709 -0.925361,-0.269818 -1.539101,-1.176177 -1.569503,-2.120539 -0.136809,-2.173743 -0.0437,-4.3550859 -0.07221,-6.5326288 -0.742949,-0.0019 -1.485898,-0.0019 -2.228846,0 -0.0038,-0.5871386 -0.0038,-1.1742771 0,-1.7614156 0.741048,0 1.483997,0 2.226946,0.0019 0.0057,-0.9652634 0,-1.9324268 0.0038,-2.8995903 z"
     id="path18"
     style="fill:#97abb5;fill-opacity:1" />
  <path
     inkscape:connector-curvature="0"
     d="m 111.06229,2.5880056 c 0.68214,-0.0057 1.36429,-0.0057 2.04643,0 -0.002,0.9652634 -0.002,1.9305267 0,2.89389 0.93296,0.0019 1.86783,-0.0019 2.80079,0.0019 0,0.5871385 0,1.1723769 0,1.7576153 -0.93486,0.0019 -1.86783,0 -2.80079,0.0019 0,1.7918175 -0.004,3.5836348 0,5.3754528 0,0.547236 0.18241,1.195178 0.71445,1.455495 0.69355,0.288819 1.4612,0.08741 2.13764,-0.15771 -0.004,0.617541 -0.004,1.236981 -0.004,1.854522 -1.07357,0.370524 -2.27825,0.438929 -3.36322,0.08551 -0.87596,-0.296419 -1.4403,-1.181877 -1.465,-2.088237 -0.14631,-2.175642 -0.0133,-4.3588857 -0.0817,-6.5364286 -0.73915,0.015201 -1.4764,0.011401 -2.21365,0.011401 -0.004,-0.5871386 -0.004,-1.1742771 0,-1.7614156 0.74295,0 1.4859,0 2.23075,0 -0.002,-0.9652634 0,-1.9305267 -0.002,-2.89389 z"
     id="path20"
     style="fill:#97abb5;fill-opacity:1" />
  <path
     style="fill:#97abb5;fill-opacity:1"
     d="M 24.285156 6.5136719 C 22.313628 6.4637936 20.31694 7.1086003 18.84375 8.4375 C 19.363909 8.9576591 19.871202 9.4888704 20.365234 10.035156 C 21.738074 8.7881994 23.80779 8.0589475 25.582031 8.859375 C 26.674603 9.3439069 27.197836 10.577409 27.095703 11.724609 C 25.060196 11.719859 22.951379 11.650841 21.015625 12.384766 C 19.854174 12.819419 18.756134 13.687372 18.380859 14.908203 C 18.029336 16.243041 18.173151 17.827606 19.199219 18.841797 C 20.624312 20.226513 22.851662 20.345909 24.675781 19.828125 C 25.744601 19.545481 26.570754 18.768431 27.216797 17.90625 C 27.245297 18.528541 27.259031 19.150724 27.285156 19.775391 C 28.030956 19.808641 28.783076 19.807219 29.53125 19.792969 C 29.3745 17.579324 29.493078 15.358598 29.455078 13.142578 C 29.414701 11.819616 29.623252 10.430286 29.105469 9.1738281 C 28.618561 7.9601235 27.461222 7.132194 26.228516 6.7949219 C 25.597318 6.6239107 24.942332 6.530298 24.285156 6.5136719 z M 27.082031 13.566406 C 27.136656 14.718357 27.022617 15.968642 26.257812 16.892578 C 25.184242 18.168037 23.233207 18.37926 21.755859 17.761719 C 20.456649 17.265311 20.362674 15.21239 21.53125 14.511719 C 23.160607 13.445274 25.219909 13.61391 27.082031 13.566406 z "
     transform="scale(0.8,0.8)"
     id="path22" />
  <path
     style="fill:#97abb5;fill-opacity:1"
     d="M 47.828125 6.5136719 C 45.867731 6.4780446 43.887017 7.1187094 42.431641 8.4511719 C 42.942298 8.9784565 43.462685 9.497419 43.980469 10.017578 C 45.339057 8.7848723 47.372822 8.0782627 49.132812 8.8359375 C 50.249136 9.3204692 50.736594 10.557456 50.746094 11.707031 C 48.249805 11.745034 45.496476 11.581512 43.339844 13.068359 C 41.565603 14.265438 41.280927 17.036128 42.634766 18.646484 C 44.000481 20.197461 46.347392 20.367129 48.228516 19.839844 C 49.328213 19.557201 50.188786 18.760826 50.830078 17.853516 C 50.820578 18.501933 50.846609 19.152786 50.896484 19.798828 L 53.144531 19.798828 C 52.921256 17.592308 53.074422 15.371848 53.029297 13.158203 C 52.967543 11.754486 53.258372 10.253601 52.595703 8.9472656 C 52.075544 7.8119411 50.932671 7.0917085 49.761719 6.7734375 C 49.132896 6.6119269 48.48159 6.5255476 47.828125 6.5136719 z M 50.724609 13.564453 C 50.686609 14.680777 50.656804 15.906035 49.90625 16.808594 C 48.84693 18.190935 46.770786 18.409498 45.257812 17.720703 C 44.065484 17.150666 43.974257 15.281063 45.064453 14.556641 C 46.705686 13.423692 48.829234 13.619082 50.724609 13.564453 z "
     transform="scale(0.8,0.8)"
     id="path24" />
  <path
     style="fill:#97abb5;fill-opacity:1"
     d="M 96.351562 6.515625 C 95.759407 6.4883849 95.164116 6.5358826 94.583984 6.6582031 C 91.567536 7.2258654 89.141688 10.060735 89.179688 13.148438 C 89.027678 15.768235 90.637828 18.339491 93.005859 19.429688 C 95.870297 20.852406 99.678422 19.993374 101.57617 17.392578 C 103.52617 14.865412 103.32698 10.950071 101.08008 8.6699219 C 99.874092 7.3410221 98.12803 6.5973452 96.351562 6.515625 z M 96.296875 8.8691406 C 97.137411 8.9104275 97.965347 9.1761373 98.628906 9.703125 C 100.53378 11.185222 100.72055 14.206561 99.402344 16.132812 C 98.005751 18.111317 94.825769 18.31036 93.113281 16.640625 C 90.890136 14.472109 91.589148 9.8348967 94.802734 9.0273438 C 95.284594 8.899976 95.792553 8.8443685 96.296875 8.8691406 z "
     transform="scale(0.8,0.8)"
     id="path26" />
  <path
     inkscape:connector-curvature="0"
     d="m 86.489876,5.6643075 c 2.088237,-0.8398551 4.73131,-0.4712309 6.300813,1.21798 C 92.249154,7.2965146 91.800724,7.9406569 91.205985,8.2199753 90.176118,7.0951014 88.3862,6.7321776 87.059913,7.5397306 c -2.044534,1.3281872 -2.116739,4.8510184 -0.0228,6.1716054 1.333887,0.874057 3.258714,0.585238 4.254379,-0.670744 0.476931,0.486432 0.961463,0.967163 1.444095,1.451695 -2.219346,2.384656 -6.692239,2.082537 -8.501158,-0.657443 -0.898759,-1.37189 -1.056469,-3.127606 -0.689745,-4.6990086 0.359123,-1.5372009 1.474496,-2.878689 2.945193,-3.4715279 z"
     id="path28"
     style="fill:#97abb5;fill-opacity:1" />
  <path
     style="fill:#97abb5;fill-opacity:1"
     d="M 129.55469 6.5136719 C 127.79893 6.4583382 126.0161 7.0038577 124.72461 8.21875 C 121.97893 10.715039 121.87259 15.452479 124.35938 18.160156 C 127.17631 21.067348 132.60499 20.701387 135.00391 17.435547 C 134.37448 16.946266 133.74312 16.465 133.11133 15.980469 C 132.53654 16.576633 131.95647 17.200632 131.20117 17.566406 C 128.77138 18.701731 125.33011 17.046716 125.20898 14.222656 C 128.66008 14.217906 132.11182 14.217906 135.56055 14.222656 C 135.61755 12.849815 135.51862 11.44274 134.99609 10.160156 C 134.34529 8.5521756 132.96524 7.2331086 131.28125 6.7675781 C 130.72131 6.6185371 130.13994 6.5321164 129.55469 6.5136719 z M 129.12305 8.5292969 C 130.23306 8.4891465 131.35769 8.8840055 132.07617 9.7539062 C 132.66283 10.421325 132.80407 11.330226 132.93945 12.175781 C 130.36478 12.22566 127.78757 12.190141 125.21289 12.197266 C 125.36728 10.917057 126.07852 9.6891191 127.23047 9.0644531 C 127.79694 8.7357909 128.45704 8.5533871 129.12305 8.5292969 z "
     transform="scale(0.8,0.8)"
     id="path30" />
  <path
     inkscape:connector-curvature="0"
     d="m 117.56452,5.4780953 c 0.77335,0.0057 1.5467,0.0038 2.32195,0.0057 1.00896,2.6772757 2.03503,5.3469513 3.0364,8.0261263 0.97856,-2.673475 1.95142,-5.3507507 2.92809,-8.0261263 0.71635,-0.0019 1.43269,-0.0038 2.14904,0.0019 -1.62651,4.1707737 -3.25871,8.3377472 -4.88332,12.5085212 -0.41993,1.103972 -0.95196,2.348554 -2.13384,2.812184 -1.02037,0.357224 -2.16234,0.264118 -3.18651,-0.0342 0.0893,-0.61184 0.17291,-1.22558 0.24892,-1.839321 0.81135,0.277419 1.86972,0.418028 2.52146,-0.275518 0.63844,-0.811353 0.83606,-1.862122 1.25978,-2.785583 -1.41369,-3.467727 -2.85778,-6.9221539 -4.26197,-10.3936817 z"
     id="path32"
     style="fill:#97abb5;fill-opacity:1" />
  <path
     inkscape:connector-curvature="0"
     d="m 94.483701,15.837575 c 0.0019,-3.450626 -0.0019,-6.9031529 0.0019,-10.3556794 0.665043,0 1.330087,0 1.995131,0.0019 0,3.4506264 0,6.9031533 0,10.3556793 -0.666944,0 -1.331988,0 -1.997031,-0.0019 z"
     id="path34"
     style="fill:#97abb5;fill-opacity:1" />
</svg>
