<?xml version="1.0" encoding="UTF-8" standalone="no"?>
<svg
   xmlns:dc="http://purl.org/dc/elements/1.1/"
   xmlns:cc="http://creativecommons.org/ns#"
   xmlns:rdf="http://www.w3.org/1999/02/22-rdf-syntax-ns#"
   xmlns:svg="http://www.w3.org/2000/svg"
   xmlns="http://www.w3.org/2000/svg"
   xmlns:sodipodi="http://sodipodi.sourceforge.net/DTD/sodipodi-0.dtd"
   xmlns:inkscape="http://www.inkscape.org/namespaces/inkscape"
   width="190.00002"
   height="44.832672"
   viewBox="0 0 190.00001 44.832673"
   id="svg5526"
   version="1.1"
   inkscape:version="0.91 r13725"
   sodipodi:docname="ford-foundation.svg">
  <metadata
     id="metadata5536">
    <rdf:RDF>
      <cc:Work
         rdf:about="">
        <dc:format>image/svg+xml</dc:format>
        <dc:type
           rdf:resource="http://purl.org/dc/dcmitype/StillImage" />
        <dc:title></dc:title>
      </cc:Work>
    </rdf:RDF>
  </metadata>
  <defs
     id="defs5534" />
  <sodipodi:namedview
     pagecolor="#ffffff"
     bordercolor="#666666"
     borderopacity="1"
     objecttolerance="10"
     gridtolerance="10"
     guidetolerance="10"
     inkscape:pageopacity="0"
     inkscape:pageshadow="2"
     inkscape:window-width="845"
     inkscape:window-height="480"
     id="namedview5532"
     showgrid="false"
     fit-margin-top="0"
     fit-margin-left="0"
     fit-margin-right="0"
     fit-margin-bottom="0"
     inkscape:zoom="1.7583664"
     inkscape:cx="88.150002"
     inkscape:cy="20.700002"
     inkscape:window-x="60"
     inkscape:window-y="127"
     inkscape:window-maximized="0"
     inkscape:current-layer="svg5526" />
  <g
     id="g5528"
     transform="scale(1.0777085,1.0777085)"
     style="fill:#97abb5">
    <path
       d="M 3.8,11.6 C 3.9,10.8 3.9,10 3.8,9.2 3.8,9 3.7,8.8 3.6,8.6 3.4,8.8 3.3,8.9 3.2,9.1 l 0,0.1 c 0.5,1.5 0.1,2.9 -0.9,4.1 -0.4,0.5 -1,0.8 -1.6,1.1 -0.1,0.2 -0.1,0.4 -0.2,0.6 1.6,-0.4 3,-1.8 3.3,-3.4 z m 10.7,27.8 c -0.4,-0.9 -1.2,-1.5 -2.2,-2.1 0.6,-0.4 1.3,-0.8 1.7,-1.2 0.5,-0.4 0.9,-1 1.2,-1.5 0.3,-0.6 0.6,-1.2 0.8,-1.8 0.3,0.5 0.5,1.1 0.9,1.6 1.4,2 4.2,2.7 6.5,1.2 1.4,-0.9 2.7,-3.1 2.1,-5.3 -0.4,-1.4 -1.2,-2.5 -2.5,-3.1 -0.8,-0.4 -1.6,-0.4 -2.5,-0.4 -1.6,0 -2.9,0.7 -3.8,2.1 -0.3,0.5 -0.5,1 -0.8,1.5 -0.5,-2 -1.6,-3.5 -3.4,-4.4 2,-1.5 3.1,-3.3 2.7,-5.8 -0.4,-2.6 -2,-3.9 -4.5,-4.6 2.1,-0.8 2.8,-1.3 3.9,-3.3 1.5,2.9 1.7,2.7 3.6,4.1 -0.6,0.6 -1.3,1 -1.8,1.6 -1,1.5 -1.3,3.1 -0.8,4.7 0.8,2.2 2.3,3.4 4.7,3.6 1.8,0.1 3.2,-0.5 4.4,-2 1.1,-1.4 1.3,-3 0.9,-4.6 -0.3,-1.3 -1.2,-2.2 -2.3,-3 -0.1,-0.1 -0.2,-0.2 -0.3,-0.4 1.8,-0.9 3,-2.2 3.6,-4.2 0.5,1.5 1.4,2.5 2.6,3.1 1.3,0.6 2.7,0.7 4,0.1 2.4,-1 3.5,-2.7 3.1,-5.6 C 36.1,7.8 34.7,6 31.6,5.6 30.7,5.5 29.7,5.7 28.8,6.3 27.8,7 26.9,7.8 26.5,9.2 26.1,8.2 25.7,7.3 25.1,6.6 24.9,5.5 24,5 23.2,4.5 25.2,3.1 26,1.5 26,0.2 25.7,0.1 25.3,0 25,0 25,1.8 24,2.9 22.5,3.6 21.2,4.2 19.9,3.9 18.8,3.2 17.8,2.5 17.1,1.5 17.1,0.1 l 0,-0.1 c -0.4,0.1 -0.7,0.1 -1.1,0.2 0,1.9 1,3.3 2.7,4.3 0,0.1 -0.1,0.1 -0.1,0.2 C 18.5,4.8 18.3,4.9 18.2,4.9 16.7,5.6 15.7,6.8 15.1,8.4 15,8.6 14.9,8.7 14.8,8.9 13.8,6.5 11.8,5.1 9.1,5.5 7.5,5.7 5.4,6.9 5,10 c -0.1,1 0.1,1.9 0.6,2.8 0.7,1.4 1.9,2.2 3.6,2.6 -0.3,0.1 -0.4,0.2 -0.6,0.2 -1.1,0.3 -2,0.9 -2.7,1.7 -1.2,1.3 -1.5,2.9 -1.2,4.5 0.3,1.5 1,2.8 2.4,3.7 0.1,0.1 0.2,0.2 0.3,0.4 -1.6,0.8 -2.7,2 -3.2,3.7 0,0.1 -0.1,0.2 -0.3,0.4 C 3.6,28.9 3,28.2 2.3,27.6 1.7,27.2 1.1,26.7 0.4,26.6 c 0.1,0.4 0.2,0.8 0.4,1.2 1.7,0.7 2.8,2.7 2.3,4.7 0.2,0.3 0.4,0.7 0.7,1 l 0.3,-0.6 c 0.2,0.8 0.5,1.5 0.9,2.1 0.4,0.5 0.8,0.9 1.3,1.3 0.4,0.4 0.9,0.7 1.4,1 l -0.1,0.1 c 0.4,0.4 0.9,0.7 1.3,1 0.8,-0.3 1.7,-0.3 2.4,0 1.3,0.5 2.1,1.3 2.5,2.6 0.5,0.2 1,0.3 1.6,0.5 -0.1,-0.3 -0.2,-0.5 -0.2,-0.7 -0.2,-0.6 -0.5,-1 -0.7,-1.4 z m 6.4,-12.1 c 2.4,-0.1 4.1,1.8 4.3,4.1 -0.3,2.6 -1.8,4.3 -4.3,4.4 -2.5,0 -4.2,-1.6 -4.3,-4.1 0,-2.5 1.9,-4.5 4.3,-4.4 z M 31.8,6.4 c 2,-0.1 4.1,2 4,4 0,1.1 -0.4,2 -1.1,2.8 -0.8,0.8 -1.8,1.3 -2.9,1.2 -2.5,-0.1 -4,-1.7 -4.1,-4 0,-2.4 2.1,-4 4.1,-4 z M 25,20.9 c 0,2.2 -1.8,4 -4,4 -2.1,0 -3.8,-1.6 -4,-3.6 l 0,-0.4 c 0,-2.2 1.8,-4 4,-4 2.2,0 4,1.8 4,4 z M 20.9,7.5 c 1.5,0 2.9,1.2 2.9,2.9 0,1.4 -1.1,2.8 -2.8,2.8 -1.7,0.1 -3,-1.3 -3,-2.8 0,-1.5 1.2,-2.9 2.9,-2.9 z m -15,2.8 c 0,-2.2 1.9,-3.9 4.1,-3.9 1.8,-0.1 4.3,1.8 4,4 0.1,2.6 -2.1,4.2 -4,4.1 C 7.5,14.4 6,12.6 5.9,10.3 Z M 6.4,20.9 C 6.5,19.3 8,17.4 10,17.3 c 1.6,0 3.7,1.6 3.6,3.7 -0.1,1.8 -1.4,3.6 -3.6,3.5 -1.7,0.2 -3.7,-1.8 -3.6,-3.6 z m 3.7,13.7 c -1.8,0 -3.2,-1.4 -3.2,-3.2 0,-1.8 1.4,-3.2 3.2,-3.2 1.8,0 3.2,1.4 3.2,3.2 0,1.8 -1.5,3.2 -3.2,3.2 z M 4.1,21.7 C 4.4,19.2 3,16.7 0.2,16 0.1,16.3 0.1,16.7 0,17 1.8,17.5 3,18.9 3.2,20.8 3.3,21.5 3,22.2 2.6,22.9 2,24 1.1,24.6 0,24.9 c 0.1,0.3 0.1,0.7 0.2,1 1.9,-0.4 3.7,-2.1 3.9,-4.2 z M 13.2,3.5 C 14.1,2.8 14.7,1.8 14.8,0.6 14.6,0.7 14.5,0.7 14.3,0.8 13.8,2 13.3,3 12,3.6 10.7,4.3 9.5,4.2 8.3,3.8 8.1,3.9 8,4 7.8,4.1 c 0.6,0.4 1.3,0.5 2,0.6 1.3,0.1 2.4,-0.4 3.4,-1.2 z M 30.6,4.8 C 31.8,5.1 33.1,4.9 34.2,4.3 33.9,4 33.6,3.8 33.2,3.6 32.7,3.8 32.2,3.9 31.7,3.9 30.3,3.8 29.2,3.2 28.4,2 28.2,1.6 28,1.2 27.9,0.8 27.5,0.7 27.2,0.6 26.8,0.5 c 0.1,1.9 1.7,3.8 3.8,4.3 z m 8.6,12.5 c -0.6,0.5 -1,1.3 -1.3,2 -0.4,1.3 -0.3,2.6 0.3,3.9 0.5,1 1.2,1.6 2,2.1 0.4,0.3 0.9,0.4 1.3,0.4 0.1,-0.3 0.1,-0.6 0.2,-1 -1.8,-0.4 -3,-2 -3.2,-3.6 -0.1,-0.8 0.2,-1.6 0.6,-2.3 0.6,-1 1.5,-1.7 2.6,-1.9 -0.1,-0.3 -0.1,-0.6 -0.2,-0.9 -0.9,0.1 -1.6,0.7 -2.3,1.3 z m -1.4,-4.5 c 0.6,1.3 1.7,2.2 3.1,2.7 0.2,0.1 0.5,0.2 0.7,0.3 -0.2,-0.8 -0.4,-1.6 -0.7,-2.4 -1,-0.6 -1.6,-1.6 -1.8,-2.9 0,-0.2 0.1,-0.4 0.1,-0.6 -0.4,-0.7 -0.9,-1.4 -1.4,-2 -0.8,1.7 -0.7,3.4 0,4.9 z m -5.9,3.3 c -3,0 -5,2.3 -4.9,4.8 0,2.8 2,4.8 4.8,4.8 2.6,0.1 5,-2.2 4.8,-4.8 0.2,-2.3 -1.9,-4.8 -4.7,-4.8 z m -0.1,9.1 c -2.2,0 -4.4,-1.8 -4.3,-4.4 0.1,-2.4 1.9,-4 4.2,-4.2 2.7,0.3 4.4,2.2 4.2,4.3 0.3,2.2 -1.8,4.3 -4.1,4.3 z m 6.1,4.2 c -0.6,1.3 -0.5,3 0.1,4.1 0.3,-0.4 0.6,-0.9 0.9,-1.3 l 0,-0.2 c -0.1,-1.5 0.3,-3.3 2.1,-4.1 0.2,-0.5 0.3,-1 0.5,-1.6 -1.5,0.4 -2.8,1.5 -3.6,3.1 z m -3.4,6.9 c 0.4,-0.3 0.7,-0.5 1,-0.7 0.9,-0.9 1.5,-1.9 1.7,-3.2 0.4,-2 -0.3,-3.8 -1.7,-5.1 -2.3,-2.1 -5.9,-1.9 -7.9,0.5 -1,1.1 -1.4,2.5 -1.3,3.9 0.1,1.7 0.9,3.2 2.4,4.2 0.1,0.1 0.2,0.3 0.3,0.3 -0.7,0.6 -1.4,1.1 -1.9,1.7 -0.5,0.6 -0.9,1.5 -1.3,2.2 -1.6,-3.3 -4.6,-3.8 -6.7,-3 -1.9,0.8 -3.2,2.6 -3.2,4.3 0.4,0.1 0.7,0.2 1.1,0.2 0.1,-0.9 0.2,-1.7 0.9,-2.3 0.8,-0.9 1.7,-1.4 2.8,-1.5 1,-0.1 1.9,0.2 2.6,0.8 1,0.8 1.2,1.2 1.6,3 1.6,-0.3 3.1,-0.8 4.5,-1.4 0.5,-0.8 1.3,-1.2 2.4,-1.4 0.1,0 0.2,0 0.2,0.1 1.1,-0.7 2.1,-1.4 3.1,-2.3 -0.2,0 -0.5,-0.1 -0.6,-0.3 z M 31.7,35 c -1.9,0 -3.6,-1.9 -3.5,-3.7 -0.1,-1.6 1.6,-3.6 3.5,-3.5 2.3,0.1 3.3,1.4 3.7,3.5 C 35.2,33.5 34,35 31.7,35 Z m 23,-17.3 2.1,0 0,-5.1 6.3,0 0,-1.9 -6.3,0 0,-3.4 7.1,0 0,-2 -9.2,0 z M 72.1,5.1 c -3.8,0 -6.5,2.9 -6.5,6.4 0,3.5 2.7,6.4 6.5,6.4 3.8,0 6.5,-2.9 6.5,-6.4 0,-3.5 -2.7,-6.4 -6.5,-6.4 z m 0,10.8 c -2.5,0 -4.2,-2 -4.2,-4.4 0,-2.4 1.7,-4.4 4.2,-4.4 2.5,0 4.2,2 4.2,4.4 0,2.4 -1.7,4.4 -4.2,4.4 z M 91.3,9.2 c 0,-2.4 -1.8,-3.9 -4.6,-3.9 l -5.5,0 0,12.4 2.2,0 0,-4.3 2.7,0 3,4.3 2.6,0 -3.3,-4.7 c 1.7,-0.5 2.9,-1.7 2.9,-3.8 z m -7.9,2.2 0,-4.1 3.2,0 c 1.6,0 2.6,0.7 2.6,2.1 0,1.3 -1,2.1 -2.5,2.1 l -3.3,0 z m 21.8,0.1 c 0,-3.5 -2.7,-6.2 -6.6,-6.2 l -4.6,0 0,12.4 4.6,0 c 3.9,0 6.6,-2.7 6.6,-6.2 z m -9,-4.2 2.4,0 c 2.6,0 4.3,1.8 4.3,4.2 0,2.4 -1.7,4.2 -4.3,4.2 l -2.4,0 0,-8.4 z m -41.5,28.8 1.7,0 0,-5.4 6.7,0 0,-1.6 -6.7,0 0,-4.1 7.5,0 0,-1.6 -9.2,0 z M 72,23.2 c -3.6,0 -6.5,2.9 -6.5,6.6 0,3.7 2.8,6.5 6.4,6.5 3.6,0 6.5,-2.9 6.5,-6.6 0,-3.7 -2.8,-6.5 -6.4,-6.5 z m 0,11.5 c -2.7,0 -4.7,-2.1 -4.7,-5 0,-2.8 2,-4.9 4.7,-4.9 2.7,0 4.7,2.1 4.7,5 -0.1,2.8 -2.1,4.9 -4.7,4.9 z m 17.8,-3.9 c 0,2.5 -1.3,3.9 -3.6,3.9 -2.3,0 -3.6,-1.5 -3.6,-4 l 0,-7.3 -1.7,0 0,7.3 c 0,3.4 2,5.5 5.3,5.5 3.3,0 5.3,-2.1 5.3,-5.6 l 0,-7.2 -1.7,0 0,7.4 z m 13.8,2.3 -7.5,-9.6 -0.1,-0.1 -1.5,0 0,12.7 1.6,0 0,-9.9 7.8,9.8 0,0.1 1.3,0 0,-12.7 -1.6,0 z m 9.3,-9.7 -4.4,0 0,12.7 4.4,0 c 3.9,0 6.7,-2.7 6.7,-6.4 0,-3.6 -2.8,-6.3 -6.7,-6.3 z m 0,11.1 -2.8,0 0,-9.5 2.8,0 c 2.9,0 5,2 5,4.8 0,2.8 -2.1,4.7 -5,4.7 z m 14.7,-11.2 -1.5,0 -5.7,12.6 -0.1,0.2 1.8,0 1.5,-3.3 6.5,0 1.4,3.3 1.8,0 -5.7,-12.8 z m 1.8,8 -5.2,0 2.6,-5.8 2.6,5.8 z m 3.6,-6.3 4.1,0 0,11.1 1.7,0 0,-11.1 4.2,0 0,-1.6 -10,0 z m 12.5,-1.6 1.7,0 0,12.7 -1.7,0 z m 10.9,-0.2 c -3.6,0 -6.5,2.9 -6.5,6.6 0,3.7 2.8,6.5 6.4,6.5 3.6,0 6.5,-2.9 6.5,-6.6 0,-3.7 -2.7,-6.5 -6.4,-6.5 z m 0,11.5 c -2.7,0 -4.7,-2.1 -4.7,-5 0,-2.8 2,-4.9 4.7,-4.9 2.7,0 4.7,2.1 4.7,5 0,2.8 -2,4.9 -4.7,4.9 z m 18.2,-11.3 0,9.7 -7.5,-9.6 -0.1,-0.1 -1.5,0 0,12.7 1.7,0 0,-9.9 7.7,9.8 0,0.1 1.4,0 0,-12.7 z"
       id="path5530"
       inkscape:connector-curvature="0" />
  </g>
</svg>
