<?xml version="1.0" encoding="UTF-8" standalone="no"?>
<svg
   xmlns:dc="http://purl.org/dc/elements/1.1/"
   xmlns:cc="http://creativecommons.org/ns#"
   xmlns:rdf="http://www.w3.org/1999/02/22-rdf-syntax-ns#"
   xmlns:svg="http://www.w3.org/2000/svg"
   xmlns="http://www.w3.org/2000/svg"
   xmlns:sodipodi="http://sodipodi.sourceforge.net/DTD/sodipodi-0.dtd"
   xmlns:inkscape="http://www.inkscape.org/namespaces/inkscape"
   width="150"
   height="62.925171"
   viewBox="0 0 150.00001 62.92517"
   id="svg4325"
   version="1.1"
   inkscape:version="0.91 r13725"
   sodipodi:docname="house-reps.svg">
  <metadata
     id="metadata4347">
    <rdf:RDF>
      <cc:Work
         rdf:about="">
        <dc:format>image/svg+xml</dc:format>
        <dc:type
           rdf:resource="http://purl.org/dc/dcmitype/StillImage" />
        <dc:title></dc:title>
      </cc:Work>
    </rdf:RDF>
  </metadata>
  <defs
     id="defs4345" />
  <sodipodi:namedview
     pagecolor="#ffffff"
     bordercolor="#666666"
     borderopacity="1"
     objecttolerance="10"
     gridtolerance="10"
     guidetolerance="10"
     inkscape:pageopacity="0"
     inkscape:pageshadow="2"
     inkscape:window-width="1361"
     inkscape:window-height="685"
     id="namedview4343"
     showgrid="false"
     fit-margin-top="0"
     fit-margin-left="0"
     fit-margin-right="0"
     fit-margin-bottom="0"
     inkscape:zoom="1.7425521"
     inkscape:cx="88.149997"
     inkscape:cy="35.8"
     inkscape:window-x="20"
     inkscape:window-y="43"
     inkscape:window-maximized="0"
     inkscape:current-layer="svg4325" />
  <g
     id="g4327"
     transform="matrix(0.85034014,0,0,0.85034014,-0.68027211,-2.5510204)"
     style="fill:#97abb5">
    <path
       d="m 16.8,4.2 c -0.2,0 -0.5,0.1 -0.9,0.1 -0.4,0.1 -0.7,0.2 -1,0.4 -0.2,0.2 -0.4,0.5 -0.5,1 -0.1,0.5 -0.1,1.2 -0.1,1.9 l 0,6.8 c 0,0.9 -0.2,1.6 -0.5,2.2 -0.4,0.6 -0.8,1.2 -1.4,1.6 -0.6,0.4 -1.2,0.7 -1.8,0.8 C 10,19.2 9.4,19.3 8.8,19.3 7.9,19.3 7,19.2 6.3,18.9 5.6,18.7 5,18.3 4.5,17.9 4,17.5 3.6,17 3.4,16.5 3.2,16 3,15.4 3,14.8 L 3,5.7 C 3,5.4 3,5.2 2.9,5.1 2.6,4.9 2.5,4.7 2.2,4.6 2,4.5 1.8,4.4 1.5,4.3 1.2,4.3 1,4.2 0.8,4.2 l 0,-0.8 6.5,0 0,0.8 C 7.1,4.2 6.8,4.2 6.5,4.3 6.2,4.4 6,4.4 5.8,4.5 5.6,4.6 5.4,4.7 5.3,4.9 5.2,5.1 5.2,5.3 5.2,5.6 l 0,8.6 c 0,0.4 0,0.9 0.1,1.3 0.1,0.5 0.3,0.9 0.5,1.3 0.3,0.4 0.7,0.7 1.2,1 0.5,0.3 1.2,0.4 2,0.4 0.8,0 1.5,-0.1 2,-0.4 0.5,-0.3 1,-0.6 1.3,-1 0.3,-0.4 0.5,-0.8 0.6,-1.2 0.1,-0.4 0.2,-0.9 0.2,-1.3 l 0,-6.5 C 13.1,7 13,6.3 12.9,5.8 12.8,5.3 12.6,4.9 12.4,4.8 12.1,4.6 11.8,4.5 11.4,4.4 11,4.3 10.6,4.2 10.4,4.2 l 0,-0.8 6.3,0 0,0.8 z m 17.2,0 c -0.2,0 -0.5,0.1 -0.9,0.2 -0.4,0.1 -0.7,0.2 -0.9,0.3 -0.3,0.2 -0.4,0.5 -0.5,1 -0.1,0.5 -0.1,1.2 -0.1,2 l 0,11.4 -1,0 -9.5,-12.7 0,8 c 0,0.9 0.1,1.6 0.2,2.1 0.1,0.5 0.3,0.8 0.5,1 0.2,0.2 0.5,0.3 1,0.4 0.5,0.1 0.9,0.2 1,0.2 l 0,0.9 -6.4,0 0,-0.8 c 0.2,0 0.5,-0.1 1,-0.2 0.5,-0.1 0.8,-0.2 0.9,-0.3 0.3,-0.2 0.4,-0.5 0.5,-0.9 0.1,-0.4 0.1,-1.1 0.1,-2.1 l 0,-7.8 C 19.9,6.6 19.8,6.2 19.7,5.9 19.6,5.6 19.4,5.3 19.2,5.1 18.9,4.9 18.6,4.7 18.1,4.5 17.7,4.3 17.3,4.2 17,4.2 l 0,-0.8 4.4,0 8.7,11.8 0,-7.3 C 30.1,7 30,6.3 29.9,5.8 29.8,5.3 29.6,5 29.4,4.8 29.2,4.7 28.9,4.5 28.4,4.4 27.9,4.3 27.6,4.2 27.3,4.2 l 0,-0.8 6.7,0 0,0.8 z m 8,14.8 -7,0 0,-0.8 c 0.2,0 0.5,0 0.9,-0.1 0.4,0 0.6,-0.1 0.8,-0.1 0.2,-0.1 0.4,-0.2 0.5,-0.4 0.1,-0.2 0.2,-0.4 0.2,-0.7 l 0,-11.2 c 0,-0.3 0,-0.5 -0.1,-0.6 C 37.2,4.9 37,4.8 36.7,4.7 36.5,4.6 36.2,4.5 35.9,4.5 35.6,4.4 35.3,4.4 35.1,4.4 l 0,-1 7,0 0,0.8 c -0.2,0 -0.5,0 -0.8,0.1 -0.3,0 -0.6,0.1 -0.8,0.2 -0.3,0.1 -0.5,0.2 -0.6,0.4 -0.1,0.2 -0.1,0.4 -0.1,0.7 l 0,11.2 c 0,0.2 0.1,0.5 0.2,0.6 0.1,0.2 0.3,0.3 0.5,0.4 0.2,0.1 0.4,0.1 0.7,0.2 0.3,0.1 0.6,0.1 0.9,0.1 l 0,0.9 z M 56.6,7.7 55.8,7.7 C 55.7,7.4 55.6,7.1 55.4,6.8 55.2,6.4 55,6.1 54.8,5.8 54.6,5.5 54.3,5.2 54.1,4.9 53.8,4.6 53.6,4.5 53.3,4.5 53.1,4.5 52.8,4.4 52.4,4.4 l -1.4,0 0,12.4 c 0,0.2 0.1,0.5 0.2,0.7 0.1,0.2 0.3,0.4 0.5,0.5 0.1,0.1 0.4,0.1 0.8,0.2 0.4,0.1 0.7,0.1 1,0.1 l 0,0.7 -7.3,0 0,-0.8 c 0.2,0 0.5,0 0.9,-0.1 0.4,-0.1 0.7,-0.1 0.9,-0.2 0.2,-0.1 0.4,-0.2 0.5,-0.4 0.1,-0.2 0.2,-0.4 0.2,-0.7 l 0,-12.5 -1.5,0 c -0.3,0 -0.7,0 -1,0.1 C 46,4.4 45.7,4.6 45.5,4.8 45.3,5 45,5.4 44.8,5.7 44.6,6 44.4,6.4 44.2,6.7 44,7.1 43.9,7.4 43.8,7.6 l -0.8,0 0,-4.2 13.5,0 0,4.3 z m 14.3,6.7 -0.3,4.6 -12.9,0 0,-0.8 c 0.2,0 0.5,0 0.9,-0.1 0.4,0 0.6,-0.1 0.7,-0.1 0.2,-0.1 0.4,-0.3 0.5,-0.4 0.1,-0.1 0.1,-0.4 0.1,-0.7 l 0,-11.2 c 0,-0.2 0,-0.5 -0.1,-0.6 C 59.7,4.9 59.6,4.8 59.3,4.6 59.1,4.5 58.8,4.4 58.5,4.3 58.2,4.2 57.9,4.2 57.7,4.2 l 0,-0.8 12,0 0,3.7 -0.8,0 C 68.8,6.5 68.4,6 68,5.3 67.5,4.7 67.1,4.3 66.6,4.3 66.4,4.3 66.1,4.2 65.8,4.2 l -3.5,0 0,6.2 1.7,0 c 0.6,0 1,-0.1 1.2,-0.2 0.3,-0.1 0.5,-0.3 0.7,-0.5 0.2,-0.2 0.3,-0.5 0.4,-0.8 0.1,-0.4 0.2,-0.7 0.2,-1 l 0.8,0 0,6.1 -0.8,0 c 0,-0.4 -0.1,-0.7 -0.2,-1.1 C 66.2,12.5 66,12.2 65.9,12.1 65.7,11.8 65.4,11.6 65.1,11.5 64.8,11.4 64.4,11.4 64,11.4 l -1.8,0 0,4.6 c 0,0.5 0,0.8 0.1,1.1 0.1,0.3 0.2,0.5 0.4,0.6 0.2,0.1 0.4,0.2 0.8,0.3 0.3,0 0.8,0.1 1.4,0.1 l 2,0 c 0.3,0 0.6,-0.1 0.9,-0.2 0.3,-0.1 0.5,-0.2 0.6,-0.3 0.3,-0.4 0.7,-0.9 1.1,-1.6 0.4,-0.7 0.6,-1.2 0.7,-1.6 l 0.7,0 z m 16.4,-3.1 c 0,1.3 -0.2,2.5 -0.7,3.4 -0.5,1 -1.1,1.8 -1.9,2.4 -0.8,0.6 -1.7,1.1 -2.7,1.4 -1,0.3 -2,0.5 -3.1,0.5 l -6.4,0 0,-0.8 c 0.2,0 0.5,0 0.8,-0.1 C 73.6,18 73.9,18 74,18 c 0.2,-0.1 0.4,-0.2 0.5,-0.4 0.1,-0.2 0.1,-0.4 0.1,-0.7 l 0,-11.2 C 74.6,5.5 74.6,5.2 74.5,5 74.4,4.8 74.3,4.6 74,4.5 73.8,4.4 73.5,4.3 73.3,4.3 73.1,4.3 72.8,4.2 72.6,4.2 l 0,-0.8 6.8,0 c 0.9,0 1.9,0.1 2.8,0.4 0.9,0.3 1.7,0.7 2.4,1.2 0.9,0.6 1.6,1.5 2.1,2.5 0.4,1.1 0.6,2.4 0.6,3.8 z m -2.7,0 c 0,-1 -0.1,-2 -0.4,-2.8 C 83.9,7.7 83.5,6.9 83,6.3 82.5,5.7 81.9,5.2 81.1,4.9 80.4,4.6 79.6,4.4 78.7,4.4 l -1.8,0 0,11.9 c 0,0.7 0.2,1.1 0.6,1.4 0.4,0.3 1,0.4 1.8,0.4 0.9,0 1.7,-0.2 2.4,-0.5 0.7,-0.3 1.3,-0.8 1.7,-1.4 0.5,-0.6 0.8,-1.3 1,-2.1 0.1,-0.8 0.2,-1.8 0.2,-2.8 z m 19.7,0.5 c 0.3,0.4 0.6,0.8 0.7,1.2 0.2,0.4 0.2,0.9 0.2,1.5 0,1.4 -0.5,2.5 -1.5,3.4 -1,0.9 -2.3,1.3 -3.8,1.3 -0.7,0 -1.4,-0.1 -2.1,-0.3 -0.7,-0.2 -1.3,-0.5 -1.8,-0.8 l -0.4,0.9 -0.9,0 -0.2,-5.3 0.9,0 c 0.2,0.7 0.4,1.2 0.6,1.8 0.2,0.5 0.6,1 1,1.5 0.4,0.4 0.8,0.8 1.3,1 0.5,0.3 1.1,0.4 1.8,0.4 0.5,0 0.9,-0.1 1.3,-0.2 0.4,-0.1 0.7,-0.3 0.9,-0.6 0.2,-0.2 0.4,-0.5 0.5,-0.8 0.1,-0.3 0.2,-0.7 0.2,-1.1 0,-0.6 -0.2,-1.2 -0.5,-1.7 -0.4,-0.5 -0.9,-0.9 -1.6,-1.2 -0.5,-0.2 -1,-0.4 -1.6,-0.6 C 98.7,12 98.2,11.8 97.7,11.6 96.8,11.2 96.1,10.7 95.7,10.1 95.3,9.2 95,8.4 95,7.3 95,6.7 95.1,6.2 95.4,5.6 95.6,5.1 96,4.6 96.4,4.2 96.8,3.8 97.3,3.5 97.9,3.3 98.5,3.1 99.1,3 99.7,3 c 0.7,0 1.4,0.1 1.9,0.3 0.6,0.2 1.1,0.5 1.5,0.8 l 0.4,-0.7 0.9,0 0.1,5.2 -0.9,0 C 103.4,8 103.3,7.4 103.1,6.9 102.9,6.4 102.6,5.9 102.3,5.4 102,5 101.6,4.6 101.2,4.4 100.7,4.1 100.2,4 99.5,4 98.8,4 98.2,4.2 97.7,4.7 97.2,5.1 97,5.7 97,6.3 97,7 97.2,7.5 97.5,8 c 0.3,0.4 0.8,0.8 1.4,1.1 0.5,0.3 1.1,0.5 1.6,0.7 l 1.5,0.6 c 0.4,0.2 0.9,0.4 1.3,0.6 0.3,0.2 0.7,0.5 1,0.8 z m 15.5,-4.1 -0.8,0 C 118.9,7.4 118.8,7.1 118.6,6.8 118.4,6.5 118.2,6.1 118,5.8 117.8,5.5 117.5,5.2 117.3,4.9 117,4.6 116.8,4.5 116.5,4.5 116.3,4.5 116,4.4 115.6,4.4 l -1.6,0 0,12.4 c 0,0.2 0.1,0.5 0.2,0.7 0.1,0.2 0.3,0.4 0.5,0.5 0.1,0.1 0.4,0.1 0.8,0.2 0.4,0.1 0.7,0.1 1,0.1 l 0,0.7 -7.3,0 0,-0.8 c 0.2,0 0.5,0 0.9,-0.1 0.4,-0.1 0.7,-0.1 0.9,-0.2 0.2,-0.1 0.4,-0.2 0.5,-0.4 0.1,-0.2 0.2,-0.4 0.2,-0.7 l 0,-12.5 -1.4,0 c -0.3,0 -0.7,0 -1,0.1 -0.2,0 -0.5,0.2 -0.7,0.4 -0.2,0.2 -0.5,0.6 -0.7,0.9 -0.2,0.3 -0.4,0.7 -0.6,1 -0.2,0.4 -0.3,0.7 -0.4,0.9 l -0.8,0 0,-4.2 13.5,0 0,4.3 z m 15.7,11.3 -6.5,0 0,-0.8 c 0.6,0 1,-0.1 1.4,-0.2 0.4,-0.1 0.6,-0.2 0.6,-0.4 l 0,-0.2 c 0,-0.1 0,-0.2 -0.1,-0.3 l -1.3,-3.5 -5.5,0 c -0.2,0.5 -0.4,1 -0.5,1.3 -0.1,0.4 -0.2,0.7 -0.3,1 -0.1,0.3 -0.2,0.6 -0.2,0.8 0,0.2 -0.1,0.4 -0.1,0.5 0,0.3 0.2,0.5 0.7,0.7 0.5,0.2 1,0.3 1.6,0.3 l 0,0.8 -5.8,0 0,-0.8 c 0.2,0 0.4,-0.1 0.7,-0.1 0.3,0 0.5,-0.2 0.7,-0.3 0.3,-0.2 0.5,-0.4 0.7,-0.6 0.2,-0.2 0.3,-0.5 0.5,-0.9 0.8,-1.9 1.6,-4.1 2.6,-6.6 0.9,-2.4 1.8,-4.6 2.5,-6.5 l 0.9,0 5.2,13.4 c 0.1,0.3 0.2,0.5 0.4,0.7 0.2,0.2 0.3,0.3 0.6,0.5 0.2,0.1 0.4,0.2 0.7,0.3 0.3,0.1 0.5,0.1 0.7,0.1 l 0,0.8 z m -6.2,-6.4 -2.4,-6 -2.3,6 4.7,0 z m 19.4,-4.9 -0.7,0 C 147.9,7.4 147.8,7.1 147.6,6.8 147.4,6.5 147.2,6.1 147,5.8 146.8,5.5 146.5,5.2 146.3,4.9 146,4.6 145.8,4.5 145.5,4.5 145.3,4.5 145,4.4 144.6,4.4 l -1.6,0 0,12.4 c 0,0.2 0.1,0.5 0.2,0.7 0.1,0.2 0.3,0.4 0.5,0.5 0.1,0.1 0.4,0.1 0.8,0.2 0.4,0.1 0.7,0.1 1,0.1 l 0,0.7 -7.3,0 0,-0.8 c 0.2,0 0.5,0 0.9,-0.1 0.4,-0.1 0.7,-0.1 0.9,-0.2 0.2,-0.1 0.4,-0.2 0.5,-0.4 0.1,-0.2 0.2,-0.4 0.2,-0.7 l 0,-12.5 -1.4,0 c -0.3,0 -0.7,0 -1,0.1 -0.2,0 -0.5,0.2 -0.7,0.4 -0.2,0.2 -0.5,0.6 -0.7,0.9 -0.2,0.3 -0.4,0.7 -0.6,1 -0.2,0.4 -0.3,0.7 -0.4,0.9 l -0.8,0 0,-4.2 13.5,0 0,4.3 z m 14.3,6.7 -0.3,4.6 -12.9,0 0,-0.8 c 0.2,0 0.5,0 0.9,-0.1 0.4,0 0.6,-0.1 0.7,-0.1 0.2,-0.1 0.4,-0.3 0.5,-0.4 0.1,-0.1 0.1,-0.4 0.1,-0.7 l 0,-11.2 c 0,-0.2 0,-0.5 -0.1,-0.6 -0.1,-0.2 -0.2,-0.3 -0.5,-0.5 -0.2,-0.1 -0.5,-0.2 -0.8,-0.3 -0.3,-0.1 -0.6,-0.1 -0.8,-0.1 l 0,-0.8 12,0 0,3.7 -0.8,0 c -0.1,-0.6 -0.5,-1.1 -0.9,-1.8 -0.5,-0.6 -0.9,-1 -1.4,-1 -0.2,0 -0.5,-0.1 -0.8,-0.1 l -3.5,0 0,6.2 1.8,0 c 0.6,0 1,-0.1 1.2,-0.2 0.3,-0.1 0.5,-0.3 0.7,-0.5 0.2,-0.2 0.3,-0.5 0.4,-0.8 0.1,-0.4 0.2,-0.7 0.2,-1 l 0.8,0 0,6.1 -0.8,0 c 0,-0.4 -0.1,-0.7 -0.2,-1.1 -0.1,-0.4 -0.3,-0.7 -0.4,-0.8 -0.2,-0.3 -0.5,-0.5 -0.8,-0.6 -0.3,-0.1 -0.7,-0.1 -1.1,-0.1 l -1.8,0 0,4.6 c 0,0.5 0,0.8 0.1,1.1 0.1,0.3 0.2,0.5 0.4,0.6 0.2,0.1 0.4,0.2 0.8,0.3 0.3,0 0.8,0.1 1.4,0.1 l 2,0 c 0.3,0 0.6,-0.1 0.9,-0.2 0.3,-0.1 0.5,-0.2 0.6,-0.3 0.3,-0.4 0.7,-0.9 1.1,-1.6 0.4,-0.7 0.6,-1.2 0.7,-1.6 l 0.6,0 z m 11.3,-2.6 c 0.3,0.4 0.6,0.8 0.7,1.2 0.2,0.4 0.2,0.9 0.2,1.5 0,1.4 -0.5,2.5 -1.5,3.4 -1,0.9 -2.3,1.3 -3.8,1.3 -0.7,0 -1.4,-0.1 -2.1,-0.3 -0.7,-0.2 -1.3,-0.5 -1.8,-0.8 l -0.5,0.8 -0.9,0 -0.2,-5.3 0.9,0 c 0.2,0.7 0.4,1.2 0.6,1.8 0.2,0.5 0.6,1 1,1.5 0.4,0.4 0.8,0.8 1.3,1 0.5,0.3 1.1,0.4 1.8,0.4 0.5,0 0.9,-0.1 1.3,-0.2 0.4,-0.1 0.7,-0.3 0.9,-0.6 0.2,-0.2 0.4,-0.5 0.5,-0.8 0.1,-0.3 0.2,-0.7 0.2,-1.1 0,-0.6 -0.2,-1.2 -0.5,-1.7 -0.3,-0.5 -0.9,-0.9 -1.6,-1.2 -0.5,-0.2 -1,-0.4 -1.6,-0.6 -0.6,-0.2 -1.1,-0.4 -1.6,-0.6 -0.9,-0.4 -1.6,-0.9 -2,-1.5 -0.5,-0.6 -0.7,-1.5 -0.7,-2.5 0,-0.6 0.1,-1.1 0.4,-1.7 0.2,-0.5 0.6,-1 1,-1.4 0.4,-0.4 0.9,-0.7 1.5,-0.9 0.6,-0.2 1.2,-0.3 1.8,-0.3 0.7,0 1.4,0.1 1.9,0.3 0.6,0.2 1.1,0.5 1.5,0.8 l 0.4,-0.7 0.9,0 0.1,5.2 -0.9,0 c -0.2,-0.6 -0.3,-1.2 -0.5,-1.7 -0.2,-0.5 -0.5,-1 -0.8,-1.5 -0.3,-0.4 -0.7,-0.8 -1.1,-1 -0.5,-0.3 -1,-0.4 -1.7,-0.4 -0.7,0 -1.3,0.2 -1.8,0.7 -0.5,0.4 -0.7,1 -0.7,1.6 0,0.7 0.2,1.2 0.5,1.7 0.3,0.4 0.8,0.8 1.4,1.1 0.5,0.3 1.1,0.5 1.6,0.7 l 1.5,0.6 c 0.4,0.2 0.9,0.4 1.3,0.6 0.4,0 0.8,0.3 1.1,0.6 z"
       id="path4329"
       inkscape:connector-curvature="0" />
  </g>
  <g
     id="g4331"
     transform="matrix(0.85034014,0,0,0.85034014,-0.68027211,-2.5510204)"
     style="fill:#97abb5">
    <path
       d="m 29.7,54.8 -11.2,0 0,-1.3 c 0.3,0 0.7,-0.1 1.3,-0.1 0.6,0 1,-0.1 1.2,-0.2 0.4,-0.2 0.7,-0.4 0.8,-0.7 0.2,-0.3 0.3,-0.7 0.3,-1.2 l 0,-9.6 -12.6,0 0,9.3 c 0,0.4 0.1,0.8 0.2,1.1 0.1,0.3 0.4,0.6 0.9,0.8 0.2,0.1 0.6,0.2 1.1,0.3 0.6,0.1 1,0.2 1.3,0.2 l 0,1.3 -11.1,0 0,-1.3 c 0.3,0 0.7,-0.1 1.3,-0.1 0.6,-0.1 1,-0.1 1.2,-0.2 0.4,-0.2 0.7,-0.4 0.8,-0.7 0.2,-0.3 0.3,-0.7 0.3,-1.2 l 0,-19.4 C 5.5,31.4 5.4,31 5.3,30.7 5.1,30.4 4.9,30.1 4.4,29.9 4.1,29.7 3.6,29.6 3.2,29.5 2.7,29.4 2.3,29.3 1.9,29.3 l 0,-1.3 11.1,0 0,1.3 c -0.4,0 -0.8,0.1 -1.3,0.2 -0.5,0.1 -0.9,0.2 -1.1,0.3 C 10.2,30 9.9,30.2 9.7,30.6 9.6,31 9.5,31.3 9.5,31.8 l 0,8.3 12.6,0 0,-8.2 C 22.1,31.5 22,31.1 21.9,30.8 21.7,30.5 21.5,30.2 21,30 20.7,29.8 20.2,29.7 19.8,29.6 19.3,29.5 18.9,29.4 18.5,29.4 l 0,-1.3 11.2,0 0,1.3 c -0.4,0 -0.8,0.1 -1.3,0.2 -0.5,0.1 -0.9,0.2 -1.1,0.3 -0.4,0.2 -0.7,0.4 -0.9,0.8 -0.1,0.4 -0.2,0.7 -0.2,1.2 l 0,19.1 c 0,0.4 0.1,0.8 0.2,1.1 0.1,0.3 0.4,0.6 0.9,0.8 0.2,0.1 0.6,0.2 1.1,0.3 0.5,0.1 1,0.2 1.3,0.2 l 0,1.4 z M 55.2,31 c 1.2,1.2 2.1,2.7 2.8,4.5 0.7,1.8 1,3.7 1,5.8 0,2.1 -0.3,4.1 -1,5.8 -0.7,1.7 -1.6,3.2 -2.8,4.5 -1.2,1.2 -2.5,2.2 -4.1,2.8 -1.6,0.7 -3.2,1 -5,1 -1.9,0 -3.6,-0.3 -5.2,-1.1 -1.6,-0.7 -2.9,-1.7 -4.1,-2.9 -1.1,-1.2 -2,-2.7 -2.7,-4.5 -0.7,-1.8 -1,-3.6 -1,-5.6 0,-2.2 0.3,-4.1 1,-5.9 0.7,-1.7 1.6,-3.2 2.8,-4.4 1.2,-1.2 2.6,-2.2 4.1,-2.8 1.5,-0.6 3.2,-1 4.9,-1 1.8,0 3.5,0.3 5,1 1.8,0.7 3.2,1.6 4.3,2.8 z m -2.8,19.1 c 0.7,-1.2 1.2,-2.5 1.5,-3.9 0.3,-1.5 0.5,-3.1 0.5,-4.9 0,-1.8 -0.2,-3.5 -0.5,-5.1 -0.4,-1.5 -0.9,-2.9 -1.6,-3.9 -0.7,-1.1 -1.6,-1.9 -2.6,-2.5 -1,-0.6 -2.3,-0.9 -3.6,-0.9 -1.5,0 -2.8,0.3 -3.9,1 -1.1,0.7 -1.9,1.6 -2.6,2.8 -0.6,1.1 -1.1,2.4 -1.4,3.9 -0.3,1.5 -0.5,3.1 -0.5,4.7 0,1.8 0.2,3.5 0.5,4.9 0.3,1.4 0.8,2.8 1.6,3.9 0.7,1.1 1.5,2 2.6,2.6 1,0.6 2.3,0.9 3.7,0.9 1.4,0 2.6,-0.3 3.7,-0.9 1.1,-0.6 1.9,-1.4 2.6,-2.6 z M 89.6,29.2 c -0.4,0 -0.9,0.1 -1.6,0.2 -0.7,0.1 -1.2,0.3 -1.7,0.6 -0.4,0.3 -0.7,0.9 -0.9,1.8 -0.2,0.9 -0.2,2 -0.2,3.3 l 0,11.7 c 0,1.5 -0.3,2.8 -0.9,3.9 -0.6,1.1 -1.4,2 -2.4,2.7 -1,0.7 -2.1,1.2 -3.2,1.5 -1.1,0.3 -2.2,0.4 -3.2,0.4 -1.6,0 -3.1,-0.2 -4.3,-0.6 -1.3,-0.4 -2.3,-1 -3.2,-1.7 -0.8,-0.7 -1.5,-1.5 -1.9,-2.5 -0.4,-0.9 -0.6,-1.9 -0.6,-2.9 l 0,-15.8 C 65.5,31.4 65.4,31 65.3,30.7 65.2,30.4 64.9,30.1 64.4,29.9 64.1,29.7 63.7,29.6 63.2,29.5 62.7,29.4 62.3,29.3 62,29.3 l 0,-1.3 11.2,0 0,1.3 c -0.4,0 -0.8,0.1 -1.3,0.2 -0.5,0.1 -0.9,0.2 -1.2,0.3 -0.4,0.2 -0.7,0.4 -0.9,0.8 -0.2,0.4 -0.2,0.7 -0.2,1.2 l 0,14.9 c 0,0.7 0.1,1.5 0.2,2.3 0.1,0.8 0.5,1.5 0.9,2.2 0.5,0.7 1.2,1.3 2,1.7 0.8,0.4 2,0.7 3.5,0.7 1.4,0 2.6,-0.2 3.5,-0.7 0.9,-0.4 1.7,-1 2.2,-1.7 0.5,-0.7 0.9,-1.4 1.1,-2.1 0.2,-0.7 0.3,-1.5 0.3,-2.3 l 0,-11 C 83.3,34.4 83.2,33.3 83,32.4 82.8,31.5 82.5,30.9 82.1,30.6 81.7,30.3 81.1,30 80.3,29.9 79.5,29.7 79,29.6 78.5,29.6 l 0,-1.3 11,0 0,0.9 z m 18.9,13.2 c 0.6,0.6 1,1.3 1.3,2.1 0.3,0.8 0.4,1.6 0.4,2.6 0,2.4 -0.9,4.3 -2.6,5.9 -1.8,1.5 -3.9,2.3 -6.5,2.3 -1.2,0 -2.4,-0.2 -3.6,-0.6 -1.2,-0.4 -2.2,-0.8 -3.1,-1.4 l -0.8,1.4 -1.6,0 -0.3,-9.2 1.5,0 c 0.3,1.1 0.7,2.2 1.1,3.1 0.4,0.9 1,1.8 1.7,2.6 0.7,0.7 1.4,1.3 2.3,1.8 0.9,0.4 1.9,0.7 3.1,0.7 0.9,0 1.6,-0.1 2.3,-0.3 0.7,-0.2 1.2,-0.6 1.6,-1 0.4,-0.4 0.7,-0.9 0.9,-1.5 0.2,-0.6 0.3,-1.2 0.3,-1.9 0,-1.1 -0.3,-2.1 -0.9,-3 -0.6,-0.9 -1.5,-1.6 -2.7,-2.1 -0.8,-0.3 -1.8,-0.7 -2.8,-1.1 -1,-0.4 -2,-0.8 -2.8,-1.1 C 95.8,41 94.6,40.1 93.8,39 93,37.9 92.5,36.5 92.5,34.7 c 0,-1 0.2,-2 0.6,-2.9 0.4,-0.9 1,-1.7 1.8,-2.4 0.7,-0.7 1.6,-1.2 2.6,-1.5 1,-0.4 2,-0.6 3.1,-0.6 1.2,0 2.3,0.2 3.3,0.6 1,0.4 1.9,0.8 2.7,1.3 l 0.8,-1.3 1.5,0 0.2,8.9 -1.5,0 c -0.3,-1 -0.6,-2 -0.9,-2.9 -0.3,-0.9 -0.8,-1.8 -1.4,-2.5 -0.5,-0.7 -1.2,-1.3 -2,-1.8 -0.8,-0.4 -1.7,-0.7 -2.9,-0.7 -1.2,0 -2.2,0.4 -3.1,1.2 -0.8,0.8 -1.3,1.7 -1.3,2.8 0,1.2 0.3,2.1 0.8,2.9 0.5,0.8 1.3,1.4 2.4,1.9 0.9,0.4 1.8,0.8 2.7,1.1 0.9,0.3 1.8,0.7 2.6,1 0.8,0.3 1.5,0.7 2.2,1.1 0.7,0.5 1.3,1 1.8,1.5 z m 27.7,4.4 -0.5,7.9 -22.3,0 0,-1.3 c 0.4,0 0.9,-0.1 1.5,-0.2 0.6,-0.1 1,-0.2 1.2,-0.3 0.4,-0.2 0.7,-0.4 0.8,-0.7 0.2,-0.3 0.2,-0.7 0.2,-1.2 l 0,-19.2 c 0,-0.4 -0.1,-0.8 -0.2,-1.1 -0.1,-0.3 -0.4,-0.6 -0.9,-0.8 -0.3,-0.2 -0.8,-0.3 -1.4,-0.4 -0.6,-0.1 -1,-0.2 -1.4,-0.2 l 0,-1.3 20.8,0 0,6.5 -1.4,0 c -0.3,-1 -0.8,-2 -1.6,-3.1 -0.8,-1.1 -1.6,-1.7 -2.4,-1.8 -0.4,-0.1 -0.9,-0.1 -1.4,-0.1 l -6.1,0 0,10.7 3,0 c 1,0 1.7,-0.1 2.1,-0.3 0.4,-0.2 0.8,-0.5 1.2,-0.9 0.3,-0.4 0.5,-0.9 0.7,-1.5 0.2,-0.6 0.3,-1.2 0.4,-1.7 l 1.4,0 0,10.5 -1.4,0 c -0.1,-0.6 -0.2,-1.2 -0.4,-1.9 -0.2,-0.7 -0.5,-1.2 -0.7,-1.5 -0.4,-0.5 -0.8,-0.8 -1.3,-1 -0.5,-0.2 -1.2,-0.2 -2,-0.2 l -3,0 0,8.1 c 0,0.8 0.1,1.4 0.2,1.9 0.1,0.5 0.3,0.8 0.7,1.1 0.4,0.3 0.8,0.4 1.3,0.5 0.6,0.1 1.4,0.1 2.4,0.1 l 1.6,0 c 0,0 1.3,0 1.7,-0.1 0.5,-0.1 1,-0.1 1.5,-0.3 0.5,-0.1 0.9,-0.3 1.1,-0.5 0.6,-0.6 1.2,-1.5 1.8,-2.8 0.6,-1.2 1,-2.1 1.2,-2.7 l 1.6,0 z"
       id="path4333"
       inkscape:connector-curvature="0" />
  </g>
  <g
     id="g4335"
     transform="matrix(0.85034014,0,0,0.85034014,-0.68027211,-2.5510204)"
     style="fill:#97abb5">
    <path
       d="m 13.6,76.8 -3.5,0 C 9.3,75.6 8.6,74.5 8,73.6 7.4,72.7 6.7,71.8 6,70.9 l -1.4,0 0,4.1 c 0,0.2 0,0.4 0.1,0.6 0.1,0.2 0.2,0.3 0.4,0.4 l 0.6,0 c 0,0 0.5,0.1 0.7,0.1 l 0,0.7 -5.5,0 0,-0.7 c 0.1,0 0.4,0 0.6,-0.1 0.3,0 0.5,0 0.6,-0.1 0.2,-0.1 0.3,-0.2 0.4,-0.3 0.1,-0.1 0.1,-0.3 0.1,-0.6 l 0,-9.4 C 2.6,65.4 2.6,65.2 2.5,65 2.4,64.8 2.3,64.7 2.1,64.6 1.9,64.5 1.7,64.5 1.5,64.4 1.3,64.4 1,64.3 0.9,64.3 l 0,-0.7 6,0 c 0.5,0 1.1,0.1 1.5,0.2 0.5,0.1 0.9,0.3 1.3,0.5 0.4,0.2 0.7,0.6 0.9,1 0.2,0.4 0.3,0.9 0.3,1.4 0,0.5 -0.1,0.9 -0.2,1.3 -0.1,0.4 -0.4,0.7 -0.7,1 -0.3,0.3 -0.6,0.5 -1,0.7 -0.4,0.2 -0.8,0.4 -1.3,0.5 0.6,0.8 1.2,1.6 1.6,2.1 0.4,0.6 0.9,1.3 1.6,2.1 0.3,0.4 0.5,0.6 0.7,0.8 0.2,0.2 0.4,0.3 0.6,0.4 0.2,0.1 0.4,0.1 0.6,0.2 0.2,0 0.4,0.1 0.6,0.1 l 0,0.9 z M 8.7,67.1 C 8.7,66.3 8.5,65.7 8,65.2 7.5,64.7 6.9,64.5 6.1,64.5 l -1.5,0 0,5.6 1.2,0 c 0.8,0 1.5,-0.3 2.1,-0.8 C 8.5,68.7 8.7,68 8.7,67.1 Z M 25,72.9 24.8,76.7 14,76.7 14,76 c 0.2,0 0.4,0 0.7,-0.1 0.3,0 0.5,-0.1 0.6,-0.1 0.2,-0.1 0.3,-0.2 0.4,-0.4 0.1,-0.1 0.1,-0.3 0.1,-0.6 l 0,-9.3 c 0,-0.2 0,-0.4 -0.1,-0.5 -0.1,-0.2 -0.2,-0.3 -0.4,-0.4 -0.2,-0.1 -0.4,-0.1 -0.7,-0.2 -0.3,-0.1 -0.5,-0.1 -0.7,-0.1 l 0,-0.7 10.1,0 0,3.1 -0.7,0 c -0.1,-0.5 -0.4,-1 -0.8,-1.5 -0.4,-0.5 -0.8,-0.8 -1.2,-0.9 -0.2,0 -0.4,0 -0.7,-0.1 -0.3,-0.1 -0.6,0 -0.9,0 l -2,0 0,5.2 1.5,0 c 0.5,0 0.8,0 1,-0.1 0.2,-0.1 0.4,-0.2 0.6,-0.4 0.1,-0.2 0.2,-0.4 0.3,-0.7 0.1,-0.3 0.2,-0.6 0.2,-0.8 l 0.7,0 0,5.1 -0.7,0 c 0,-0.3 -0.1,-0.6 -0.2,-0.9 C 21,71.3 20.9,71 20.8,70.9 20.6,70.7 20.4,70.5 20.2,70.4 20,70.3 19.6,70.3 19.2,70.3 l -1.5,0 0,3.9 c 0,0.4 0,0.7 0.1,0.9 0.1,0.2 0.2,0.4 0.3,0.5 0.2,0.1 0.4,0.2 0.7,0.2 l 2.8,0 c 0.2,0 0.5,-0.1 0.7,-0.1 0.2,0 0.4,-0.2 0.5,-0.3 0.3,-0.3 0.6,-0.7 0.9,-1.3 0.3,-0.6 0.5,-1 0.6,-1.3 l 0.7,0 z M 36.3,67 c 0,0.7 -0.1,1.3 -0.4,1.8 -0.3,0.5 -0.6,1 -1.1,1.3 -0.5,0.3 -1,0.6 -1.5,0.8 C 32.7,71 32.1,71 31.5,71 l -1.5,0 0,4 c 0,0.2 0,0.4 0.1,0.6 0.1,0.2 0.2,0.3 0.4,0.4 0.1,0 0.3,0.1 0.6,0.1 0.3,0 0.5,0.1 0.8,0.1 l 0,0.7 -5.6,0 0,-0.7 c 0.1,0 0.4,0 0.6,-0.1 0.3,0 0.5,-0.1 0.6,-0.1 0.2,-0.1 0.3,-0.2 0.4,-0.3 C 28,75.6 28,75.4 28,75.1 l 0,-9.4 c 0,-0.2 0,-0.4 -0.1,-0.6 -0.1,-0.2 -0.2,-0.3 -0.4,-0.4 -0.2,-0.1 -0.5,-0.1 -0.7,-0.2 -0.2,0 -0.4,-0.1 -0.6,-0.1 l 0,-0.7 5.9,0 c 1.2,0 2.2,0.3 2.9,0.9 0.7,0.6 1.3,1.4 1.3,2.4 z m -2.8,2.2 c 0.2,-0.3 0.3,-0.6 0.4,-0.9 C 34,68 34,67.7 34,67.5 34,67.2 34,66.8 33.9,66.4 33.8,66 33.7,65.7 33.5,65.5 33.3,65.2 33,65 32.7,64.8 32.4,64.6 31.9,64.6 31.4,64.6 l -1.4,0 0,5.7 1,0 c 0.7,0 1.2,-0.1 1.6,-0.3 0.4,-0.3 0.7,-0.5 0.9,-0.8 z m 16.9,7.6 -3.5,0 c -0.8,-1.2 -1.5,-2.3 -2.1,-3.2 -0.6,-0.9 -1.3,-1.8 -2,-2.7 l -1.3,0 0,4.1 c 0,0.2 0,0.4 0.1,0.6 0.1,0.2 0.2,0.3 0.4,0.4 0.1,0 0.3,0.1 0.6,0.1 0.3,0 0.5,0.1 0.7,0.1 l 0,0.7 -5.5,0 0,-0.7 c 0.1,0 0.4,0 0.6,-0.1 0.3,0 0.5,-0.1 0.6,-0.1 0.2,-0.1 0.3,-0.2 0.4,-0.3 0.1,-0.1 0.1,-0.3 0.1,-0.6 l 0,-9.4 c 0,-0.2 0,-0.4 -0.1,-0.6 -0.1,-0.2 -0.2,-0.3 -0.4,-0.4 -0.2,-0.1 -0.4,-0.1 -0.6,-0.2 -0.2,0 -0.5,-0.1 -0.6,-0.1 l 0,-0.7 6,0 c 0.5,0 1.1,0.1 1.5,0.2 0.5,0.1 0.9,0.3 1.3,0.5 0.4,0.2 0.7,0.6 0.9,1 0.2,0.4 0.3,0.9 0.3,1.4 0,0.5 -0.1,0.9 -0.2,1.3 -0.1,0.4 -0.4,0.7 -0.7,1 -0.3,0.3 -0.6,0.5 -1,0.7 -0.4,0.2 -0.8,0.4 -1.3,0.5 0.6,0.8 1.2,1.6 1.6,2.1 0.4,0.6 0.9,1.3 1.6,2.1 0.3,0.4 0.5,0.6 0.7,0.8 0.2,0.2 0.4,0.3 0.6,0.4 0.2,0.1 0.4,0.1 0.6,0.2 0.2,0 0.4,0.1 0.6,0.1 l 0,0.8 z m -4.8,-9.7 c 0,-0.8 -0.2,-1.4 -0.7,-1.9 -0.5,-0.5 -1.1,-0.7 -1.9,-0.7 l -1.6,0 0,5.6 1.2,0 c 0.8,0 1.5,-0.3 2.1,-0.8 0.6,-0.6 0.9,-1.3 0.9,-2.2 z m 16.3,5.8 -0.2,3.8 -10.9,0 0,-0.7 c 0.2,0 0.4,0 0.7,-0.1 0.3,0 0.5,-0.1 0.6,-0.1 0.2,-0.1 0.3,-0.2 0.4,-0.4 0.1,-0.1 0.1,-0.3 0.1,-0.6 l 0,-9.3 c 0,-0.2 0,-0.4 -0.1,-0.5 -0.1,-0.2 -0.2,-0.3 -0.4,-0.4 -0.2,-0.1 -0.4,-0.1 -0.7,-0.2 -0.3,-0.1 -0.5,-0.1 -0.7,-0.1 l 0,-0.7 10.1,0 0,3.1 -0.7,0 c -0.1,-0.5 -0.4,-1 -0.8,-1.5 -0.4,-0.5 -0.8,-0.8 -1.2,-0.9 -0.2,0 -0.4,0 -0.7,-0.1 -0.3,-0.1 -0.6,0 -0.9,0 l -2,0 0,5.2 1.5,0 c 0.5,0 0.8,0 1,-0.1 0.2,-0.1 0.4,-0.2 0.6,-0.4 0.1,-0.2 0.2,-0.4 0.3,-0.7 0.1,-0.3 0.2,-0.6 0.2,-0.8 l 0.7,0 0,5.1 -0.7,0 C 58.1,72.2 58,71.9 57.9,71.6 57.8,71.3 57.7,71 57.6,70.9 57.4,70.7 57.2,70.5 57,70.4 56.8,70.3 56.4,70.3 56,70.3 l -1.5,0 0,3.9 c 0,0.4 0,0.7 0.1,0.9 0.1,0.2 0.2,0.4 0.3,0.5 0.2,0.1 0.4,0.2 0.7,0.2 l 2.8,0 c 0.2,0 0.5,-0.1 0.7,-0.1 0.2,0 0.4,-0.2 0.5,-0.3 0.3,-0.3 0.6,-0.7 0.9,-1.3 0.3,-0.6 0.5,-1 0.6,-1.3 l 0.8,0 z m 9.4,-2.1 c 0.3,0.3 0.5,0.6 0.6,1 0.1,0.4 0.2,0.8 0.2,1.3 0,1.1 -0.4,2.1 -1.3,2.8 C 69.9,76.6 68.9,77 67.7,77 67.1,77 66.5,76.9 66,76.7 65.4,76.5 64.9,76.3 64.5,76 l -0.5,0.8 -0.7,0 -0.1,-4.5 0.7,0 c 0.2,0.5 0.3,1 0.5,1.5 0.2,0.4 0.5,0.9 0.8,1.2 0.3,0.4 0.7,0.6 1.1,0.9 0.4,0.2 0.9,0.3 1.5,0.3 0.4,0 0.8,-0.1 1.1,-0.2 0.3,-0.1 0.6,-0.3 0.8,-0.5 0.2,-0.2 0.3,-0.4 0.4,-0.7 0.1,-0.3 0.1,-0.6 0.1,-0.9 0,-0.5 -0.1,-1 -0.4,-1.5 -0.3,-0.4 -0.7,-0.8 -1.3,-1 -0.4,-0.2 -0.9,-0.3 -1.4,-0.5 -0.5,-0.2 -1,-0.4 -1.3,-0.5 -0.7,-0.3 -1.3,-0.8 -1.7,-1.3 -0.4,-0.5 -0.6,-1.2 -0.6,-2.1 0,-0.5 0.1,-1 0.3,-1.4 0.2,-0.4 0.5,-0.8 0.9,-1.1 0.4,-0.3 0.8,-0.6 1.3,-0.7 0.5,-0.2 1,-0.3 1.5,-0.3 0.6,0 1.1,0.1 1.6,0.3 0.5,0.2 0.9,0.4 1.3,0.6 l 0.4,-0.6 0.7,0 0.1,4.3 -0.7,0 c -0.1,-0.5 -0.3,-1 -0.5,-1.4 -0.2,-0.5 -0.4,-0.9 -0.7,-1.2 -0.3,-0.4 -0.6,-0.6 -1,-0.8 -0.4,-0.2 -0.8,-0.3 -1.4,-0.3 -0.6,0 -1.1,0.2 -1.5,0.6 -0.4,0.4 -0.6,0.8 -0.6,1.4 0,0.6 0.1,1 0.4,1.4 0.3,0.4 0.6,0.7 1.1,0.9 0.4,0.2 0.9,0.4 1.3,0.6 0.4,0.2 0.8,0.3 1.3,0.5 0.4,0.2 0.7,0.3 1.1,0.5 0.4,0 0.6,0.2 0.9,0.5 z m 13.4,2.1 -0.2,3.8 -10.9,0 0,-0.7 c 0.2,0 0.4,0 0.7,-0.1 0.3,0 0.5,-0.1 0.6,-0.1 0.2,-0.1 0.3,-0.2 0.4,-0.4 0.1,-0.1 0.1,-0.3 0.1,-0.6 l 0,-9.3 c 0,-0.2 0,-0.4 -0.1,-0.5 -0.1,-0.2 -0.2,-0.3 -0.4,-0.4 -0.2,-0.1 -0.4,-0.1 -0.7,-0.2 -0.3,-0.1 -0.5,-0.1 -0.7,-0.1 l 0,-0.7 10.1,0 0,3.1 -0.6,0 c -0.1,-0.5 -0.4,-1 -0.8,-1.5 -0.4,-0.5 -0.8,-0.8 -1.2,-0.9 -0.2,0 -0.4,0 -0.7,-0.1 -0.3,-0.1 -0.6,0 -0.9,0 l -2,0 0,5.2 1.5,0 c 0.5,0 0.8,0 1,-0.1 0.2,-0.1 0.4,-0.2 0.6,-0.4 0.1,-0.2 0.2,-0.4 0.3,-0.7 0.1,-0.3 0.2,-0.6 0.2,-0.8 l 0.7,0 0,5.1 -0.7,0 c 0,-0.3 -0.1,-0.6 -0.2,-0.9 -0.1,-0.3 -0.2,-0.6 -0.3,-0.7 -0.2,-0.2 -0.4,-0.4 -0.6,-0.5 -0.2,-0.1 -0.6,-0.1 -1,-0.1 l -1.5,0 0,3.9 c 0,0.4 0,0.7 0.1,0.9 0.1,0.2 0.2,0.4 0.3,0.5 0.2,0.1 0.4,0.2 0.7,0.2 l 2.8,0 c 0.2,0 0.5,-0.1 0.7,-0.1 0.2,0 0.4,-0.2 0.5,-0.3 0.3,-0.3 0.6,-0.7 0.9,-1.3 0.3,-0.6 0.5,-1 0.6,-1.3 l 0.7,0 z m 14.6,-8.5 c -0.2,0 -0.4,0.1 -0.8,0.1 -0.4,0 -0.6,0.2 -0.8,0.3 -0.2,0.2 -0.4,0.4 -0.4,0.9 -0.1,0.4 -0.1,1 -0.1,1.7 l 0,9.5 -0.8,0 -7.9,-10.6 0,6.7 c 0,0.8 0,1.3 0.1,1.7 0.1,0.4 0.2,0.7 0.4,0.9 0.1,0.1 0.4,0.3 0.9,0.4 0.4,0.1 0.7,0.2 0.9,0.2 l 0,0.7 -5.3,0 0,-0.7 c 0.2,0 0.4,-0.1 0.8,-0.2 0.4,-0.1 0.6,-0.2 0.7,-0.3 0.2,-0.2 0.4,-0.4 0.4,-0.8 0,-0.4 0.1,-1 0.1,-1.8 l 0,-6.4 c 0,-0.3 0,-0.6 -0.1,-0.8 C 87.3,65.7 87.2,65.4 87,65.2 86.8,65 86.5,64.8 86.1,64.7 85.7,64.6 85.4,64.5 85.2,64.5 l 0,-0.7 3.8,0 7.3,9.9 0,-6.2 c 0,-0.8 0,-1.3 -0.1,-1.7 C 96.1,65.4 96,65.1 95.8,65 95.6,64.9 95.3,64.8 95,64.7 94.7,64.6 94.3,64.5 94.1,64.5 l 0,-0.7 5.3,0 0,0.6 z m 11.7,2.9 -0.6,0 c -0.1,-0.2 -0.2,-0.5 -0.3,-0.8 -0.1,-0.3 -0.3,-0.6 -0.5,-0.9 -0.2,-0.3 -0.4,-0.5 -0.6,-0.7 -0.2,-0.2 -0.4,-0.3 -0.6,-0.4 -0.2,0 -0.4,0 -0.7,-0.1 l -1.3,0 0,10.4 c 0,0.2 0,0.4 0.1,0.6 0.1,0.2 0.2,0.3 0.4,0.4 0.1,0 0.3,0.1 0.7,0.2 0.4,0.1 0.6,0.1 0.8,0.1 l 0,0.7 -6.1,0 0,-0.7 c 0.2,0 0.4,0 0.8,-0.1 0.4,0 0.6,-0.1 0.7,-0.1 0.2,-0.1 0.3,-0.2 0.4,-0.3 0.1,-0.1 0.1,-0.3 0.1,-0.6 l 0,-10.5 -1.2,0 c -0.3,0 -0.5,0 -0.8,0.1 -0.2,0 -0.4,0.1 -0.6,0.4 -0.2,0.3 -0.4,0.5 -0.6,0.7 -0.2,0.3 -0.3,0.6 -0.5,0.9 -0.2,0.3 -0.2,0.6 -0.3,0.8 l -0.6,0 0,-3.5 11.3,0 0,3.4 z m 13.1,9.5 -5.4,0 0,-0.7 c 0.5,0 0.9,-0.1 1.2,-0.2 0.3,-0.1 0.5,-0.2 0.5,-0.3 l 0,-0.2 c 0,-0.1 0,-0.1 -0.1,-0.2 l -1.1,-2.9 -4.6,0 c -0.2,0.4 -0.3,0.8 -0.4,1.1 l -0.3,0.9 c -0.1,0.3 -0.1,0.5 -0.2,0.6 l 0,0.4 c 0,0.2 0.2,0.4 0.6,0.6 0.4,0.2 0.8,0.2 1.3,0.2 l 0,0.7 -4.9,0 0,-0.7 c 0.2,0 0.4,0 0.6,-0.1 0.2,-0.1 0.4,-0.1 0.6,-0.2 0.2,-0.2 0.4,-0.3 0.6,-0.5 0.1,-0.2 0.3,-0.4 0.4,-0.7 0.7,-1.6 1.4,-3.5 2.2,-5.5 0.8,-2 1.5,-3.8 2.1,-5.4 l 0.7,0 4.3,11.2 0.3,0.6 c 0,0 0.3,0.3 0.5,0.4 0.1,0.1 0.3,0.2 0.6,0.2 0.2,0.1 0.4,0.1 0.6,0.1 l 0,0.6 z m -5.2,-5.4 -2,-5 -1.9,5 3.9,0 z m 16.3,-4.1 -0.6,0 c -0.1,-0.2 -0.2,-0.5 -0.3,-0.8 -0.1,-0.3 -0.3,-0.6 -0.5,-0.9 -0.2,-0.3 -0.4,-0.5 -0.6,-0.7 -0.2,-0.2 -0.4,-0.3 -0.6,-0.4 -0.2,0 -0.4,0 -0.7,-0.1 l -1.3,0 0,10.4 c 0,0.2 0,0.4 0.1,0.6 0.1,0.2 0.2,0.3 0.4,0.4 0.1,0 0.3,0.1 0.7,0.2 0.4,0.1 0.6,0.1 0.8,0.1 l 0,0.7 -6.1,0 0,-0.7 c 0.2,0 0.4,0 0.8,-0.1 0.4,0 0.6,-0.1 0.7,-0.1 0.2,-0.1 0.3,-0.2 0.4,-0.3 0.1,-0.1 0.1,-0.3 0.1,-0.6 l 0,-10.5 -1.2,0 c -0.3,0 -0.5,0 -0.8,0.1 -0.2,0 -0.4,0.1 -0.6,0.4 -0.2,0.3 -0.4,0.5 -0.6,0.7 -0.2,0.3 -0.3,0.6 -0.5,0.9 -0.2,0.3 -0.2,0.6 -0.3,0.8 l -0.6,0 0,-3.5 11.3,0 0,3.4 z m 6.7,9.5 -5.9,0 0,-0.7 c 0.2,0 0.4,0 0.7,-0.1 0.3,0 0.5,-0.1 0.7,-0.1 0.2,-0.1 0.3,-0.2 0.4,-0.3 0.1,-0.1 0.1,-0.3 0.1,-0.6 l 0,-9.4 c 0,-0.2 0,-0.4 -0.1,-0.5 -0.1,-0.1 -0.2,-0.3 -0.5,-0.4 -0.2,-0.1 -0.4,-0.1 -0.7,-0.2 -0.3,-0.1 -0.5,-0.1 -0.7,-0.1 l 0,-0.7 5.9,0 0,0.7 c -0.2,0 -0.4,0 -0.7,0.1 -0.3,0 -0.5,0.1 -0.7,0.2 -0.2,0.1 -0.4,0.2 -0.5,0.4 -0.1,0.2 -0.1,0.3 -0.1,0.5 l 0,9.4 c 0,0.2 0,0.4 0.1,0.5 0.1,0.2 0.2,0.3 0.5,0.4 0.1,0 0.3,0.1 0.6,0.2 0.3,0.1 0.5,0.1 0.7,0.1 l 0,0.6 z m 13.6,-12.4 c -0.2,0 -0.4,0 -0.6,0.1 -0.2,0.1 -0.4,0.1 -0.6,0.2 -0.2,0.1 -0.4,0.3 -0.5,0.5 -0.1,0.2 -0.2,0.4 -0.4,0.7 l -1.8,4.5 c -0.8,2.1 -1.7,4.2 -2.5,6.4 l -0.8,0 c -0.9,-2.4 -1.7,-4.6 -2.5,-6.8 -0.8,-2.2 -1.4,-3.7 -1.7,-4.4 -0.1,-0.2 -0.2,-0.4 -0.3,-0.5 -0.1,-0.1 -0.3,-0.3 -0.5,-0.4 -0.2,-0.1 -0.3,-0.2 -0.6,-0.2 -0.2,-0.1 -0.4,-0.1 -0.6,-0.1 l 0,-0.7 5.4,0 0,0.7 c -0.5,0 -0.8,0.1 -1.2,0.1 -0.3,0.1 -0.5,0.2 -0.5,0.4 l 0,0.2 c 0,0.1 0,0.2 0.1,0.2 0.2,0.6 0.6,1.6 1.1,2.9 0.5,1.4 1.2,3.3 2.2,5.8 0.5,-1.1 1,-2.5 1.6,-4 0.6,-1.5 1,-2.6 1.2,-3.2 l 0.4,-1.2 0,-0.5 c 0,-0.1 -0.1,-0.3 -0.2,-0.4 -0.1,-0.1 -0.3,-0.2 -0.5,-0.2 -0.2,-0.1 -0.4,-0.1 -0.6,-0.1 -0.2,0 -0.4,-0.1 -0.6,-0.1 l 0,-0.7 4.8,0 0,0.8 z m 11.5,8.5 -0.2,3.8 -10.8,0 0,-0.7 c 0.2,0 0.4,0 0.7,-0.1 0.3,0 0.5,-0.1 0.6,-0.1 0.2,-0.1 0.3,-0.2 0.4,-0.4 0.1,-0.2 0.1,-0.3 0.1,-0.6 l 0,-9.3 c 0,-0.2 0,-0.4 -0.1,-0.5 -0.1,-0.2 -0.2,-0.3 -0.4,-0.4 -0.2,-0.1 -0.4,-0.1 -0.7,-0.2 -0.3,-0.1 -0.5,-0.1 -0.7,-0.1 l 0,-0.7 10.1,0 0,3.1 -0.7,0 c -0.1,-0.5 -0.4,-1 -0.8,-1.5 -0.4,-0.5 -0.8,-0.8 -1.2,-0.9 -0.2,0 -0.4,0 -0.7,-0.1 l -2.9,0 0,5.2 1.5,0 c 0.5,0 0.8,0 1,-0.1 0.2,-0.1 0.4,-0.2 0.6,-0.4 0.1,-0.2 0.2,-0.4 0.3,-0.7 0.1,-0.3 0.2,-0.6 0.2,-0.8 l 0.7,0 0,5.1 -0.7,0 c 0,-0.3 -0.1,-0.6 -0.2,-0.9 -0.1,-0.3 -0.2,-0.6 -0.3,-0.7 -0.2,-0.2 -0.4,-0.4 -0.6,-0.5 -0.2,-0.1 -0.6,-0.1 -1,-0.1 l -1.5,0 0,3.9 c 0,0.4 0,0.7 0.1,0.9 0.1,0.2 0.2,0.4 0.3,0.5 0.1,0.1 0.4,0.2 0.7,0.2 l 2.8,0 c 0.2,0 0.5,-0.1 0.7,-0.1 0.2,-0.1 0.4,-0.2 0.5,-0.3 0.3,-0.3 0.6,-0.7 0.9,-1.3 0.3,-0.6 0.5,-1 0.6,-1.3 l 0.7,0 z m 9.4,-2.1 c 0.3,0.3 0.5,0.6 0.6,1 0.1,0.4 0.2,0.8 0.2,1.3 0,1.1 -0.4,2.1 -1.3,2.8 -0.9,0.7 -1.9,1.1 -3.1,1.1 -0.6,0 -1.2,-0.1 -1.7,-0.3 -0.6,-0.2 -1.1,-0.4 -1.5,-0.7 l -0.4,0.7 -0.7,0 -0.1,-4.5 0.7,0 c 0.2,0.5 0.3,1 0.5,1.5 0.2,0.5 0.5,0.9 0.8,1.2 0.3,0.4 0.7,0.6 1.1,0.9 0.4,0.2 0.9,0.3 1.5,0.3 0.4,0 0.8,-0.1 1.1,-0.2 0.3,-0.1 0.6,-0.3 0.8,-0.5 0.2,-0.2 0.3,-0.4 0.4,-0.7 0.1,-0.3 0.1,-0.6 0.1,-0.9 0,-0.5 -0.1,-1 -0.4,-1.5 -0.3,-0.4 -0.7,-0.8 -1.3,-1 -0.4,-0.2 -0.9,-0.3 -1.4,-0.5 -0.5,-0.2 -1,-0.4 -1.3,-0.5 -0.7,-0.3 -1.3,-0.8 -1.7,-1.3 -0.4,-0.5 -0.6,-1.2 -0.6,-2.1 0,-0.5 0.1,-1 0.3,-1.4 0.2,-0.4 0.5,-0.8 0.9,-1.1 0.4,-0.3 0.8,-0.6 1.3,-0.7 0.5,-0.2 1,-0.3 1.5,-0.3 0.6,0 1.1,0.1 1.6,0.3 0.5,0.2 0.9,0.4 1.3,0.6 l 0.4,-0.6 0.7,0 0.1,4.3 -0.7,0 c -0.1,-0.5 -0.3,-1 -0.5,-1.4 -0.2,-0.5 -0.4,-0.9 -0.7,-1.2 -0.3,-0.4 -0.6,-0.6 -1,-0.8 -0.4,-0.2 -0.8,-0.3 -1.4,-0.3 -0.6,0 -1.1,0.2 -1.5,0.6 -0.4,0.4 -0.6,0.8 -0.6,1.4 0,0.6 0.1,1 0.4,1.4 0.3,0.4 0.6,0.7 1.1,0.9 0.4,0.2 0.9,0.4 1.3,0.6 0.4,0.2 0.8,0.3 1.3,0.5 0.4,0.2 0.7,0.3 1.1,0.5 0.2,0.1 0.5,0.3 0.8,0.6 z"
       id="path4337"
       inkscape:connector-curvature="0" />
  </g>
  <g
     id="g4339"
     transform="matrix(0.85034014,0,0,0.85034014,-0.68027211,-2.5510204)"
     style="fill:#97abb5">
    <path
       d="m 157.2,39.8 c 0,0.8 -0.1,1.5 -0.4,2.3 -0.3,0.8 -0.6,1.4 -1.1,2 -0.5,0.6 -1.1,1.1 -1.8,1.4 -0.7,0.3 -1.5,0.5 -2.5,0.5 -1.1,0 -2,-0.3 -2.6,-1 -0.6,-0.7 -1,-1.6 -1,-2.8 0,-0.9 0.1,-1.7 0.4,-2.4 0.3,-0.7 0.7,-1.4 1.2,-2 0.5,-0.6 1.1,-1 1.8,-1.4 0.7,-0.3 1.5,-0.5 2.3,-0.5 1.2,0 2.1,0.4 2.7,1.1 0.7,0.8 1,1.7 1,2.8 z m -2,-0.3 c 0,-0.9 -0.2,-1.6 -0.5,-2.1 -0.3,-0.5 -0.8,-0.7 -1.4,-0.7 -0.5,0 -1,0.2 -1.5,0.5 -0.5,0.3 -0.9,0.9 -1.2,1.6 -0.3,0.6 -0.5,1.2 -0.6,1.9 -0.1,0.7 -0.2,1.3 -0.2,1.9 0,0.9 0.2,1.6 0.5,2.1 0.3,0.5 0.8,0.7 1.5,0.7 0.6,0 1.1,-0.2 1.5,-0.5 0.4,-0.4 0.8,-0.8 1.1,-1.4 0.3,-0.5 0.5,-1.2 0.6,-1.9 0.2,-0.7 0.2,-1.4 0.2,-2.1 z m 7.5,-2.3 -1.7,8.1 c -0.3,1.4 -0.9,2.6 -1.9,3.5 -1,0.9 -2,1.4 -3,1.4 -0.6,0 -1,-0.1 -1.3,-0.3 -0.3,-0.2 -0.4,-0.5 -0.4,-0.8 0,-0.3 0.1,-0.5 0.3,-0.7 0.2,-0.2 0.4,-0.3 0.7,-0.3 0.2,0 0.4,0 0.5,0.1 0.2,0.1 0.3,0.2 0.4,0.3 0.1,0.1 0.2,0.3 0.3,0.4 0.1,0.2 0.2,0.4 0.3,0.5 0.5,0 0.9,-0.4 1.3,-1 0.4,-0.6 0.7,-1.5 0.9,-2.7 l 1.8,-8.4 -1.9,0 0.2,-0.9 1.9,0 0.1,-0.7 c 0.2,-0.8 0.4,-1.4 0.7,-2 0.3,-0.6 0.7,-1.1 1.2,-1.5 0.4,-0.4 0.9,-0.7 1.4,-1 0.5,-0.2 1.1,-0.4 1.5,-0.4 0.6,0 1,0.1 1.3,0.3 0.3,0.2 0.4,0.5 0.4,0.8 0,0.3 -0.1,0.5 -0.2,0.7 -0.1,0.2 -0.4,0.3 -0.7,0.3 -0.2,0 -0.4,0 -0.5,-0.1 -0.2,-0.1 -0.3,-0.2 -0.4,-0.3 -0.1,-0.2 -0.2,-0.3 -0.3,-0.5 -0.1,-0.1 -0.2,-0.3 -0.3,-0.5 -0.5,0 -0.8,0.3 -1.2,0.9 -0.4,0.6 -0.7,1.5 -0.9,2.9 l -0.2,1 2.5,0 -0.2,0.9 -2.6,0 z"
       id="path4341"
       inkscape:connector-curvature="0" />
  </g>
</svg>
