<?xml version="1.0" encoding="UTF-8" standalone="no"?>
<svg
   xmlns:dc="http://purl.org/dc/elements/1.1/"
   xmlns:cc="http://creativecommons.org/ns#"
   xmlns:rdf="http://www.w3.org/1999/02/22-rdf-syntax-ns#"
   xmlns:svg="http://www.w3.org/2000/svg"
   xmlns="http://www.w3.org/2000/svg"
   xmlns:sodipodi="http://sodipodi.sourceforge.net/DTD/sodipodi-0.dtd"
   xmlns:inkscape="http://www.inkscape.org/namespaces/inkscape"
   width="140"
   height="49.422821"
   viewBox="0 0 140.00001 49.42282"
   id="svg6752"
   version="1.1"
   inkscape:version="0.91 r13725"
   sodipodi:docname="macarthur-foundation.svg">
  <metadata
     id="metadata6762">
    <rdf:RDF>
      <cc:Work
         rdf:about="">
        <dc:format>image/svg+xml</dc:format>
        <dc:type
           rdf:resource="http://purl.org/dc/dcmitype/StillImage" />
        <dc:title></dc:title>
      </cc:Work>
    </rdf:RDF>
  </metadata>
  <defs
     id="defs6760" />
  <sodipodi:namedview
     pagecolor="#ffffff"
     bordercolor="#666666"
     borderopacity="1"
     objecttolerance="10"
     gridtolerance="10"
     guidetolerance="10"
     inkscape:pageopacity="0"
     inkscape:pageshadow="2"
     inkscape:window-width="845"
     inkscape:window-height="480"
     id="namedview6758"
     showgrid="false"
     fit-margin-top="0"
     fit-margin-left="0"
     fit-margin-right="0"
     fit-margin-bottom="0"
     inkscape:zoom="2.0819343"
     inkscape:cx="74.449997"
     inkscape:cy="26.399999"
     inkscape:window-x="20"
     inkscape:window-y="43"
     inkscape:window-maximized="0"
     inkscape:current-layer="svg6752" />
  <path
     d="m 1.5033557,22.080539 c 0.4697987,0 0.9395973,0 1.3154362,-0.09396 0.4697987,0 0.9395974,-0.09396 1.3154363,-0.09396 l 0.09396,0 c 0.4697987,0 0.9395973,0 1.3154363,0.09396 0.4697986,0 0.9395973,0.09396 1.4093959,0.09396 l 0.09396,0 c 0.09396,0 0.2818792,0 0.4697986,-0.09396 0.1879195,-0.09396 0.3758389,-0.281879 0.3758389,-0.469798 0,-0.563759 -0.6577181,-0.563759 -0.9395973,-0.563759 l -0.2818792,0 c -1.2214765,0 -1.8791946,-0.375839 -1.8791946,-2.161073 l 0,-1.033558 0.9395973,-12.4026843 5.9194629,15.3154363 0,0.09396 c 0.09396,0.187919 0.187919,0.657718 0.657718,0.657718 0.375839,0 0.469798,-0.375839 0.563758,-0.563758 0,0 0,-0.09396 0.09396,-0.09396 l 6.671141,-15.6912755 0,13.9060405 c 0,0.375839 0,1.315436 -0.375839,1.597315 -0.281879,0.28188 -0.939597,0.375839 -1.315436,0.375839 l -0.281879,0 c -0.28188,0 -0.845638,0 -0.939598,0.563759 0,0.375839 0.281879,0.563758 0.751678,0.563758 0.563758,0 1.221477,0 1.785235,-0.09396 0.563758,0 1.221476,-0.09396 1.879195,-0.09396 0.469798,0 0.939597,0 1.409396,0.09396 0.469798,0 0.939597,0.09396 1.503355,0.09396 0.469799,0 0.751678,-0.187919 0.751678,-0.563758 0,-0.563759 -0.657718,-0.563759 -0.939597,-0.563759 l -0.281879,0 c -0.375839,0 -0.845638,0 -1.033557,-0.375839 -0.18792,-0.281879 -0.28188,-1.127516 -0.28188,-1.785234 l 0,-13.906041 c 0,-0.5637583 0.09396,-1.033557 0.18792,-1.2214765 0.09396,-0.09396 0.375839,-0.1879194 0.657718,-0.1879194 l 0.469799,0 c 0.563758,0 0.939597,-0.2818792 0.939597,-0.6577181 0,-0.1879195 -0.09396,-0.375839 -0.18792,-0.4697987 -0.09396,-0.09396 -0.281879,-0.09396 -0.375838,-0.09396 l -3.946309,0 c -0.281879,0 -0.657718,0.09396 -0.939597,0.4697986 L 12.872483,16.818794 7.704698,3.3825523 c 0,-0.09396 0,-0.09396 -0.09396,-0.1879194 C 7.5167785,2.818794 7.3288591,2.442955 6.6711409,2.442955 l -4.0402684,0 c -0.09396,0 -0.2818792,0 -0.3758389,0.09396 -0.09396,0 -0.1879195,0.1879194 -0.1879195,0.3758389 0,0.4697986 0.3758389,0.6577181 0.9395973,0.6577181 l 0.09396,0 c 0.6577182,0 1.0335571,0 1.2214766,0.1879195 0.1879194,0.09396 0.1879194,0.1879194 0.2818791,0.7516778 l 0,0.6577181 -1.1275167,13.6241616 0,0.187919 c -0.09396,1.409396 -0.1879195,1.879195 -1.6912752,1.973154 l -0.09396,0 c -0.2818792,0 -0.93959735,0 -0.93959735,0.563759 0,0.187919 0.0939597,0.375839 0.18791947,0.469798 0.18791948,0.09396 0.37583888,0.09396 0.56375838,0.09396 M 27.154362,12.778526 c 0.469799,0 1.127517,-0.281879 1.409396,-0.375839 0.469799,-0.18792 0.657719,-0.657718 0.845638,-1.033557 0,-0.09396 0,-0.09396 0.09396,-0.18792 0.657718,-1.5033552 1.503355,-2.4429532 3.38255,-2.4429532 1.785235,0 1.785235,1.033557 1.785235,2.5369132 l 0,1.691275 c 0,0.845638 0,0.845638 -0.751678,1.127517 -0.09396,0 -0.187919,0.09396 -0.281879,0.09396 l -2.348993,1.127516 c -0.09396,0.09396 -0.18792,0.09396 -0.375839,0.18792 -1.691275,0.845637 -4.322148,2.067114 -4.322148,4.322148 0,1.691275 1.597315,2.630872 3.100671,2.630872 1.127517,0 2.255034,-0.375839 3.47651,-1.221476 0.469799,-0.28188 0.845638,-0.563759 1.033557,-0.845638 0.09396,-0.09396 0.281879,-0.18792 0.281879,-0.281879 0,0 0.09396,0 0.09396,-0.09396 0.09396,0.09396 0.18792,0.281879 0.18792,0.469799 0.281879,0.657718 0.751678,1.691275 1.879194,1.691275 0.845638,0 1.597316,-0.469799 2.255034,-0.939597 l 0.09396,-0.09396 c 0.281879,-0.18792 0.657718,-0.563759 0.657718,-1.033557 0,-0.18792 -0.18792,-0.469799 -0.375839,-0.469799 -0.18792,0 -0.375839,0.18792 -0.469799,0.281879 l -0.187919,0.18792 c -0.18792,0.187919 -0.469799,0.375839 -0.751678,0.375839 -0.375839,0 -0.563759,-0.18792 -0.751678,-0.751678 -0.09396,-0.469799 -0.09396,-0.939597 -0.09396,-1.409396 l 0,-8.080537 c 0,-0.6577182 -0.09396,-1.3154362 -0.657718,-1.7852352 -0.657718,-0.563758 -1.597315,-0.845638 -2.912752,-0.845638 -1.973154,0 -4.134228,0.845638 -5.637583,2.161074 -0.563759,0.6577182 -1.221477,1.5033562 -1.221477,2.4429532 0,0.18792 0.09396,0.375839 0.187919,0.469799 0.09396,0 0.28188,0.09396 0.375839,0.09396 m 7.516779,1.973154 0,2.442953 c 0,0.939597 0,1.409396 -0.751678,2.161074 -0.751678,0.751678 -1.785235,1.221476 -2.724832,1.221476 -1.409396,0 -1.973154,-0.845637 -1.973154,-1.597315 0,-1.315436 1.127516,-2.161074 2.348993,-2.724832 l 2.818792,-1.409396 c 0,0 0.09396,0 0.187919,-0.09396 0,0 0,-0.09396 0.09396,0 0,-0.09396 0,-0.09396 0,0 m 13.248322,7.610738 c 1.785235,0 3.288591,-0.563758 4.604027,-1.597315 0,0 0.09396,-0.09396 0.187919,-0.09396 0.28188,-0.281879 0.845638,-0.751678 0.845638,-1.127517 0,-0.187919 -0.187919,-0.469798 -0.375839,-0.469798 -0.281879,0 -0.375839,0.187919 -0.469799,0.375839 l -0.09396,0.09396 c -0.845638,0.845638 -2.067114,1.315437 -3.382551,1.315437 -1.503355,0 -3.006711,-0.657719 -4.040268,-1.973155 -0.939597,-1.127517 -1.503356,-2.724832 -1.503356,-4.228188 0,-1.879194 0.845638,-3.664429 2.161074,-4.8859062 0.751678,-0.563758 1.879195,-1.221476 3.006711,-1.221476 1.221477,0 1.879195,0.845637 2.442953,1.5973152 0.18792,0.18792 0.28188,0.469799 0.375839,0.657718 0.375839,0.563759 0.657718,1.127517 1.221477,1.127517 0.563758,-0.09396 0.563758,-0.657718 0.563758,-1.127517 l 0,-1.3154362 c 0,-0.281879 0,-0.657718 -0.375839,-0.845637 -1.033557,-0.751678 -2.724832,-1.033558 -3.946308,-1.033558 -2.067114,0 -4.134229,0.845638 -5.637584,2.161074 -1.597316,1.5033562 -2.536913,3.3825512 -2.536913,5.4496652 0,1.879194 0.751678,3.664429 2.067114,4.979865 1.221477,1.409396 3.006711,2.161074 4.885906,2.161074 m 5.355705,-0.751678 c 0,0.375839 0.281879,0.563759 0.751678,0.563759 l 0.563758,0 c 0.469799,0 0.845638,0 1.315436,-0.09396 0.375839,0 0.845638,-0.09396 1.315437,-0.09396 0.469798,0 0.845637,0 1.315436,0.09396 0.469798,0 0.845637,0.09396 1.315436,0.09396 l 0.09396,0 c 0.187919,0 0.281879,0 0.469798,-0.09396 0.18792,-0.09396 0.375839,-0.281879 0.375839,-0.469799 0,-0.563758 -0.657718,-0.563758 -0.845637,-0.563758 l -0.09396,0 c -0.469799,0 -0.939597,-0.09396 -1.221477,-0.187919 -0.469798,-0.18792 -0.657718,-0.375839 -0.657718,-0.751678 0,-0.469799 0.28188,-1.127517 0.375839,-1.597316 l 0.939598,-2.348993 c 0.09396,-0.281879 0.187919,-0.469799 0.281879,-0.657718 0.187919,-0.469799 0.187919,-0.469799 0.939597,-0.469799 l 4.416107,0 c 0.657719,0 0.939598,0 1.033558,0.18792 0.09396,0.09396 0.187919,0.375839 0.375838,0.845637 0.09396,0.09396 0.09396,0.281879 0.18792,0.469799 l 0.939597,2.348993 c 0.18792,0.375839 0.375839,1.033557 0.375839,1.409396 0,0.375839 -0.187919,0.563759 -0.563758,0.657718 -0.375839,0.09396 -0.751678,0.09396 -1.127517,0.09396 l -0.09396,0 c -0.281879,0 -1.033557,0 -1.033557,0.657718 0,0.18792 0.09396,0.469799 0.657718,0.469799 0.563759,0 1.221477,0 1.785235,-0.09396 0.563759,0 1.127517,-0.09396 1.691275,-0.09396 0.657719,0 1.409396,0 2.067115,0.09396 0.657718,0 1.315436,0.09396 2.067114,0.09396 0.469798,0 0.657718,-0.281879 0.657718,-0.469799 0,-0.657718 -0.751678,-0.657718 -1.033557,-0.657718 l -0.09396,0 c -1.221477,0 -1.691275,-1.315436 -2.161074,-2.536913 0,-0.09396 -0.09396,-0.187919 -0.09396,-0.375839 l -6.483221,-15.5033555 0,-0.09396 c -0.09396,-0.2818792 -0.18792,-0.5637584 -0.563758,-0.6577182 -0.469799,0 -0.563759,0.375839 -0.657719,0.6577182 0,0.09396 0,0.09396 -0.09396,0.09396 L 56.845638,18.040271 c -0.18792,0.563758 -0.751678,1.973154 -1.127517,2.348993 -0.375839,0.375839 -0.939598,0.469799 -1.409396,0.469799 l -0.09396,0 c -0.187919,0.09396 -0.845637,0.09396 -0.939597,0.751677 m 6.85906,-7.986577 c 0,-0.09396 0,-0.187919 0.09396,-0.281879 l 2.161074,-5.6375842 c 0,0 0,-0.09396 0.09396,-0.187919 0,-0.09396 0.09396,-0.281879 0.09396,-0.375839 0,-0.09396 0.09396,-0.18792 0.09396,-0.281879 0.09396,0.09396 0.187919,0.469798 0.281879,0.657718 l 0,0.281879 2.067114,5.2617452 c 0,0.09396 0.09396,0.187919 0.09396,0.375839 0,0.09396 0.09396,0.281879 0.09396,0.281879 l -4.697987,0 c -0.187919,0 -0.281879,0 -0.375839,-0.09396 m 19.825504,8.456376 c 0.469798,0 1.033557,0.09396 1.503355,0.09396 0.18792,0 0.281879,0 0.375839,-0.09396 0.09396,-0.09396 0.18792,-0.281879 0.18792,-0.375839 0,-0.563758 -0.563759,-0.563758 -0.845638,-0.563758 l -0.187919,0 c -1.127517,-0.09396 -1.221477,-0.563759 -1.221477,-1.409396 l 0,-6.107383 c 0,-1.127516 0,-1.785235 0.657718,-2.724832 0.375839,-0.469799 0.845638,-1.0335572 1.409396,-1.0335572 l 0.09396,0 c 0.281879,0 0.469799,0.1879192 0.657718,0.4697992 0.281879,0.281879 0.563758,0.751678 1.315436,0.751678 0.845638,0 1.503356,-0.563759 1.503356,-1.4093962 0,-0.845638 -0.657718,-1.691276 -1.973154,-1.691276 -0.939598,0 -1.785235,0.375839 -2.630873,1.315437 -0.281879,0.281879 -0.469799,0.563758 -0.657718,0.7516772 l -0.09396,0.18792 -0.187919,0.187919 0,-2.1610732 c 0,-0.09396 0,-0.18792 -0.09396,-0.375839 -0.09396,-0.09396 -0.187919,-0.18792 -0.375839,-0.18792 -0.281879,0 -0.469799,0.18792 -0.563758,0.375839 l -0.09396,0.09396 c -0.469799,0.563758 -1.785235,1.409396 -2.442953,1.597315 l -0.187919,0 c -0.28188,0.09396 -0.657719,0.18792 -0.657719,0.6577182 0,0.28188 0.28188,0.469799 0.563759,0.469799 l 0.469798,0 c 0.28188,0 0.657719,0.09396 0.657719,0.18792 0.187919,0.187919 0.281879,1.033557 0.281879,1.597315 l 0,6.85906 c 0,0.845638 -0.09396,1.315437 -1.221477,1.409396 l -0.187919,0 c -0.09396,0 -0.281879,0 -0.469799,0.09396 -0.187919,0 -0.469798,0.281879 -0.469798,0.563758 0,0.375839 0.281879,0.469799 0.657718,0.469799 0.469798,0 0.939597,0 1.409396,-0.09396 0.469798,0 1.033557,-0.09396 1.503355,-0.09396 0.375839,0.09396 0.845638,0.09396 1.315437,0.187919 m 7.046979,-12.9664432 0.939598,0 c 0.09396,0 0.09396,0 0.09396,0.18792 l 0,9.0201342 c 0,1.033557 0.09396,2.161074 0.751678,3.006711 0.563759,0.657718 1.409396,1.033557 2.348994,1.033557 1.033557,0 2.161073,-0.469798 3.006711,-1.221476 0.281879,-0.18792 0.657718,-0.563759 0.657718,-1.033557 0,-0.18792 -0.187919,-0.375839 -0.375839,-0.375839 -0.187919,0 -0.375839,0.187919 -0.469798,0.281879 -0.09396,0.09396 -0.18792,0.187919 -0.375839,0.281879 -0.469799,0.375839 -0.939598,0.469799 -1.315437,0.469799 -0.751677,0 -1.127516,-0.375839 -1.409396,-1.127517 -0.187919,-0.657718 -0.187919,-1.503356 -0.187919,-2.161074 l 0,-7.8926172 c 0,-0.469799 0.09396,-0.469799 0.281879,-0.469799 l 2.912752,0 c 0.187919,0 0.281879,0 0.469798,-0.187919 0.09396,-0.09396 0.09396,-0.281879 0.18792,-0.563759 0,-0.09396 0,-0.187919 -0.09396,-0.375839 -0.09396,-0.09396 -0.187919,-0.281879 -0.375839,-0.281879 l -3.006711,0 c -0.281879,0 -0.281879,0 -0.281879,-0.281879 l 0,-2.2550336 c 0,-0.09396 0,-0.5637583 -0.469799,-0.5637583 -0.281879,0 -0.375839,0.1879194 -0.469799,0.3758389 -0.657718,1.409396 -1.503355,2.161074 -2.912751,3.006711 0,0 -0.09396,0 -0.09396,0.09396 -0.18792,0.09396 -0.375839,0.281879 -0.375839,0.563759 -0.187919,0.469798 0.281879,0.469798 0.563758,0.469798 M 102.51007,21.986578 c 0.094,-0.09396 0.18792,-0.281879 0.18792,-0.375839 0,-0.563758 -0.56376,-0.563758 -0.84564,-0.563758 l -0.18792,0 c -1.12752,-0.09396 -1.22148,-0.563758 -1.22148,-1.409396 l 0,-6.483221 c 0,-1.221477 0,-1.785235 0.84564,-2.724833 0.75168,-0.8456372 1.78524,-1.2214762 2.91275,-1.2214762 1.22148,0 2.16108,0.469799 2.72483,1.3154362 0.4698,0.751678 0.4698,2.067114 0.4698,2.912752 l 0,6.295302 c 0,0.845637 -0.094,1.315436 -1.22147,1.409396 l -0.65772,0 c -0.18792,0.09396 -0.4698,0.281879 -0.4698,0.563758 0,0.375839 0.28188,0.469799 0.65772,0.469799 0.4698,0 0.9396,0 1.40939,-0.09396 0.4698,0 0.9396,-0.09396 1.4094,-0.09396 l 0.094,0 c 0.4698,0 0.84564,0 1.4094,0.09396 0.46979,0 1.03355,0.09396 1.50335,0.09396 0.18792,0 0.28188,0 0.37584,-0.09396 0.094,-0.09396 0.18792,-0.281879 0.18792,-0.375839 0,-0.563758 -0.56376,-0.563758 -0.84564,-0.563758 l -0.18792,0 c -1.12751,-0.09396 -1.22147,-0.563759 -1.22147,-1.409396 l 0,-6.013423 c 0,-1.409396 0,-3.006711 -0.9396,-4.2281882 -0.65772,-0.939597 -2.06712,-1.597315 -3.66443,-1.597315 -1.8792,0 -3.19463,0.563758 -4.60403,1.973154 0,0 -0.18792,0.09396 -0.18792,0.1879192 l -0.094,-0.09396 0,-9.3959734 c 0,-0.09396 0,-0.1879195 -0.094,-0.3758389 C 100.16099,0.0939595 100.06707,0 99.879157,0 99.597277,0 99.315398,0.1879195 99.127479,0.3758389 l -0.09396,0 c -0.845638,0.5637584 -2.255034,0.8456376 -2.724832,0.9395973 -0.469799,0.09396 -0.563759,0.375839 -0.563759,0.5637584 0,0.2818792 0.28188,0.4697987 0.657719,0.4697987 l 0.281879,0 c 0.939597,0 1.033557,0.5637584 1.033557,1.3154362 l 0,15.7852355 c 0,0.845637 -0.09396,1.315436 -1.221477,1.409396 l -0.657718,0 c -0.187919,0.09396 -0.469798,0.281879 -0.469798,0.563758 0,0.375839 0.281879,0.469799 0.657718,0.469799 0.469798,0 0.939597,0 1.409396,-0.09396 0.469798,0 0.939597,-0.09396 1.409396,-0.09396 l 0.09396,0 c 0.469799,0 0.845638,0 1.40939,0.09396 0.4698,0 1.03356,0.09396 1.50336,0.09396 0.37584,0.187919 0.4698,0.187919 0.65772,0.09396"
     id="path6754"
     inkscape:connector-curvature="0"
     style="fill:#90a4ae" />
  <path
     d="m 123.55705,20.201344 c 0.094,0.18792 0.094,0.375839 0.094,0.469799 l 0,1.503356 c 0,0.09396 0.18792,0.187919 0.28188,0.187919 0.18792,0 0.28188,-0.09396 0.37583,-0.187919 0.84564,-0.657718 1.97316,-1.033557 3.10068,-1.315436 l 0.094,0 c 0.18792,-0.09396 0.56375,-0.09396 0.65771,-0.563759 0,-0.281879 -0.18792,-0.469798 -0.56375,-0.469798 l -0.56376,0 c -0.75168,0 -0.75168,-0.28188 -0.84564,-1.033557 l 0,-10.1476512 c 0,-0.09396 0,-0.28188 -0.094,-0.375839 -0.094,-0.09396 -0.28188,-0.18792 -0.4698,-0.18792 l -3.75839,0 c -0.094,0 -0.18792,0 -0.28188,0.09396 -0.094,0.09396 -0.094,0.187919 -0.094,0.375839 0.094,0.563758 0.65772,0.563758 0.9396,0.563758 l 0.094,0 c 1.12752,0 1.12752,0.469799 1.22148,1.3154362 l 0,7.610739 c 0,0.469798 0,0.939597 -0.4698,1.503355 -0.84564,0.845638 -1.8792,1.315437 -3.19463,1.315437 -1.03356,0 -2.349,-0.375839 -2.91275,-1.315437 -0.56376,-0.845637 -0.56376,-2.442953 -0.56376,-3.38255 l 0,-7.3288592 c 0,-0.187919 0,-0.375839 -0.094,-0.563758 -0.094,-0.18792 -0.28188,-0.28188 -0.56376,-0.28188 l -3.66443,0 c -0.094,0 -0.18792,0 -0.28188,0.09396 -0.094,0.09396 -0.18792,0.281879 -0.18792,0.375839 0,0.657718 0.65772,0.657718 0.9396,0.657718 1.12751,0 1.22147,0.469799 1.22147,1.3154362 l 0,6.201343 c 0,1.503355 0.094,2.818792 0.9396,3.946308 0.9396,1.221477 2.25504,1.879195 3.75839,1.879195 1.22148,0 2.25503,-0.375839 3.38255,-1.127517 0.37584,-0.281879 0.65772,-0.469798 0.9396,-0.657718 0.28188,-0.281879 0.4698,-0.469799 0.56376,-0.469799 z M 137.93289,7.8926198 c -0.9396,0 -1.78524,0.469798 -2.63088,1.315436 -0.28188,0.281879 -0.56375,0.563758 -0.75167,0.8456372 -0.094,0.09396 -0.18792,0.18792 -0.18792,0.28188 l 0,-2.0671142 c 0,-0.09396 0,-0.18792 -0.094,-0.375839 -0.094,-0.09396 -0.18792,-0.18792 -0.37584,-0.18792 -0.28188,0 -0.4698,0.18792 -0.56376,0.375839 l -0.094,0.09396 c -0.4698,0.563758 -1.78524,1.409396 -2.44295,1.597315 l -0.18792,0 c -0.28188,0.09396 -0.65772,0.18792 -0.65772,0.6577182 0,0.28188 0.28188,0.469799 0.56376,0.469799 l 0.37584,0 c 0.28188,0 0.65771,0.09396 0.75167,0.18792 0.18792,0.187919 0.28188,1.033557 0.28188,1.597315 l 0,6.85906 c 0,0.845638 -0.094,1.315437 -1.22147,1.409396 l -0.65772,0 c -0.18792,0.09396 -0.4698,0.28188 -0.4698,0.563759 0,0.375839 0.37584,0.469798 0.65772,0.469798 0.4698,0 0.9396,0 1.40939,-0.09396 0.4698,0 0.9396,-0.09396 1.4094,-0.09396 l 0.094,0 c 0.4698,0 0.84564,0 1.4094,0.09396 0.46979,0 1.03355,0.09396 1.50335,0.09396 0.18792,0 0.28188,0 0.37584,-0.09396 0.094,-0.09396 0.18792,-0.28188 0.18792,-0.375839 0,-0.563759 -0.56376,-0.563759 -0.84564,-0.563759 l -0.18792,0 c -1.12751,-0.09396 -1.22147,-0.563758 -1.22147,-1.409396 l 0,-6.013422 c 0,-1.127517 0,-1.785235 0.65771,-2.724833 0.37584,-0.469798 0.84564,-1.0335572 1.4094,-1.0335572 l 0.094,0 c 0.28188,0 0.4698,0.18792 0.65772,0.4697992 0.28188,0.281879 0.56376,0.751678 1.31543,0.751678 0.84564,0 1.50336,-0.563759 1.50336,-1.4093962 -0.094,-1.127517 -1.12752,-1.691275 -2.06711,-1.691275 M 13.812081,34.013425 c 0.469798,0 0.469798,-0.563758 0.469798,-0.845638 l 0,-3.006711 c 0,-0.187919 0,-0.375839 -0.09396,-0.563758 -0.09396,-0.18792 -0.281879,-0.28188 -0.563758,-0.28188 -1.691275,0 -3.47651,0 -5.0738254,0.09396 -1.6912752,0 -3.3825504,0.09396 -5.0738255,0.09396 -0.4697987,0 -0.9395973,0 -1.409396,-0.09396 -0.4697987,0 -0.9395973,-0.09396 -1.40939598,-0.09396 C 0.28187919,29.315438 0,29.503358 0,29.879197 c 0,0.657718 0.65771812,0.657718 0.93959732,0.657718 0.75167788,0 1.22147648,0.09396 1.50335568,0.281879 0.1879195,0.18792 0.1879195,0.563759 0.2818792,1.221477 l 0,14.281879 c 0,1.315436 -0.09396,1.503356 -1.6912752,1.597315 l -0.18791942,0 c -0.18791946,0 -0.75167785,0 -0.84563758,0.563759 0,0.187919 0.09395973,0.375839 0.28187919,0.469798 0.0939597,-0.09396 0.2818792,-0.09396 0.46979866,-0.09396 l 1.69127515,0 c 0.5637584,0 1.1275168,-0.09396 1.6912752,-0.09396 0.5637584,0 1.1275168,0 1.5973154,0.09396 l 1.6912752,0 c 0.1879195,0 0.2818792,0 0.4697986,-0.09396 0.1879195,-0.09396 0.2818792,-0.281879 0.2818792,-0.469799 0,-0.563758 -0.6577181,-0.563758 -0.8456375,-0.563758 l -0.1879195,0 c -0.7516779,0 -1.2214765,-0.09396 -1.5033557,-0.375839 C 5.4496644,47.167787 5.4496644,46.697989 5.3557047,46.040271 l 0,-6.483222 c 0,-0.563758 0.09396,-0.657718 0.1879195,-0.751678 0.09396,-0.09396 0.4697986,-0.09396 1.033557,-0.09396 l 0.09396,0 c 0.8456376,0 2.4429531,0 3.5704698,0.281879 0.375839,0.09396 0.751678,0.751678 0.845637,1.785235 0,0.187919 0.09396,0.657718 0.563759,0.657718 0.09396,0 0.281879,0 0.375839,-0.18792 0.09396,-0.09396 0.187919,-0.281879 0.187919,-0.563758 0,-0.751678 -0.09396,-1.503356 -0.09396,-2.255034 l 0,-0.563758 c 0.09396,-0.845638 0.09396,-1.785235 0.18792,-2.630872 0,-0.375839 -0.281879,-0.469799 -0.469799,-0.469799 -0.469798,0 -0.563758,0.469799 -0.563758,0.657718 -0.18792,1.033557 -0.375839,1.973154 -0.845638,1.973154 -1.0335565,0.18792 -2.0671136,0.18792 -2.8187914,0.18792 l -1.2214766,0 c -0.8456375,0 -0.8456375,0 -0.9395973,-1.221477 l 0,-4.697986 c 0,-0.469799 0.09396,-0.939598 0.2818792,-1.033557 0.375839,-0.18792 1.9731544,-0.18792 2.2550336,-0.18792 l 0.2818792,0 c 2.6308723,0 4.2281873,0 4.9798653,2.818792 l 0,0.09396 c 0,0.187919 0.09396,0.657718 0.563759,0.657718 m 6.577181,0.469799 c -2.630873,0 -4.322148,1.127516 -5.167785,2.161074 -1.221477,1.315436 -1.973155,3.19463 -1.973155,5.073825 0,4.134228 3.194631,7.422819 7.14094,7.422819 4.040268,0 7.140939,-3.288591 7.140939,-7.422819 0,-2.067114 -0.845637,-4.134228 -2.255033,-5.355705 -1.315436,-1.221476 -3.006712,-1.879194 -4.885906,-1.879194 m -0.09396,0.939598 c 3.006711,0 4.697987,3.288591 4.697987,6.389262 0,1.503355 -0.469799,3.006711 -1.221477,4.228188 -1.127517,1.691275 -2.442953,2.067114 -3.38255,2.067114 -1.785235,0 -2.912752,-1.221477 -3.47651,-2.161074 -0.751678,-1.221477 -1.221477,-2.912752 -1.221477,-4.510067 0,-2.818792 1.597316,-6.013423 4.604027,-6.013423 m 22.738255,11.275168 -0.563758,0 c -0.751678,0 -0.751678,-0.281879 -0.751678,-1.033557 l 0,-10.241611 c 0,-0.09396 0,-0.281879 -0.09396,-0.375839 -0.09396,-0.09396 -0.281879,-0.187919 -0.469799,-0.187919 l -3.570469,0 c -0.09396,0 -0.28188,0 -0.375839,0.09396 -0.09396,0.09396 -0.09396,0.18792 -0.09396,0.375839 0.09396,0.563759 0.657718,0.563759 0.939597,0.563759 l 0.09396,0 c 1.033557,0 1.127517,0.375839 1.127517,1.315436 l 0,7.610738 c 0,0.657718 -0.09396,1.033557 -0.469799,1.503356 -0.751678,0.845637 -1.785235,1.315436 -3.006711,1.315436 -0.939598,0 -2.255034,-0.375839 -2.818792,-1.315436 -0.469799,-0.845638 -0.469799,-2.442953 -0.469799,-3.38255 l 0,-7.14094 c 0,-0.18792 0,-0.375839 -0.09396,-0.563758 -0.09396,-0.18792 -0.281879,-0.28188 -0.563758,-0.28188 l -3.47651,0 c -0.09396,0 -0.18792,0 -0.281879,0.09396 C 28,35.140942 28,35.234902 28,35.328861 c 0,0.657718 0.657718,0.657718 0.939597,0.657718 1.033557,0 1.127517,0.375839 1.127517,1.315437 l 0,6.295302 c 0,1.221476 0,2.724832 0.939597,3.946308 0.845638,1.221477 2.161074,1.879195 3.66443,1.879195 1.127517,0 2.161074,-0.375839 3.194631,-1.127517 0.375839,-0.281879 0.657718,-0.469798 0.845637,-0.657718 0.18792,-0.187919 0.375839,-0.281879 0.469799,-0.375839 l 0,0.09396 c 0,0.09396 0.09396,0.281879 0,0.375839 l 0,1.315436 c 0,0.09396 0.18792,0.18792 0.281879,0.18792 0.18792,0 0.281879,-0.09396 0.375839,-0.18792 0.845638,-0.657718 1.785235,-0.939597 2.912752,-1.315436 l 0.09396,0 c 0.187919,-0.09396 0.563758,-0.18792 0.657718,-0.563759 0.09396,-0.281879 -0.18792,-0.469798 -0.469799,-0.469798 m 17.38255,1.127517 c -0.187919,0 -0.281879,0 -0.375839,-0.09396 l -0.09396,0 c -1.127517,-0.09396 -1.127517,-0.563759 -1.221477,-1.409396 l 0,-6.295302 c 0,-1.409396 -0.09396,-2.724832 -0.939597,-3.852349 -0.845638,-1.127517 -2.067114,-1.785235 -3.66443,-1.785235 -1.127516,0 -2.255033,0.469799 -3.38255,1.315436 -0.281879,0.281879 -0.657718,0.563759 -0.845638,0.751678 -0.187919,0.18792 -0.281879,0.281879 -0.469798,0.375839 l 0,-1.879195 c 0,-0.187919 -0.09396,-0.563758 -0.469799,-0.563758 -0.281879,0 -0.469799,0.187919 -0.563758,0.375839 l -0.09396,0.09396 c -0.469798,0.563758 -1.785234,1.409396 -2.348992,1.503355 l -0.09396,0 c -0.281879,0.09396 -0.657718,0.18792 -0.657718,0.657718 0,0.28188 0.281879,0.469799 0.563758,0.469799 l 0.375839,0 c 0.281879,0 0.563759,0.09396 0.657718,0.18792 0.18792,0.187919 0.28188,1.033557 0.28188,1.597315 l 0,6.95302 c 0,0.845638 -0.09396,1.315436 -1.221477,1.409396 l -0.187919,0 c -0.09396,0 -0.28188,0 -0.375839,0.09396 -0.18792,0.09396 -0.469799,0.281879 -0.469799,0.563758 0,0.375839 0.281879,0.469799 0.563758,0.469799 0.469799,0 0.939598,0 1.409396,-0.09396 0.469799,0 0.939598,-0.09396 1.409396,-0.09396 0.469799,0 0.845638,0 1.315437,0.09396 0.469798,0 0.939597,0.09396 1.409395,0.09396 0.18792,0 0.28188,0 0.375839,-0.09396 0.09396,-0.09396 0.18792,-0.187919 0.18792,-0.375839 0,-0.281879 -0.18792,-0.469798 -0.469799,-0.563758 -0.187919,0 -0.281879,0 -0.375839,-0.09396 l -0.09396,0 c -1.127517,-0.09396 -1.127517,-0.563758 -1.221477,-1.409396 l 0,-6.013423 c 0,-1.221476 0.09396,-1.785235 0.939597,-2.724832 0.751678,-0.845637 1.785235,-1.221476 2.818792,-1.221476 1.127517,0 2.067114,0.469798 2.630873,1.315436 0.469798,0.751678 0.469798,2.067114 0.469798,2.912752 l 0,5.825503 c 0,0.845637 -0.09396,1.315436 -1.221476,1.409396 l -0.18792,0 c -0.09396,0 -0.281879,0 -0.375838,0.09396 -0.18792,0.09396 -0.469799,0.281879 -0.469799,0.563758 0,0.375839 0.281879,0.469799 0.563758,0.469799 0.469799,0 0.939598,0 1.409396,-0.09396 0.469799,0 0.939598,-0.09396 1.409396,-0.09396 0.469799,0 0.845638,0 1.315436,0.09396 0.469799,0 0.939598,0.09396 1.409396,0.09396 0.18792,0 0.28188,0 0.375839,-0.09396 0.09396,-0.09396 0.18792,-0.18792 0.18792,-0.375839 0.281879,-0.281879 0,-0.469799 -0.18792,-0.563758 m 16.255035,-1.785235 c -0.18792,0 -0.375839,0.187919 -0.469799,0.375839 -0.09396,0.09396 -0.09396,0.187919 -0.187919,0.187919 -0.281879,0.281879 -0.469799,0.469799 -0.657718,0.469799 -0.09396,0 -0.09396,0 -0.18792,-0.18792 0,-0.187919 -0.09396,-0.375839 -0.09396,-0.657718 l 0,-18.885906 c 0,-0.09396 0,-0.187919 -0.09396,-0.281879 -0.09396,-0.09396 -0.18792,-0.18792 -0.375839,-0.18792 -0.281879,0 -0.563759,0.18792 -0.657718,0.375839 l -0.09396,0.09396 c -0.751678,0.563758 -2.161074,0.845638 -2.536913,0.939597 -0.375839,0.09396 -0.563758,0.28188 -0.563758,0.563759 0,0.469798 0.469799,0.469798 0.657718,0.469798 l 0.281879,0 c 0.845638,0 0.939597,0.563759 0.939597,1.315437 l 0,4.791946 c -0.09396,0 -0.281879,-0.09396 -0.469798,-0.187919 -0.939597,-0.375839 -1.973155,-0.563759 -3.194631,-0.657719 l -0.281879,0 c -1.691275,0 -3.47651,0.845638 -4.979866,2.255034 -1.409396,1.409396 -2.161074,3.100671 -2.161074,5.073825 0,1.879195 0.657718,3.66443 1.879195,5.073826 1.221476,1.409396 2.912751,2.255034 4.697986,2.255034 1.033557,0 2.067114,-0.375839 3.100672,-1.033558 0.281879,-0.187919 0.657718,-0.469798 0.845637,-0.657718 l 0.563758,-0.375839 c 0.09396,0.18792 0.09396,0.657719 0.09396,0.751678 l 0,0.469799 c 0,0.09396 0.09396,0.469799 0.469799,0.469799 0.187919,0 0.469799,-0.18792 0.657718,-0.28188 l 0.09396,0 2.348993,-0.939597 c 0.281879,-0.09396 0.657718,-0.187919 0.657718,-0.657718 l 0,-0.563758 c 0.09396,-0.18792 -0.09396,-0.375839 -0.281879,-0.375839 m -4.040269,-1.127517 0,0.281879 c 0,0.375839 0,0.563758 -0.281879,0.845638 -0.563758,0.657718 -1.691275,1.409396 -3.38255,1.409396 -3.194631,0 -4.885906,-3.100672 -4.885906,-6.107383 0,-3.194631 2.067114,-5.731544 4.979866,-6.013423 l 0.281879,0 c 0.845637,0 1.973154,0.281879 2.630872,0.939598 0.563759,0.563758 0.657718,1.503355 0.657718,2.348993 l 0,6.295302 m 18.228188,1.597315 c -0.187919,0 -0.281879,0.18792 -0.469798,0.28188 l -0.18792,0.187919 c -0.187919,0.187919 -0.375839,0.375839 -0.751678,0.375839 -0.375838,0 -0.563758,-0.18792 -0.751677,-0.751678 -0.09396,-0.469799 -0.09396,-1.033557 -0.09396,-1.409396 l 0,-7.986577 c 0,-0.657718 -0.09396,-1.221477 -0.657718,-1.785235 -0.563759,-0.563758 -1.503356,-0.845638 -2.818792,-0.845638 -1.879195,0 -3.946309,0.845638 -5.449665,2.161074 -0.657718,0.563759 -1.315436,1.409396 -1.315436,2.348994 0,0.187919 0.09396,0.375838 0.18792,0.469798 0.09396,0.09396 0.281879,0.09396 0.375838,0.09396 0.469799,0 1.033558,-0.281879 1.315437,-0.375839 0.469798,-0.187919 0.657718,-0.657718 0.845637,-1.033557 0,-0.09396 0,-0.09396 0.09396,-0.18792 0.657718,-1.503355 1.409396,-2.442953 3.194631,-2.442953 1.691275,0 1.691275,1.033558 1.691275,2.536913 l 0,1.691275 c 0,0.845638 0,0.845638 -0.751678,1.221477 -0.09396,0 -0.187919,0.09396 -0.281879,0.09396 l -2.255034,1.127516 c -0.09396,0.09396 -0.187919,0.09396 -0.375838,0.18792 -1.691276,0.845637 -4.134229,2.067114 -4.134229,4.322148 0,1.691275 1.503356,2.630872 3.006712,2.630872 1.127517,0 2.161074,-0.375839 3.38255,-1.221477 0.469799,-0.281879 0.751678,-0.563758 1.033557,-0.845637 l 0.09396,-0.09396 c 0.09396,-0.09396 0.187919,-0.09396 0.187919,-0.187919 l 0.09396,0 c 0.09396,0.09396 0.09396,0.281879 0.18792,0.469798 0.281879,0.657718 0.657718,1.691276 1.785234,1.691276 0.845638,0 1.597316,-0.469799 2.255034,-0.939598 l 0.09396,-0.09396 c 0.281879,-0.187919 0.657718,-0.563758 0.657718,-1.033557 0.187919,-0.469798 0,-0.657718 -0.18792,-0.657718 m -4.604026,-4.697986 0,2.161074 c 0,0.939597 0,1.409396 -0.657719,2.161073 -0.657718,0.751678 -1.691275,1.127517 -2.630872,1.127517 -0.939597,0 -1.879195,-0.469798 -1.879195,-1.597315 0,-1.315437 1.033557,-2.067114 2.161074,-2.724832 l 2.724832,-1.409396 c 0,0 0.09396,0 0.09396,-0.09396 l 0.09396,0 c 0.09396,0.09396 0.09396,0.281879 0.09396,0.375839 m 13.154362,4.697986 c -0.187919,0 -0.281879,0.18792 -0.469799,0.28188 -0.09396,0.09396 -0.187919,0.187919 -0.375839,0.281879 -0.469798,0.375839 -0.845637,0.469798 -1.315436,0.469798 -0.657718,0 -1.127517,-0.375839 -1.315436,-1.127516 -0.18792,-0.657719 -0.18792,-1.409396 -0.18792,-2.161074 l 0,-7.892618 c 0,-0.469798 0.09396,-0.469798 0.28188,-0.469798 l 2.724832,0 c 0.187919,0 0.281879,0 0.469799,-0.18792 0.09396,-0.09396 0.09396,-0.281879 0.09396,-0.563758 l 0,-0.375839 c -0.09396,-0.18792 -0.187919,-0.281879 -0.375839,-0.281879 l -2.912751,0 c -0.28188,0 -0.28188,0 -0.28188,-0.28188 l 0,-2.255033 c 0,-0.18792 0,-0.563758 -0.469798,-0.563758 -0.281879,0 -0.375839,0.187919 -0.469799,0.375838 -0.657718,1.409396 -1.503356,2.161074 -2.724832,3.006712 0,0 -0.09396,0 -0.09396,0.09396 -0.187919,0.09396 -0.375839,0.281879 -0.375839,0.563758 0,0.469799 0.469799,0.469799 0.751678,0.469799 l 0.845638,0 c 0.09396,0 0.09396,0 0.09396,0.187919 l 0,9.020134 c 0,1.033557 0.09396,2.161074 0.657719,3.006712 0.469798,0.657718 1.315436,1.033557 2.255033,1.033557 1.033557,0 2.067114,-0.469799 2.912752,-1.221477 0.187919,-0.187919 0.657718,-0.563758 0.657718,-1.033557 0,-0.187919 -0.09396,-0.375839 -0.375839,-0.375839 M 104.20134,28.75168 c -0.9396,0 -1.50335,0.845638 -1.50335,1.691275 0,0.845638 0.4698,1.691275 1.50335,1.691275 0.75168,0 1.50336,-0.563758 1.50336,-1.691275 -0.094,-1.127517 -0.84564,-1.691275 -1.50336,-1.691275 m 2.91275,19.073826 c -0.18792,0 -0.28188,0 -0.37583,-0.09396 l -0.094,0 c -1.12752,-0.09396 -1.12752,-0.563759 -1.22148,-1.409396 l 0,-11.275168 c 0,-0.09396 0,-0.563758 -0.4698,-0.563758 -0.28188,0 -0.4698,0.187919 -0.56376,0.375839 l -0.094,0.09396 c -0.4698,0.563759 -1.69127,1.409396 -2.34899,1.597316 l -0.094,0 c -0.28188,0.09396 -0.65772,0.187919 -0.65772,0.657718 0,0.281879 0.28188,0.469799 0.56376,0.469799 l 0.37584,0 c 0.28188,0 0.56376,0.09396 0.65772,0.187919 0.18792,0.187919 0.28188,1.033557 0.28188,1.597315 l 0,7.04698 c 0,0.845638 -0.094,1.315437 -1.12752,1.409396 l -0.18792,0 c -0.094,0 -0.28188,0 -0.37584,0.09396 -0.18792,0.09396 -0.4698,0.281879 -0.4698,0.563758 0,0.375839 0.37584,0.469799 0.56376,0.469799 0.4698,0 0.9396,0 1.4094,-0.09396 0.46979,0 0.93959,-0.09396 1.40939,-0.09396 0.4698,0 0.84564,0 1.31544,0.09396 0.4698,0 0.9396,0.09396 1.40939,0.09396 0.18792,0 0.28188,0 0.37584,-0.09396 0.094,-0.09396 0.18792,-0.281879 0.18792,-0.375839 -0.094,-0.469798 -0.28188,-0.657718 -0.4698,-0.751677 m 8.1745,-13.342282 c -1.50336,0 -3.57047,0.375839 -5.16778,2.161074 -1.22148,1.315436 -1.97316,3.19463 -1.97316,5.073825 0,4.134228 3.19463,7.422819 7.14094,7.422819 4.04027,0 7.14094,-3.288591 7.14094,-7.422819 0,-2.067114 -0.84564,-4.134228 -2.25503,-5.355705 -1.22148,-1.221476 -2.91276,-1.879194 -4.88591,-1.879194 m 0,0.939597 c 3.00671,0 4.69799,3.38255 4.69799,6.483221 0,1.503356 -0.4698,3.006712 -1.22148,4.228188 -0.84564,1.315437 -2.06711,2.067114 -3.38255,2.067114 -1.78523,0 -2.91275,-1.221476 -3.47651,-2.161073 -0.75168,-1.221477 -1.22148,-2.912752 -1.22148,-4.510067 0,-2.912752 1.59732,-6.107383 4.60403,-6.107383 m 23.48993,12.402685 c -0.18792,0 -0.28188,0 -0.37584,-0.09396 l -0.094,0 c -1.12751,-0.09396 -1.12751,-0.563759 -1.22147,-1.409396 l 0,-6.201342 c 0,-1.409396 -0.094,-2.724833 -0.9396,-3.852349 -0.84564,-1.127517 -2.06711,-1.785235 -3.66443,-1.785235 -1.12752,0 -2.25503,0.469798 -3.38255,1.315436 -0.37584,0.281879 -0.65772,0.563758 -0.84564,0.751678 -0.18792,0.187919 -0.28188,0.281879 -0.4698,0.375839 l 0,-1.879195 c 0,-0.187919 0,-0.563758 -0.46979,-0.563758 -0.28188,0 -0.4698,0.187919 -0.56376,0.375839 l -0.094,0.09396 c -0.4698,0.563759 -1.69128,1.409396 -2.349,1.597316 l -0.0939,0 c -0.28188,0.09396 -0.65772,0.187919 -0.65772,0.657718 0,0.281879 0.28188,0.469799 0.56376,0.469799 l 0.37583,0 c 0.28188,0 0.56376,0.09396 0.65772,0.187919 0.18792,0.187919 0.28188,1.033557 0.28188,1.597315 l 0,6.953021 c 0,0.845637 -0.094,1.315436 -1.12752,1.409396 l -0.18791,0 c -0.094,0 -0.28188,0 -0.37584,0.09396 -0.18792,0.09396 -0.4698,0.281879 -0.4698,0.563759 0,0.375839 0.28188,0.469798 0.56376,0.469798 0.46979,0 0.93959,0 1.40939,-0.09396 0.4698,0 0.9396,-0.09396 1.4094,-0.09396 0.37584,0 0.84564,0 1.31543,0.09396 0.4698,0 0.9396,0.09396 1.50336,0.09396 0.18792,0 0.28188,0 0.37584,-0.09396 0.094,-0.09396 0.18792,-0.18792 0.18792,-0.375839 0,-0.28188 -0.28188,-0.469799 -0.4698,-0.563759 -0.18792,0 -0.28188,0 -0.37584,-0.09396 l -0.094,0 c -1.12752,-0.09396 -1.12752,-0.563759 -1.22148,-1.409396 l 0,-6.013423 c 0,-1.221477 0.094,-1.785235 0.9396,-2.724832 0.75168,-0.845638 1.78524,-1.221477 2.81879,-1.221477 1.12752,0 2.06712,0.469799 2.63088,1.315436 0.4698,0.751678 0.4698,2.067114 0.4698,2.912752 l 0,5.731544 c 0,0.845637 -0.094,1.315436 -1.22148,1.409396 l -0.18792,0 c -0.094,0 -0.28188,0 -0.37584,0.09396 -0.18792,0.09396 -0.4698,0.281879 -0.4698,0.563759 0,0.375839 0.28188,0.469798 0.56376,0.469798 0.4698,0 0.9396,0 1.4094,-0.09396 0.46979,0 0.93959,-0.09396 1.40939,-0.09396 0.4698,0 0.84564,0 1.31544,0.09396 0.4698,0 0.9396,0.09396 1.40939,0.09396 0.18792,0 0.28188,0 0.37584,-0.09396 0.094,-0.09396 0.18792,-0.28188 0.18792,-0.375839 0.094,-0.375839 -0.18792,-0.563759 -0.37584,-0.657718"
     id="path6756"
     inkscape:connector-curvature="0"
     style="fill:#90a4ae" />
</svg>
