<?xml version="1.0" encoding="UTF-8" standalone="no"?>
<svg
   xmlns:dc="http://purl.org/dc/elements/1.1/"
   xmlns:cc="http://creativecommons.org/ns#"
   xmlns:rdf="http://www.w3.org/1999/02/22-rdf-syntax-ns#"
   xmlns:svg="http://www.w3.org/2000/svg"
   xmlns="http://www.w3.org/2000/svg"
   xmlns:sodipodi="http://sodipodi.sourceforge.net/DTD/sodipodi-0.dtd"
   xmlns:inkscape="http://www.inkscape.org/namespaces/inkscape"
   sodipodi:docname="media-democracy-fund.svg"
   inkscape:version="0.91 r13725"
   id="svg3596"
   version="1.1"
   viewBox="0 0 104 56.248043"
   height="56.248043pt"
   width="104pt">
  <sodipodi:namedview
     inkscape:current-layer="svg3596"
     inkscape:window-maximized="1"
     inkscape:window-y="1"
     inkscape:window-x="0"
     inkscape:cy="29.387575"
     inkscape:cx="21.062075"
     inkscape:zoom="4.1936955"
     showgrid="false"
     id="namedview3796"
     inkscape:window-height="851"
     inkscape:window-width="1440"
     inkscape:pageshadow="2"
     inkscape:pageopacity="0"
     guidetolerance="10"
     gridtolerance="10"
     objecttolerance="10"
     borderopacity="1"
     bordercolor="#666666"
     pagecolor="#ffffff"
     fit-margin-top="0"
     fit-margin-left="0"
     fit-margin-right="0"
     fit-margin-bottom="0" />
  <metadata
     id="metadata3800">
    <rdf:RDF>
      <cc:Work
         rdf:about="">
        <dc:format>image/svg+xml</dc:format>
        <dc:type
           rdf:resource="http://purl.org/dc/dcmitype/StillImage" />
        <dc:title></dc:title>
      </cc:Work>
    </rdf:RDF>
  </metadata>
  <defs
     id="defs3798" />
  <path
     style="fill:#97abb5"
     d="m 87.974923,0.00608417 c -2.757762,0.1420622 -5.212188,2.74580183 -5.046398,5.56690823 0.0489,2.334814 1.815317,4.23486 3.887315,5.0997196 -0.443125,1.234637 -0.794725,2.503102 -1.222562,3.743857 -1.314102,3.685582 -3.257275,7.175642 -5.916029,10.063599 -4.009528,4.351802 -9.660506,7.166896 -15.555606,7.720038 -1.634982,0.09783 -3.275577,-0.05594 -4.910559,0.05713 -1.586086,0.04584 -3.111049,0.517101 -4.660461,0.807424 2.970471,-2.918515 5.310667,-6.576992 6.089957,-10.71487 0.999326,-0.180302 1.990343,-0.641424 2.509869,-1.55518 1.228527,-1.668604 0.149882,-4.293421 -1.824321,-4.767101 -2.304253,-0.809853 -4.82932,1.922251 -3.808603,4.150108 0.311715,0.950432 1.142647,1.558795 1.967778,2.047759 -0.146689,1.570809 -0.724349,3.060962 -1.41807,4.463682 -2.04449,3.96674 -5.445437,7.078207 -9.292992,9.266332 -0.892363,-0.638708 -1.854835,-1.3961 -3.0253,-1.270804 -1.182686,-0.113068 -2.123814,0.674687 -3.010066,1.331741 C 38.261777,33.623541 33.426814,31.873239 28.436301,30.916704 21.19043,30.103796 14.632378,25.8857 10.063599,20.323709 10.506725,19.63916 10.888094,18.897208 10.952273,18.069016 11.117299,16.09787 9.4975607,14.26985 7.5753118,14.003967 5.9250501,13.805326 4.3023072,14.881005 3.672763,16.390692 c -0.8220747,1.861124 0.1964599,4.223799 2.0820364,4.966418 1.1521268,0.577592 2.3961746,0.05499 3.5635833,-0.165039 3.0896543,3.425825 6.6802563,6.520996 10.9281523,8.415743 0.415621,0.19253 0.800775,0.442952 1.155275,0.73633 -4.675741,0.07029 -9.431311,1.229169 -13.3491533,3.854306 -0.696777,0.513413 -1.7906072,-0.116271 -2.3651426,0.638576 -1.0084932,0.892363 -0.073572,2.766013 1.261917,2.445123 1.069614,-0.01834 1.3594439,-1.225595 1.4358438,-2.078227 3.9545151,-2.7046 8.8075641,-3.758578 13.5383141,-3.84415 7.129741,0.05195 14.074048,2.301228 20.348098,5.583412 -0.611208,1.567747 -0.196665,3.511565 1.206058,4.517003 1.601364,1.356879 4.144187,0.910406 5.357434,-0.749026 0.86486,-0.996273 0.684657,-2.341214 0.727443,-3.548348 2.640418,-2.533454 6.371753,-3.615755 9.944263,-3.915243 5.705625,-0.351449 11.390357,1.107307 16.613126,3.304597 -0.01528,0.730391 -0.08246,1.475823 0.06728,2.200103 0.391172,1.595258 1.678026,2.881791 3.21827,3.407431 2.087271,0.745674 4.57501,-0.294121 5.635461,-2.210259 1.216302,-2.001705 0.631899,-4.776285 -1.204784,-6.200407 -2.215628,-1.919186 -6.117796,-1.063934 -7.25158,1.668169 -3.049932,-0.947378 -6.048226,-2.110619 -9.214287,-2.654596 5.228886,-1.228529 10.106199,-4.074593 13.599256,-8.175803 3.410538,-3.911726 5.544299,-8.782151 6.818666,-13.775717 1.045163,-0.177256 2.166611,-0.18639 3.092591,-0.773147 1.543305,-0.9412676 2.646306,-2.6557296 2.695224,-4.4801864 0.116131,-2.560958 -1.866982,-5.03956223 -4.406558,-5.45518963 -0.399575,-0.0867146 -0.800665,-0.1167792 -1.194631,-0.0964845 z m 0.455768,3.04561333 c 0.300203,0.020735 0.598391,0.1115743 0.873433,0.2869145 1.191856,0.5684266 1.658797,2.1907432 0.888676,3.2817464 -0.409508,0.715116 -0.907851,1.180323 -1.958891,1.179397 -1.115448,-0.03128 -2.227569,-1.020572 -2.29786,-2.2521538 -0.161395,-1.3607038 1.193755,-2.5857601 2.494642,-2.4959041 z M 7.0344903,16.035225 c 1.2748462,-0.0844 2.4519304,1.454626 1.6630896,2.641902 -0.608152,1.372161 -2.8116264,1.124454 -3.1966874,-0.284376 -0.4095094,-0.85875 0.2084076,-1.833331 0.9876978,-2.215337 0.1806881,-0.08404 0.3637786,-0.130131 0.5459,-0.142189 z m 53.3140957,0.661428 c 1.255836,-0.07287 2.533152,0.987716 2.474324,2.295318 0.183362,1.280479 -0.981116,2.34404 -2.160748,2.521295 -1.338545,0.106958 -2.640717,-1.143866 -2.527644,-2.494635 -0.01223,-1.002383 0.764052,-1.900049 1.680864,-2.217877 0.174577,-0.05921 0.3538,-0.09369 0.533204,-0.104101 z M 80.84395,34.712616 c 1.392265,0.02048 2.782358,1.173982 2.766316,2.64317 0.207812,1.518851 -1.157796,3.034644 -2.688875,2.964363 -1.622755,0.152799 -2.992139,-1.448945 -2.872955,-3.007527 0.106965,-0.913748 0.690874,-1.723834 1.454886,-2.212798 0.412562,-0.275045 0.87654,-0.394037 1.340628,-0.387208 z m -35.130555,1.950005 c 0.220531,-0.0034 0.454243,0.05356 0.769337,0.172656 0.802889,0.342047 1.246511,1.339152 0.879787,2.255963 -0.430901,0.620378 -1.170295,1.375397 -2.004594,1.042288 -0.699834,-0.354503 -1.451627,-1.033332 -1.268265,-1.904302 0.113006,-0.572262 0.262834,-1.030027 0.931838,-1.372367 0.263567,-0.126726 0.471365,-0.190804 0.691897,-0.194238 z"
     id="path3600"
     inkscape:connector-curvature="0" />
  <path
     d="m 0.18947447,50.623704 1.76333503,-0.01739 1.0023811,3.590853 1.1460149,-3.590853 1.6961021,0.01016 0.1650262,5.631573 -1.2207715,-0.0089 L 4.6146202,52.314697 3.3647,56.24641 2.3814436,56.24151 1.3477136,52.036942 c 0,0 -0.099287,2.870976 -0.2062487,4.203414 L 0,56.241783 c 0.06315398,-1.858112 0.18947447,-5.618079 0.18947447,-5.618079 z"
     id="path3746"
     inkscape:connector-curvature="0"
     style="fill:#97abb5"
     sodipodi:nodetypes="cccccccccccccc" />
  <path
     d="m 7.7623413,50.642985 3.3891487,-0.01837 0.0099,1.172733 -2.1995662,0.0065 0.026862,0.975596 2.1033492,0.02307 0.01057,1.023061 -2.1071739,0.01446 0.00634,1.346081 2.3606219,-0.03283 c 0,0 -0.0092,0.660109 -0.01222,0.993218 -1.194911,0.02446 -3.58779,-0.0033 -3.58779,-0.0033 z"
     id="path3748"
     inkscape:connector-curvature="0"
     style="fill:#97abb5"
     sodipodi:nodetypes="ccccccccccccc" />
  <path
     style="fill:#97abb5"
     d="m 13.412632,50.594491 c -0.276977,0.0058 -0.449417,0.01777 -0.449417,0.01777 l -0.02666,5.53771 c 1.054334,0.01833 2.14804,0.164974 3.168758,-0.149806 1.900856,-0.660101 2.386597,-3.556815 0.818849,-4.79757 -0.90623,-0.587469 -2.680603,-0.625741 -3.511531,-0.608107 z m 0.841701,0.8709 c 0,0 1.685359,0.135144 2.049027,0.79219 0.883197,1.228527 -0.0621,3.197423 -2.019829,2.991023 l -0.02919,-3.783213 z"
     id="path3750"
     inkscape:connector-curvature="0" />
  <path
     d="m 19.393629,50.649095 1.396611,-0.01528 0.0031,5.516158 -1.402722,-0.01227 z"
     id="path3752"
     inkscape:connector-curvature="0"
     style="fill:#97abb5"
     sodipodi:nodetypes="ccccc" />
  <path
     style="fill:#97abb5"
     d="m 25.523989,50.603377 -1.585649,0.0025 -1.68721,5.559292 1.296194,-0.0063 0.40879,-1.320315 1.515824,-0.0089 0.373243,1.322856 1.457425,-0.01142 -1.778617,-5.537709 z m -0.831545,1.136234 c 0.186418,0.672329 0.376266,1.345198 0.553517,2.023638 -0.363669,-0.01528 -0.73067,-0.02717 -1.094339,-0.03935 0.186419,-0.66011 0.366628,-1.324173 0.540822,-1.984282 z"
     id="path3754"
     inkscape:connector-curvature="0" />
  <path
     style="fill:#97abb5"
     d="m 30.682107,50.612264 c -0.582262,-0.0233 -1.181322,0.0333 -1.725297,0.02412 l -0.0038,5.522474 c 1.05739,-0.04279 2.230272,0.207968 3.177644,-0.391016 1.613589,-0.950433 1.782155,-3.655163 0.177735,-4.697278 -0.478271,-0.331578 -1.044011,-0.435002 -1.626274,-0.458302 z m -1.025783,0.580177 c 0.794571,0.07028 1.728733,-0.118624 2.361333,0.49258 1.115455,1.011549 0.80722,3.11709 -0.564942,3.752744 -0.589815,0.146689 -1.207046,0.11896 -1.809087,0.158691 -0.0031,-1.469953 -0.0087,-2.937115 0.01269,-4.404015 z"
     id="path3756"
     inkscape:connector-curvature="0" />
  <path
     d="m 35.196411,50.649095 2.826837,-0.01837 0.02139,0.629543 -2.16062,0 -6.12e-4,1.622339 2.019117,-0.0048 0.0074,0.7638 -2.059674,0.02064 0.01223,1.861133 2.200348,-0.0065 0.02445,0.641771 -2.89407,-0.02137 z"
     id="path3758"
     inkscape:connector-curvature="0"
     style="fill:#97abb5"
     sodipodi:nodetypes="ccccccccccccc" />
  <path
     d="m 40.244207,50.629335 0.926762,-0.0081 1.444437,4.245973 1.669601,-4.211223 0.90963,0.0033 0.184499,5.51459 -0.681497,0.0057 -0.137521,-4.036964 -1.760279,3.997305 -0.467574,0.0057 -1.549413,-4.277677 -0.320884,4.336527 -0.642551,-0.01495 z"
     id="path3760"
     inkscape:connector-curvature="0"
     style="fill:#97abb5"
     sodipodi:nodetypes="cccccccccccccc" />
  <path
     style="fill:#97abb5"
     d="m 49.551197,50.532284 c -0.288326,-0.0031 -0.583375,0.04991 -0.87217,0.171387 -1.864185,0.79457 -2.160354,3.597122 -0.766799,4.944836 0.623432,0.641771 1.599209,0.611806 2.412115,0.477345 1.252977,-0.473689 1.890697,-1.92815 1.685942,-3.205574 -0.07449,-1.291176 -1.209676,-2.374629 -2.459088,-2.387994 z m 0.0051,0.632228 c 0.255753,-0.0078 0.516721,0.05262 0.764261,0.199316 0.767065,0.455351 1.165418,1.376598 1.085451,2.173443 -0.07757,0.571377 -0.05586,0.878883 -0.248635,1.201393 -0.112123,0.202643 -0.278043,0.415639 -0.540821,0.577032 -0.646251,0.291042 -0.981253,0.456451 -1.574417,0.208397 -0.149191,-0.05935 -0.311606,-0.136167 -0.509083,-0.248829 -0.811633,-0.78391 -1.087769,-1.60045 -0.653811,-2.676178 0.187947,-0.772415 0.909798,-1.411226 1.677055,-1.434574 z"
     id="path3762"
     inkscape:connector-curvature="0"
     sodipodi:nodetypes="sccccsscccccccs" />
  <path
     d="m 54.807019,50.957757 c 0.788458,-0.556198 2.760316,-0.36097 2.760316,-0.36097 l 0.01458,0.675741 c -0.959597,-0.0092 -2.151453,-0.323945 -2.826837,0.571482 -0.990157,1.146009 -0.428338,3.367414 0.606299,3.665391 1.313982,0.161054 0.940885,0.07475 2.196089,-0.0104 l 0.0046,0.641771 c 0,0 -2.180451,0.299488 -3.011693,-0.388116 -1.531076,-1.136852 -1.369106,-3.816996 0.256707,-4.794932 z"
     id="path3764"
     inkscape:connector-curvature="0"
     style="fill:#97abb5"
     sodipodi:nodetypes="cccccccccc" />
  <path
     style="fill:#97abb5"
     d="m 59.765871,50.566561 c -0.220098,0.0041 -0.360548,0.01397 -0.360548,0.01397 l 0.0089,5.568178 0.618263,0.01016 0.0165,-2.31563 c 1.433283,-0.06723 1.863886,1.260312 2.132818,2.305473 l 0.675392,0.01016 c -0.113074,-0.950425 -0.425851,-1.85843 -0.917873,-2.677448 0.609423,-0.528712 0.317751,-0.187061 0.718556,-0.826467 0.14927,-0.682437 0.07614,-1.064502 -0.393555,-1.595805 -0.45936,-0.470365 -1.838152,-0.504956 -2.498444,-0.492579 z m 0.322461,0.597951 c 0.739792,0.05168 1.259338,-0.116227 1.842095,0.509083 0.265407,0.339463 -0.0033,1.187868 -0.454493,1.369828 -0.528696,0.03973 -0.862715,0.06762 -1.39141,0.11045 l 0.0038,-1.989361 z"
     id="path3766"
     inkscape:connector-curvature="0" />
  <path
     style="fill:#97abb5"
     d="m 66.123702,50.631307 -1.928426,5.519936 0.831548,-0.0063 0.511616,-1.651664 1.919539,0.03047 0.562402,1.633891 c 0,0 0.505011,-0.0046 0.679206,0.0076 l -1.796397,-5.523745 -0.779488,-0.01016 z m 0.42148,0.940725 0.751564,2.347369 -1.613577,-0.01269 0.862013,-2.334674 z"
     id="path3768"
     inkscape:connector-curvature="0" />
  <path
     d="m 71.272962,50.99137 c 0.79457,-0.583701 2.823713,-0.377026 2.823713,-0.377026 l 0.0031,0.658184 c -0.687609,-0.02754 -1.38133,-0.103903 -2.065883,0.0065 -1.439394,0.614268 -1.772502,2.771827 -0.6326,3.826161 0.681497,0.74873 1.79084,0.363669 2.674035,0.400345 l -0.02219,0.656265 c 0,0 -2.162892,0.284994 -2.981911,-0.417894 -1.521909,-1.115459 -1.39661,-3.761989 0.201698,-4.752145 z"
     id="path3770"
     inkscape:connector-curvature="0"
     style="fill:#97abb5"
     sodipodi:nodetypes="ccccccccc" />
  <path
     d="m 75.404727,50.615482 0.729258,0.02332 1.416083,2.334456 1.291501,-2.328695 0.801886,0.0017 -1.718564,3.094073 -0.005,2.406371 -0.828187,0.01267 -0.01491,-2.367647 z"
     id="path3772"
     inkscape:connector-curvature="0"
     style="fill:#97abb5"
     sodipodi:nodetypes="cccccccccc" />
  <path
     d="m 81.296774,50.649095 3.198893,0.0041 0.0088,0.922215 -2.226799,0.01487 0.01268,1.41468 2.140723,-0.0017 -0.0048,0.969054 -2.089975,0.01072 0.02137,2.157567 -1.060445,0 z"
     id="path3774"
     inkscape:connector-curvature="0"
     style="fill:#97abb5"
     sodipodi:nodetypes="ccccccccccc" />
  <path
     d="m 86.289208,50.642628 1.226603,-0.01186 c -0.0024,1.497108 -0.219604,2.555676 0.147249,4.028693 0.300902,0.674849 1.640539,0.665383 1.848344,-0.101675 0.161973,-1.298818 0.02754,-2.612918 0.06418,-3.917845 l 1.221281,-0.0065 c -0.04437,1.301238 0.242564,2.995289 -0.231125,4.388844 -0.488963,1.283534 -2.148393,1.405774 -3.245515,0.947369 -1.579967,-1.280479 -0.953414,-4.712601 -1.031016,-5.327031 z"
     id="path3776"
     inkscape:connector-curvature="0"
     style="fill:#97abb5"
     sodipodi:nodetypes="ccccccccc" />
  <path
     d="m 92.698858,50.664378 1.424117,-0.02754 1.916134,3.786438 0.03055,-3.758927 1.167409,-0.01528 0,5.497819 -1.325182,-0.0088 -2.021184,-3.66761 -0.0093,3.655024 -1.185739,0.0032 z"
     id="path3778"
     inkscape:connector-curvature="0"
     style="fill:#97abb5"
     sodipodi:nodetypes="ccccccccccc" />
  <path
     style="fill:#97abb5"
     d="m 100.64361,50.646542 c -0.45073,-0.0113 -0.915511,-0.01115 -1.451074,0.0025 l 0.04067,5.507239 c 1.225464,-0.05309 2.587634,0.220325 3.666404,-0.519239 1.75723,-1.219354 1.37228,-4.538194 -0.88613,-4.923255 -0.48225,-0.03233 -0.9191,-0.05598 -1.36982,-0.06728 z m -0.30343,0.867092 c 0.59593,0.0611 1.29473,-0.02724 1.78371,0.403712 0.8129,0.669274 0.72131,1.994189 0.14472,2.823444 -0.43396,0.602039 -1.26709,0.452005 -1.91192,0.51924 l -0.0165,-3.746396 z"
     id="path3780"
     inkscape:connector-curvature="0" />
  <path
     sodipodi:nodetypes="cccccccccc"
     style="fill:#97abb5"
     inkscape:connector-curvature="0"
     id="path3888"
     d="m 75.404727,50.615482 0.801398,0.02332 1.343943,2.334456 1.291501,-2.328695 0.801886,0.0017 -1.718564,3.094073 -0.005,2.406371 -0.828187,0.01267 -0.01491,-2.367647 z" />
  <path
     sodipodi:nodetypes="sccccsscccccccs"
     inkscape:connector-curvature="0"
     id="path4816"
     d="m 49.551197,50.532284 c -0.288326,-0.0031 -0.583375,0.04991 -0.87217,0.171387 -1.864185,0.79457 -2.160354,3.597122 -0.766799,4.944836 0.623432,0.641771 1.599209,0.611806 2.412115,0.477345 1.252977,-0.473689 1.890697,-1.92815 1.685942,-3.205574 -0.07449,-1.291176 -1.209676,-2.374629 -2.459088,-2.387994 z m 0.0051,0.632228 c 0.255753,-0.0078 0.516721,0.05262 0.764261,0.199316 0.767065,0.455351 1.165418,1.376598 1.085451,2.173443 -0.07757,0.571377 -0.05586,0.878883 -0.248635,1.201393 -0.112123,0.202643 -0.278043,0.415639 -0.540821,0.577032 -0.646251,0.291042 -0.981253,0.456451 -1.574417,0.208397 -0.149191,-0.05935 -0.311606,-0.136167 -0.509083,-0.248829 -0.811633,-0.78391 -1.087769,-1.60045 -0.653811,-2.676178 0.187947,-0.772415 0.909798,-1.411226 1.677055,-1.434574 z"
     style="fill:#97abb5" />
  <path
     style="fill:#97abb5"
     d="m 49.551197,50.532284 c -0.288326,-0.0031 -0.583375,0.04991 -0.87217,0.171387 -1.864185,0.79457 -2.160354,3.597122 -0.766799,4.944836 0.623432,0.641771 1.599209,0.611806 2.412115,0.477345 1.252977,-0.473689 1.890697,-1.92815 1.685942,-3.205574 -0.07449,-1.291176 -1.209676,-2.374629 -2.459088,-2.387994 z m 0.0051,0.632228 c 0.255753,-0.0078 0.516721,0.05262 0.764261,0.199316 0.767065,0.455351 1.165418,1.376598 1.085451,2.173443 -0.07757,0.571377 -0.05586,0.878883 -0.248635,1.201393 -0.112123,0.202643 -0.278043,0.415639 -0.540821,0.577032 -0.646251,0.291042 -0.981253,0.456451 -1.574417,0.208397 -0.149191,-0.05935 -0.311606,-0.136167 -0.509083,-0.248829 -0.811633,-0.78391 -1.087769,-1.60045 -0.653811,-2.676178 0.187947,-0.772415 0.909798,-1.411226 1.677055,-1.434574 z"
     id="path4818"
     inkscape:connector-curvature="0"
     sodipodi:nodetypes="sccccsscccccccs" />
</svg>
