<?xml version="1.0" encoding="UTF-8" standalone="no"?>
<svg
   xmlns:dc="http://purl.org/dc/elements/1.1/"
   xmlns:cc="http://creativecommons.org/ns#"
   xmlns:rdf="http://www.w3.org/1999/02/22-rdf-syntax-ns#"
   xmlns:svg="http://www.w3.org/2000/svg"
   xmlns="http://www.w3.org/2000/svg"
   xmlns:sodipodi="http://sodipodi.sourceforge.net/DTD/sodipodi-0.dtd"
   xmlns:inkscape="http://www.inkscape.org/namespaces/inkscape"
   width="150"
   height="39.351578"
   viewBox="0 0 149.99999 39.351579"
   id="svg4934"
   version="1.1"
   inkscape:version="0.91 r13725"
   sodipodi:docname="open-itp.svg">
  <metadata
     id="metadata4946">
    <rdf:RDF>
      <cc:Work
         rdf:about="">
        <dc:format>image/svg+xml</dc:format>
        <dc:type
           rdf:resource="http://purl.org/dc/dcmitype/StillImage" />
        <dc:title></dc:title>
      </cc:Work>
    </rdf:RDF>
  </metadata>
  <defs
     id="defs4944" />
  <sodipodi:namedview
     pagecolor="#ffffff"
     bordercolor="#666666"
     borderopacity="1"
     objecttolerance="10"
     gridtolerance="10"
     guidetolerance="10"
     inkscape:pageopacity="0"
     inkscape:pageshadow="2"
     inkscape:window-width="1095"
     inkscape:window-height="501"
     id="namedview4942"
     showgrid="false"
     fit-margin-top="0"
     fit-margin-left="0"
     fit-margin-right="0"
     fit-margin-bottom="0"
     inkscape:zoom="1.8441403"
     inkscape:cx="84.050003"
     inkscape:cy="22.050001"
     inkscape:window-x="40"
     inkscape:window-y="85"
     inkscape:window-maximized="0"
     inkscape:current-layer="svg4934" />
  <path
     d="m 20.791196,33.372992 c -0.178465,0 -0.446163,-0.08923 -0.624628,0 -0.08923,0.624628 -0.08923,1.695419 0,2.05235 l 0.35693,0 c 0.08923,0 0.178465,0 0.267698,-0.08923 0.178465,-0.35693 0.178465,-1.606187 0,-1.963117 z m -1.69542,0 -0.624628,0 c -0.08923,0.624628 -0.08923,1.784652 0.08923,2.05235 l 0.624628,0 c 0.08923,-0.535396 0.08923,-1.69542 -0.08923,-2.05235 z m 2.944676,1.963117 c 0.267698,0.08923 0.446163,0 0.624628,-0.178465 l 0,-1.69542 -0.624628,0 c -0.08923,0.446163 -0.08923,1.516955 0,1.873885 z m -4.729328,-1.963117 -0.535395,0 0,1.784652 c 0.178465,0.08923 0.35693,0.08923 0.535395,0.178465 0.178466,-0.624628 0.178466,-1.695419 0,-1.963117 z m -1.606186,0 -0.713861,0 0,1.427721 c 0.267698,0.08923 0.446163,0.08923 0.713861,0.178466 0,-0.624629 0.08923,-1.070792 0,-1.606187 z m 8.655562,0 -0.624628,0 0,1.516954 c 0.267697,0.08923 0.446163,-0.08923 0.624628,-0.178465 0.08923,-0.446163 0.08923,-0.981559 0,-1.338489 z m -11.064843,0.713861 c 0.267698,0.08923 0.356931,0.35693 0.713861,0.178465 l 0,-0.981559 -0.713861,0 0,0.803094 z m 12.760262,-0.713861 -0.535396,0 c 0,0.35693 -0.08923,0.624628 0,0.981558 0.178466,-0.08923 0.356931,-0.178465 0.624629,-0.267697 0,-0.267698 0,-0.446163 -0.08923,-0.713861 z m -6.335514,5.978584 C 8.8340274,39.351576 0,30.517549 0,19.720404 0,8.8340274 8.8340274,0 19.720405,0 30.606782,0 39.440809,8.8340274 39.440809,19.720404 39.351576,30.517549 30.517549,39.351576 19.720405,39.351576 Z m 0,-37.566924 c -9.904819,0 -17.935753,8.0309344 -17.935753,17.935752 0,9.904819 8.030934,17.935753 17.935753,17.935753 9.904818,0 17.935752,-8.030934 17.935752,-17.935753 0,-9.9048176 -8.120167,-17.935752 -17.935752,-17.935752 z m 14.634146,23.825104 c 0.178465,-0.446163 0.35693,-0.803094 0.446163,-1.249257 0.178465,-0.624628 0.35693,-1.338489 0.446163,-1.963117 0.08923,-0.713861 0.178465,-1.427722 0.178465,-2.141582 0,-0.803094 0,-1.606187 -0.08923,-2.320048 0,-0.535396 -0.08923,-1.070791 -0.178465,-1.606187 L 34.622249,14.455681 34.086853,13.117192 C 33.819155,12.581796 33.551457,12.135633 33.28376,11.68947 32.837597,10.886377 32.302201,10.172516 31.766805,9.4586554 31.052945,8.5663294 30.249851,7.8524684 29.357525,7.1386084 28.643664,6.6032124 27.840571,6.0678164 27.037478,5.6216534 26.234384,5.1754907 25.431291,4.8185603 24.628198,4.5508625 24.092802,4.4616299 23.557406,4.3723973 22.932778,4.2831647 22.486615,4.1939321 22.040452,4.1046995 21.594289,4.1046995 20.523498,3.9262343 19.452707,3.9262343 18.381916,4.0154669 c -0.267698,0 -0.624629,0.089233 -0.892326,0.089233 -0.446163,0.089233 -0.981559,0.089233 -1.427722,0.2676978 L 14.455681,4.9077933 C 13.74182,5.0862585 13.117192,5.4431884 12.492564,5.7108864 11.154075,6.4247474 9.9940512,7.2278404 8.92326,8.2986314 8.2093992,9.0124924 7.4955384,9.7263534 6.8709102,10.618679 6.0678168,11.778703 5.4431886,12.938727 4.9970256,14.187983 4.7293278,14.901844 4.5508626,15.704937 4.2831648,16.50803 4.1046996,17.132659 4.1046996,17.668054 4.015467,18.292682 3.926234,18.56038 3.926234,18.828078 3.926234,19.095776 c 0,0.892326 -0.089233,1.873884 0.1784652,2.76621 0,0.803094 0.2676978,1.516955 0.446163,2.320048 0.1784652,0.803093 0.5353956,1.606187 0.892326,2.40928 0.6246282,1.249257 1.338489,2.498513 2.3200476,3.569304 0.8030934,0.892326 1.6954194,1.784652 2.6769782,2.498513 0.356931,0.267698 0.803094,0.535396 1.249257,0.803093 l 0,-7.584771 c 0,-0.267697 0,-0.535395 0.267697,-0.71386 l 3.123141,0 c 0.08923,-0.535396 0,-1.070792 0.08923,-1.606187 0.535396,-0.08923 1.070791,0 1.606187,-0.08923 0.08923,-0.535395 -0.08923,-1.070791 0.08923,-1.606187 l 5.264724,0 c 0.08923,0 0.178465,0 0.35693,0.08923 l 0,1.606187 c 0.624628,0.08923 1.160024,0 1.69542,0.08923 0.08923,0.535396 0,1.070792 0.08923,1.606187 l 3.301606,0 0,7.763236 c 0,0.178466 -0.08923,0.356931 0.08923,0.535396 0.267698,-0.178465 0.624628,-0.35693 0.803093,-0.535396 0.535396,-0.446163 1.160024,-0.892326 1.69542,-1.338489 0.803093,-0.624628 1.427721,-1.427721 2.052349,-2.320047 0.981559,-1.338489 1.606187,-2.498513 2.141583,-3.747769 z M 19.541939,19.363474 c -0.803093,0 -1.427721,-0.624629 -1.516954,-1.516955 0,-0.803093 0.713861,-1.516954 1.516954,-1.427721 0.892326,0 1.427722,0.624628 1.427722,1.427721 0.178465,0.803094 -0.624628,1.606187 -1.427722,1.516955 z m 2.766211,-3.926235 c -0.08923,0.356931 -0.446163,0.535396 -0.803093,0.356931 -0.267698,-0.08923 -0.446163,-0.267698 -0.713861,-0.356931 -0.981559,-0.35693 -1.963117,-0.35693 -2.855443,0.267698 -0.356931,0.267698 -0.624629,0.178465 -0.892326,0 -0.267698,-0.267698 -0.267698,-0.624628 0.08923,-0.981559 0.535396,-0.446162 1.160024,-0.71386 1.873885,-0.803093 l 0.624628,0 c 0.892326,0 1.695419,0.178465 2.40928,0.713861 0.267698,0.267698 0.356931,0.535395 0.267698,0.803093 z m 1.338489,-2.052349 c -0.267698,-0.08923 -0.446163,-0.267698 -0.624628,-0.356931 -0.892326,-0.535395 -1.873885,-0.892326 -2.944676,-0.892326 -0.892326,0 -1.784652,0 -2.587745,0.356931 -0.535396,0.267697 -1.070792,0.535395 -1.606187,0.892326 -0.267698,0 -0.446163,0.178465 -0.713861,0 -0.446163,-0.178466 -0.535396,-0.535396 -0.267698,-0.892326 0.08923,-0.08923 0.178465,-0.267698 0.356931,-0.356931 0.624628,-0.446163 1.338489,-0.803093 2.052349,-1.070791 1.070792,-0.35693 2.230815,-0.446163 3.390839,-0.267698 1.249257,0.178465 2.498513,0.624628 3.480072,1.427722 0.178465,0.178465 0.267697,0.35693 0.35693,0.446163 0,0.624628 -0.446163,0.892326 -0.892326,0.713861 z m 3.033908,-3.212374 c -0.08923,0.535396 -0.624628,0.713861 -1.070791,0.35693 -0.446163,-0.35693 -0.981558,-0.6246276 -1.427721,-0.8923256 -0.803094,-0.35693 -1.606187,-0.624628 -2.409281,-0.803093 -1.249256,-0.267698 -2.498512,-0.267698 -3.658536,-0.08923 -1.516954,0.267698 -3.033909,0.803094 -4.283165,1.7846516 -0.446163,0.356931 -0.892326,0.267698 -1.070791,-0.08923 -0.08923,-0.178465 -0.08923,-0.356931 0,-0.4461626 0.178465,-0.267698 0.35693,-0.446163 0.624628,-0.624628 1.160024,-0.803094 2.40928,-1.338489 3.747769,-1.606187 0.535396,-0.08923 1.070791,-0.178465 1.516954,-0.178465 0.356931,0 0.713861,-0.08923 1.070792,-0.08923 1.784652,0 3.480071,0.35693 4.997025,1.160024 0.624628,0.267698 1.160024,0.713861 1.695419,1.070791 0.178466,0 0.267698,0.178465 0.267698,0.4461626 z"
     id="path4936"
     inkscape:connector-curvature="0"
     style="fill:#97abb5" />
  <g
     id="g4938"
     transform="scale(0.892326,0.892326)"
     style="fill:#97abb5">
    <path
       d="m 64.5,8.8 c 3.4,0 6.2,1.1 8.4,3.2 2.2,2.1 3.4,4.8 3.4,8 0,3.2 -1.1,5.9 -3.4,8 -2.3,2.1 -5.1,3.2 -8.5,3.2 -3.3,0 -6,-1.1 -8.2,-3.2 -2.2,-2.1 -3.3,-4.7 -3.3,-7.9 0,-3.3 1.1,-5.9 3.3,-8.1 2.1,-2.2 4.9,-3.2 8.3,-3.2 z m 0.1,2.9 c -2.5,0 -4.5,0.8 -6.1,2.3 -1.6,1.6 -2.4,3.5 -2.4,6 0,2.3 0.8,4.3 2.4,5.9 1.6,1.6 3.6,2.3 6,2.3 2.4,0 4.5,-0.8 6.1,-2.4 1.6,-1.6 2.4,-3.6 2.4,-5.9 0,-2.3 -0.8,-4.2 -2.4,-5.8 -1.7,-1.6 -3.7,-2.4 -6,-2.4 z m 14.9,26.5 0,-21.7 5,0 c 2.5,0 4.5,0.6 5.9,1.9 1.4,1.3 2.1,3 2.1,5.3 0,2.2 -0.7,3.9 -2,5.3 -1.3,1.4 -3,2.1 -5.1,2.1 -0.9,0 -1.9,-0.2 -3,-0.6 l 0,7.7 -2.9,0 z m 4.9,-19 -2,0 0,8.8 c 0.9,0.4 1.8,0.7 2.7,0.7 1.3,0 2.4,-0.5 3.3,-1.4 0.8,-0.9 1.3,-2.1 1.3,-3.6 0,-0.9 -0.2,-1.8 -0.6,-2.5 -0.4,-0.7 -0.9,-1.2 -1.6,-1.6 -0.8,-0.3 -1.8,-0.4 -3.1,-0.4 z m 23.4,4.7 -10,0 c 0.1,1.4 0.5,2.5 1.4,3.3 0.8,0.8 1.9,1.2 3.3,1.2 1.9,0 3.6,-0.6 5.2,-1.7 l 0,2.8 c -0.9,0.6 -1.7,1 -2.6,1.2 -0.9,0.2 -1.9,0.4 -3,0.4 -1.6,0 -2.9,-0.3 -3.8,-1 -1,-0.7 -1.8,-1.5 -2.3,-2.6 -0.6,-1.1 -0.9,-2.4 -0.9,-3.8 0,-2.2 0.6,-4 1.9,-5.3 1.2,-1.4 2.8,-2 4.8,-2 1.9,0 3.4,0.7 4.6,2 1.1,1.3 1.7,3.1 1.7,5.3 l 0,0.2 z m -10,-1.7 7.2,0 c -0.1,-1.1 -0.4,-2 -1,-2.6 -0.6,-0.6 -1.4,-0.9 -2.4,-0.9 -1,0 -1.9,0.3 -2.5,0.9 -0.7,0.6 -1.1,1.5 -1.3,2.6 z m 15.9,-5.7 0,1.8 c 1.3,-1.4 2.7,-2.1 4.3,-2.1 0.9,0 1.7,0.2 2.5,0.7 0.8,0.5 1.4,1.1 1.8,1.9 0.4,0.8 0.6,2.1 0.6,3.8 l 0,8.2 -2.8,0 0,-8.2 c 0,-1.5 -0.2,-2.5 -0.7,-3.1 -0.4,-0.6 -1.2,-0.9 -2.2,-0.9 -1.3,0 -2.5,0.7 -3.4,2 l 0,10.2 -2.9,0 0,-14.3 2.8,0 z m 13.6,-7.4 3.1,0 0,21.8 -3.1,0 0,-21.8 z m 6.1,0 18.2,0 0,2.8 -7.6,0 0,19 -3.1,0 0,-19 -7.5,0 0,-2.8 z m 20.9,21.8 0,-21.8 6.9,0 c 2.1,0 3.7,0.6 5,1.7 1.2,1.1 1.9,2.6 1.9,4.5 0,1.3 -0.3,2.4 -1,3.4 -0.6,1 -1.5,1.7 -2.6,2.1 -1.1,0.4 -2.7,0.7 -4.7,0.7 l -2.3,0 0,9.4 -3.2,0 z m 6.4,-19.1 -3.2,0 0,6.8 3.4,0 c 1.3,0 2.2,-0.3 2.9,-0.9 0.7,-0.6 1,-1.5 1,-2.6 0,-2.1 -1.3,-3.3 -4.1,-3.3 z"
       id="path4940"
       inkscape:connector-curvature="0" />
  </g>
</svg>
