<svg xmlns="http://www.w3.org/2000/svg" width="413.2" height="274.5" viewBox="0 0 413.2 274.5"><path fill="#092930" d="M313.1 38.7h2.3v21.2h-2.3zM313.1 38.7h19.4v9h-19.4zM236.2 88.5h5.6v20.3h-5.6z"/><path fill="#324C56" d="M219.5 134.9h151.4v139.5H219.5z"/><path fill="#4E9DA5" d="M259.1 136.9c0-31 25.2-56.2 56.2-56.2 31 0 56.2 25.2 56.2 56.2"/><path fill="#FBF9F3" d="M291.2 80.8c0-12.8 10.3-23.1 23.1-23.1s23.1 10.3 23.1 23.1"/><path fill="#092930" d="M284.3 76.9h62V91h-62zM132.3 105.7h132.5v168.5H132.3z"/><path fill="#4E9DA5" d="M125.7 104.8h145.7v10.1H125.7z"/><g fill="#FBF9F3"><path d="M154.6 172.8h17v22.8h-17zM189.7 172.8h17v22.8h-17zM224.8 172.8h17v22.8h-17z"/></g><g fill="#FBF9F3"><path d="M154.6 134.9h17v22.8h-17zM189.7 134.9h17v22.8h-17zM224.8 134.9h17v22.8h-17z"/></g><path fill="#FBF9F3" d="M250.5 218.4H145.9l3.4-7h98.5zM152.2 221.7h54.5v38.4h-54.5zM216.7 221.7h29.5v52.5h-29.5z"/><path fill="#092930" d="M145.9 218.4h104.6v8.6H145.9zM132.3 114.8h132.5v4.3H132.3z"/><path fill="#4E9DA5" d="M0 154.9h132.5v119.3H0z"/><g fill="#FBF9F3"><path d="M22.3 172.8h17v22.8h-17zM57.4 172.8h17v22.8h-17zM92.5 172.8h17v22.8h-17z"/></g><path fill="#FBF9F3" d="M19.9 221.7h54.5v38.4H19.9zM84.4 221.7h29.5v52.5H84.4z"/><path fill="#092930" d="M13.6 205.3h104.6v8.6H13.6zM280.1 172.9h111.2v72.8H280.1z"/><path fill="#FBF9F3" d="M280.1 172.9h14.4v76.2h-14.4zM344.6 172.9H359v76.2h-14.4zM312.3 172.9h14.4v76.2h-14.4zM376.8 172.9h14.4v76.2h-14.4zM280.1 172.9h14.4v76.2h-14.4zM258 260.1h155.2v14.4H258z"/><path fill="#092930" d="M264.8 245.7h141.7v14.4H264.8zM391.4 206L297 172.9h94.4z"/><path fill="#FBF9F3" d="M264.8 159.8h141.7v14.4H264.8z"/><path fill="#092930" d="M264.8 160l70.9-33.6 70.8 33.6z"/><circle fill="#FBF9F3" cx="335.1" cy="145.2" r="6.8"/><path fill="#092930" d="M251.5 66.5c6.5 6.5 6.5 17 0 23.5s-17 6.5-23.5 0"/><path fill="#092930" d="M229.157 65.955l12.093 12.09-2.616 2.617-12.093-12.09zM228 71c-2.1 0-3.8-1.7-3.8-3.8 0-2.1 1.7-3.8 3.8-3.8 2.1 0 3.8 1.7 3.8 3.8-.1 2.2-1.7 3.8-3.8 3.8z"/><g fill="#092930"><path d="M67.8 149.3h16.9v5.6H67.8zM69.4 147.4c3.1 3.1 8.2 3.1 11.4 0 3.1-3.1 3.1-8.2 0-11.4"/></g><g fill="#FBF9F3"><path d="M64.4 63.1c0-10.3-8.3-18.6-18.6-18.6s-18.6 8.3-18.6 18.6M111.6 63.8c0-15.7-12.8-28.5-28.5-28.5S54.6 48.1 54.6 63.8"/></g><g fill="#FBF9F3"><path d="M281.2 35c0-12.1-9.8-22-22-22-12.1 0-22 9.8-22 22M198.9 35c0-7.5-6-13.5-13.5-13.5s-13.5 6-13.5 13.5M259.1 35c0-19.4-15.7-35-35-35-19.4 0-35 15.7-35 35"/></g></svg>