<?xml version="1.0" encoding="UTF-8" standalone="no"?>
<svg width="24px" height="25px" viewBox="0 0 24 25" version="1.1" xmlns="http://www.w3.org/2000/svg" xmlns:xlink="http://www.w3.org/1999/xlink" xmlns:sketch="http://www.bohemiancoding.com/sketch/ns">
    <!-- Generator: Sketch 3.3 (11970) - http://www.bohemiancoding.com/sketch -->
    <title>Your_Icon Copy 2</title>
    <desc>Created with Sketch.</desc>
    <defs></defs>
    <g id="Home-Page" stroke="none" stroke-width="1" fill="none" fill-rule="evenodd" sketch:type="MSPage">
        <g id="Artboard-1" sketch:type="MSArtboardGroup" transform="translate(-788.000000, -3280.000000)" fill="#B5B5B5">
            <g id="Your_Icon-Copy-2" sketch:type="MSLayerGroup" transform="translate(788.000000, 3280.000000)">
                <path d="M21.9141863,12.0735327 C21.9141863,11.4205568 23.9251024,10.5995074 23.8163977,9.9779246 C23.7038536,9.33823046 21.5336,9.25902333 21.3171506,8.66183058 C21.0966217,8.0552199 22.7051146,6.58964657 22.3871595,6.03712856 C22.0672847,5.48122976 20.0006964,6.15376589 19.5910743,5.6642755 C19.1802522,5.17261175 20.1969887,3.24121358 19.7084177,2.82899844 C19.2224863,2.41678331 17.5055287,3.75509397 16.9538466,3.43295279 C16.4040842,3.11346794 16.7052417,0.947587699 16.1024468,0.727111764 C15.5102104,0.510016621 14.3554934,2.35786093 13.7200631,2.24581182 C13.1031102,2.13786797 12.6471745,0 11.9975863,0 C11.3489578,0 10.8939821,2.13786797 10.2765492,2.24605331 C9.64111892,2.35810242 8.48688187,0.510258106 7.89344565,0.727353249 C7.29089072,0.947829184 7.59228817,3.11370943 7.04324568,3.43319427 C6.49012376,3.75533545 4.77508588,2.41702479 4.28939445,2.82923993 C3.79962359,3.24145507 4.81540019,5.17285324 4.40505812,5.66451699 C3.99591588,6.15424886 1.93004753,5.48026382 1.60897285,6.03688708 C1.29149767,6.58868063 2.8992707,8.05570287 2.67922176,8.66231355 C2.46325225,9.2595063 0.292278738,9.33943789 0.180214558,9.97840757 C0.0715099047,10.5999903 2.08242602,11.4210398 2.08242602,12.0740156 C2.08242602,12.7277159 0.0717498708,13.5494899 0.180214558,14.1705896 C0.292278738,14.8095593 2.46325225,14.8899739 2.67922176,15.4866837 C2.8992707,16.0937773 1.29101774,17.5595921 1.60897285,18.1125931 C1.92980756,18.6694578 3.99591588,17.9940239 4.40505812,18.4849632 C4.81540019,18.9763855 3.79962359,20.9075422 4.28939445,21.3197573 C4.77484592,21.7324554 6.4898838,20.3929373 7.04324568,20.7160444 C7.59252813,21.0362537 7.29113068,23.2004436 7.89344565,23.4209195 C8.48688187,23.6384976 9.64015906,21.7904118 10.2758293,21.9024609 C10.894222,22.0116122 11.3491978,24.1489972 11.9978262,24.1489972 C12.6476545,24.1489972 13.1033501,22.0116122 13.7203031,21.9024609 C14.3566932,21.7904118 15.5104503,23.6384976 16.1026867,23.4209195 C16.7054816,23.2004436 16.4043241,21.0362537 16.9531267,20.7160444 C17.5060086,20.3929373 19.2227263,21.7324554 19.7086577,21.3197573 C20.1965088,20.9075422 19.1804922,18.9763855 19.5913142,18.4849632 C20.0009364,17.9945069 22.0675246,18.6694578 22.3873995,18.1125931 C22.7053546,17.5595921 21.0968617,16.0928114 21.3173905,15.4864422 C21.53384,14.8890079 23.7040936,14.8093178 23.8166377,14.1705896 C23.9251024,13.5487654 21.9141863,12.7269915 21.9141863,12.0735327 L21.9141863,12.0735327 Z M19.2059286,12.0735327 C19.2059286,13.5765362 18.7514328,14.9725618 17.9734626,16.1307245 L15.08763,13.6612975 C15.3038395,13.205615 15.4288618,12.6972888 15.4288618,12.158294 C15.4288618,11.7282089 15.3477533,11.3179257 15.2059333,10.9371036 L18.4766716,8.91056027 C18.9395662,9.86756589 19.2059286,10.9380695 19.2059286,12.0735327 L19.2059286,12.0735327 Z M11.9975863,4.8207679 C14.3761305,4.8207679 16.4791936,5.98472629 17.7918083,7.77195783 L14.5155508,9.80188193 C13.8794006,9.10229948 12.9677693,8.66014018 11.9510328,8.66014018 C11.9443138,8.66014018 11.9375947,8.66086463 11.9311156,8.66086463 L11.0240437,4.89442087 C11.3431986,4.85095354 11.6669129,4.8207679 11.9975863,4.8207679 L11.9975863,4.8207679 Z M9.74934365,5.18541046 L10.6487367,8.91708037 C9.74334449,9.28631115 9.02968524,10.0286365 8.69157298,10.9537661 L4.92890417,10.6647083 C5.43475275,8.08130029 7.30336895,5.99390272 9.74934365,5.18541046 L9.74934365,5.18541046 Z M4.79020375,12.0735327 C4.79020375,12.0452789 4.79428317,12.0179911 4.79452314,11.9894958 L8.48136265,12.2732409 C8.5207171,13.4966046 9.1830236,14.5586563 10.1604056,15.1522267 L8.76980193,18.5528205 C6.41165484,17.3601254 4.79020375,14.9097757 4.79020375,12.0735327 L4.79020375,12.0735327 Z M11.9975863,19.3277463 C11.3043241,19.3277463 10.6357785,19.2229418 10.0005882,19.0391716 L11.4039101,15.6088752 C11.5826848,15.6373704 11.7648191,15.6564477 11.9512728,15.6564477 C12.8578648,15.6564477 13.6809486,15.3048454 14.3000612,14.73325 L17.134781,17.1592098 C15.8267257,18.496313 14.0097022,19.3277463 11.9975863,19.3277463 L11.9975863,19.3277463 Z M12.9924858,12.1585354 C12.9924858,12.7371338 12.5271915,13.2058565 11.9512728,13.2058565 C11.3777538,13.2058565 10.9117395,12.7371338 10.9117395,12.1585354 C10.9117395,11.5794541 11.3777538,11.1126633 11.9512728,11.1126633 C12.5269515,11.1126633 12.9924858,11.5794541 12.9924858,12.1585354 L12.9924858,12.1585354 Z" id="Shape" sketch:type="MSShapeGroup"></path>
            </g>
        </g>
    </g>
</svg>