<?xml version="1.0" encoding="UTF-8" standalone="no"?>
<svg width="61px" height="62px" viewBox="0 0 61 62" version="1.1" xmlns="http://www.w3.org/2000/svg" xmlns:xlink="http://www.w3.org/1999/xlink" xmlns:sketch="http://www.bohemiancoding.com/sketch/ns">
    <!-- Generator: Sketch 3.3 (11970) - http://www.bohemiancoding.com/sketch -->
    <title>Your_Icon Copy</title>
    <desc>Created with Sketch.</desc>
    <defs></defs>
    <g id="Home-Page" stroke="none" stroke-width="1" fill="none" fill-rule="evenodd" sketch:type="MSPage">
        <g id="Artboard-1" sketch:type="MSArtboardGroup" transform="translate(-769.000000, -88.000000)" fill="#25171A">
            <g id="Your_Icon-Copy" sketch:type="MSLayerGroup" transform="translate(769.000000, 88.000000)">
                <path d="M55.70642,30.6912277 C55.70642,29.0313465 60.81822,26.9442178 60.54189,25.3641386 C60.2558,23.7380198 54.73896,23.5366733 54.18874,22.0185941 C53.62815,20.4765743 57.71698,16.7510495 56.90873,15.3465347 C56.0956,13.9334257 50.84228,15.6430297 49.80101,14.3987327 C48.75669,13.1489109 51.34126,8.23924752 50.0993,7.19138614 C48.86405,6.14352475 44.4995,9.54554455 43.09711,8.72665347 C41.6996,7.91451485 42.46515,2.40879208 40.93283,1.84833663 C39.42735,1.29647525 36.49203,5.99374257 34.87675,5.70891089 C33.30844,5.43451485 32.14944,0 30.49817,0 C28.84934,0 27.69278,5.43451485 26.12325,5.70952475 C24.50797,5.99435644 21.57387,1.29708911 20.06534,1.8489505 C18.53363,2.40940594 19.29979,7.91512871 17.90411,8.72726733 C16.49806,9.54615842 12.13839,6.14413861 10.90375,7.192 C9.65874,8.23986139 12.24087,13.1495248 11.19777,14.3993465 C10.15772,15.6442574 4.90623,13.9309703 4.09005,15.3459208 C3.28302,16.7485941 7.37002,20.477802 6.81065,22.0198218 C6.26165,23.537901 0.74298,23.7410891 0.45811,25.3653663 C0.18178,26.9454455 5.29358,29.0325743 5.29358,30.6924554 C5.29358,32.3541782 0.18239,34.4431485 0.45811,36.022 C0.74298,37.6462772 6.26165,37.8506931 6.81065,39.3675446 C7.37002,40.9107921 3.2818,44.6369307 4.09005,46.0426733 C4.90562,47.4582376 10.15772,45.7412673 11.19777,46.9892475 C12.24087,48.2384554 9.65874,53.147505 10.90375,54.1953663 C12.13778,55.2444554 16.49745,51.8393663 17.90411,52.6607129 C19.3004,53.4746931 18.53424,58.9761188 20.06534,59.5365743 C21.57387,60.0896634 24.50553,55.3917822 26.12142,55.6766139 C27.69339,55.9540792 28.84995,61.3873663 30.49878,61.3873663 C32.15066,61.3873663 33.30905,55.9540792 34.87736,55.6766139 C36.49508,55.3917822 39.42796,60.0896634 40.93344,59.5365743 C42.46576,58.9761188 41.70021,53.4746931 43.09528,52.6607129 C44.50072,51.8393663 48.86466,55.2444554 50.09991,54.1953663 C51.34004,53.147505 48.7573,48.2384554 49.80162,46.9892475 C50.84289,45.742495 56.09621,47.4582376 56.90934,46.0426733 C57.71759,44.6369307 53.62876,40.9083366 54.18935,39.3669307 C54.73957,37.8482376 60.25641,37.6456634 60.5425,36.022 C60.81822,34.4413069 55.70642,32.3523366 55.70642,30.6912277 L55.70642,30.6912277 Z M48.82196,30.6912277 C48.82196,34.511901 47.66662,38.0606337 45.689,41.0047129 L38.35314,34.7273663 C38.90275,33.5690099 39.22056,32.2768317 39.22056,30.9066931 C39.22056,29.8134059 39.01438,28.7704554 38.65387,27.802396 L46.96817,22.6508713 C48.14486,25.083604 48.82196,27.8048515 48.82196,30.6912277 L48.82196,30.6912277 Z M30.49817,12.2545149 C36.54449,12.2545149 41.89053,15.2133267 45.22723,19.7565149 L36.8989,24.9166337 C35.28179,23.1382772 32.9644,22.014297 30.37983,22.014297 C30.36275,22.014297 30.34567,22.0161386 30.3292,22.0161386 L28.0234,12.4417426 C28.8347,12.3312475 29.65759,12.2545149 30.49817,12.2545149 L30.49817,12.2545149 Z M24.78308,13.1814455 L27.06936,22.6674455 C24.76783,23.6060396 22.95369,25.4930495 22.0942,27.8447525 L12.5294,27.1099604 C13.81528,20.5428713 18.56535,15.2366535 24.78308,13.1814455 L24.78308,13.1814455 Z M12.17682,30.6912277 C12.17682,30.6194059 12.18719,30.5500396 12.1878,30.477604 L21.55984,31.1988911 C21.65988,34.3087129 23.34348,37.0084752 25.82801,38.5173465 L22.29306,47.1617426 C16.29859,44.1298812 12.17682,37.9010297 12.17682,30.6912277 L12.17682,30.6912277 Z M30.49817,49.1316238 C28.73588,49.1316238 27.03642,48.8652079 25.42175,48.3980594 L28.98903,39.6781584 C29.44348,39.7505941 29.90647,39.7990891 30.38044,39.7990891 C32.68502,39.7990891 34.77732,38.9053069 36.35112,37.452297 L43.55705,43.6191485 C40.23194,47.018099 35.61302,49.1316238 30.49817,49.1316238 L30.49817,49.1316238 Z M33.02723,30.9073069 C33.02723,32.3781188 31.84444,33.5696238 30.38044,33.5696238 C28.92254,33.5696238 27.73792,32.3781188 27.73792,30.9073069 C27.73792,29.4352673 28.92254,28.2486733 30.38044,28.2486733 C31.84383,28.2486733 33.02723,29.4352673 33.02723,30.9073069 L33.02723,30.9073069 Z" id="Shape" sketch:type="MSShapeGroup"></path>
            </g>
        </g>
    </g>
</svg>